<mxfile host="app.diagrams.net" agent="Mozilla/5.0 (Macintosh; Intel Mac OS X 10_15_7) AppleWebKit/537.36 (KHTML, like Gecko) Chrome/135.0.0.0 Safari/537.36" version="27.0.6">
  <diagram name="PÃ¡gina-1" id="pLxgN6Oqmv-BAC2LK9Wx">
    <mxGraphModel dx="2128" dy="839" grid="1" gridSize="10" guides="1" tooltips="1" connect="1" arrows="1" fold="1" page="1" pageScale="1" pageWidth="827" pageHeight="1169" math="0" shadow="0">
      <root>
        <mxCell id="0" />
        <mxCell id="1" parent="0" />
        <mxCell id="-IuH-Xse1U2JRsALx-bR-36" value="" style="rounded=1;whiteSpace=wrap;html=1;shadow=0;strokeWidth=1;glass=1;fillColor=#bac8d3;strokeColor=#23445d;" parent="1" vertex="1">
          <mxGeometry x="-450" y="500" width="1180" height="520" as="geometry" />
        </mxCell>
        <mxCell id="-IuH-Xse1U2JRsALx-bR-30" value="" style="rounded=1;whiteSpace=wrap;html=1;shadow=1;strokeColor=#0e8088;strokeWidth=1;glass=1;fillColor=#b0e3e6;" parent="1" vertex="1">
          <mxGeometry y="540" width="701" height="450" as="geometry" />
        </mxCell>
        <mxCell id="-IuH-Xse1U2JRsALx-bR-74" value="" style="rounded=0;whiteSpace=wrap;html=1;shadow=1;strokeColor=#B3B3B3;strokeWidth=1;glass=1;" parent="1" vertex="1">
          <mxGeometry x="480" y="780" width="199.5" height="180" as="geometry" />
        </mxCell>
        <mxCell id="-IuH-Xse1U2JRsALx-bR-34" value="" style="rounded=0;whiteSpace=wrap;html=1;shadow=1;strokeColor=#B3B3B3;strokeWidth=1;glass=1;" parent="1" vertex="1">
          <mxGeometry x="85.5" y="578.43" width="171" height="180" as="geometry" />
        </mxCell>
        <mxCell id="-IuH-Xse1U2JRsALx-bR-31" value="" style="rounded=0;whiteSpace=wrap;html=1;shadow=1;strokeColor=#B3B3B3;strokeWidth=1;glass=1;" parent="1" vertex="1">
          <mxGeometry x="300" y="580" width="171" height="180" as="geometry" />
        </mxCell>
        <mxCell id="-IuH-Xse1U2JRsALx-bR-21" value="" style="rounded=0;whiteSpace=wrap;html=1;shadow=1;strokeColor=#B3B3B3;strokeWidth=1;glass=1;" parent="1" vertex="1">
          <mxGeometry x="508.5" y="580" width="171" height="180" as="geometry" />
        </mxCell>
        <mxCell id="-IuH-Xse1U2JRsALx-bR-9" value="" style="image;aspect=fixed;html=1;points=[];align=center;fontSize=12;image=img/lib/azure2/general/Resource_Groups.svg;" parent="1" vertex="1">
          <mxGeometry x="290" y="564" width="43" height="40.47" as="geometry" />
        </mxCell>
        <mxCell id="-IuH-Xse1U2JRsALx-bR-29" style="edgeStyle=orthogonalEdgeStyle;rounded=0;orthogonalLoop=1;jettySize=auto;html=1;dashed=1;flowAnimation=1;" parent="1" source="-IuH-Xse1U2JRsALx-bR-11" target="-IuH-Xse1U2JRsALx-bR-28" edge="1">
          <mxGeometry relative="1" as="geometry" />
        </mxCell>
        <mxCell id="-IuH-Xse1U2JRsALx-bR-11" value="" style="image;aspect=fixed;html=1;points=[];align=center;fontSize=12;image=img/lib/azure2/containers/Container_Registries.svg;" parent="1" vertex="1">
          <mxGeometry x="137" y="637.9300000000001" width="68" height="61" as="geometry" />
        </mxCell>
        <mxCell id="-IuH-Xse1U2JRsALx-bR-22" style="edgeStyle=orthogonalEdgeStyle;rounded=0;orthogonalLoop=1;jettySize=auto;html=1;dashed=1;flowAnimation=1;exitX=0.984;exitY=0.39;exitDx=0;exitDy=0;exitPerimeter=0;" parent="1" source="-IuH-Xse1U2JRsALx-bR-28" target="-IuH-Xse1U2JRsALx-bR-20" edge="1">
          <mxGeometry relative="1" as="geometry" />
        </mxCell>
        <mxCell id="-IuH-Xse1U2JRsALx-bR-16" value="" style="verticalLabelPosition=bottom;html=1;verticalAlign=top;align=center;strokeColor=none;fillColor=#00BEF2;shape=mxgraph.azure.cloud;" parent="1" vertex="1">
          <mxGeometry x="20" y="520" width="50" height="33.83" as="geometry" />
        </mxCell>
        <mxCell id="-IuH-Xse1U2JRsALx-bR-18" value="" style="dashed=0;outlineConnect=0;html=1;align=center;labelPosition=center;verticalLabelPosition=bottom;verticalAlign=top;shape=mxgraph.weblogos.oracle;fillColor=#FF0000;strokeColor=none" parent="1" vertex="1">
          <mxGeometry x="610" y="710" width="59" height="17" as="geometry" />
        </mxCell>
        <mxCell id="-IuH-Xse1U2JRsALx-bR-20" value="" style="verticalLabelPosition=bottom;html=1;verticalAlign=top;strokeWidth=1;align=center;outlineConnect=0;dashed=0;outlineConnect=0;shape=mxgraph.aws3d.oracleDbServer;fillColor=#ffffff;strokeColor=#5E5E5E;aspect=fixed;" parent="1" vertex="1">
          <mxGeometry x="550" y="621.5" width="73" height="78.93" as="geometry" />
        </mxCell>
        <mxCell id="-IuH-Xse1U2JRsALx-bR-28" value="" style="image;aspect=fixed;html=1;points=[];align=center;fontSize=12;image=img/lib/azure2/compute/Container_Instances.svg;" parent="1" vertex="1">
          <mxGeometry x="353.5" y="634.4300000000001" width="64" height="68" as="geometry" />
        </mxCell>
        <mxCell id="-IuH-Xse1U2JRsALx-bR-32" value="Application" style="text;strokeColor=none;align=center;fillColor=none;html=1;verticalAlign=middle;whiteSpace=wrap;rounded=0;fontFamily=Verdana;" parent="1" vertex="1">
          <mxGeometry x="340" y="567.23" width="60" height="30" as="geometry" />
        </mxCell>
        <mxCell id="-IuH-Xse1U2JRsALx-bR-33" value="Database" style="text;strokeColor=none;align=center;fillColor=none;html=1;verticalAlign=middle;whiteSpace=wrap;rounded=0;fontStyle=0;fontFamily=Verdana;" parent="1" vertex="1">
          <mxGeometry x="520" y="564" width="60" height="30" as="geometry" />
        </mxCell>
        <mxCell id="-IuH-Xse1U2JRsALx-bR-35" value="" style="rounded=1;whiteSpace=wrap;html=1;shadow=1;strokeColor=#10739e;strokeWidth=1;glass=1;fillColor=#b1ddf0;" parent="1" vertex="1">
          <mxGeometry x="-420" y="540" width="381" height="360" as="geometry" />
        </mxCell>
        <mxCell id="-IuH-Xse1U2JRsALx-bR-37" value="Microsoft Azure" style="text;strokeColor=none;align=center;fillColor=none;html=1;verticalAlign=middle;whiteSpace=wrap;rounded=0;fontFamily=Verdana;" parent="1" vertex="1">
          <mxGeometry x="60" y="527" width="95" height="30" as="geometry" />
        </mxCell>
        <mxCell id="-IuH-Xse1U2JRsALx-bR-38" value="delfos-machine-container-registry" style="text;strokeColor=none;align=center;fillColor=none;html=1;verticalAlign=middle;whiteSpace=wrap;rounded=0;fontFamily=Verdana;" parent="1" vertex="1">
          <mxGeometry x="96.5" y="713" width="149" height="30" as="geometry" />
        </mxCell>
        <mxCell id="-IuH-Xse1U2JRsALx-bR-39" value="Delfos Machine - Application" style="text;strokeColor=none;align=center;fillColor=none;html=1;verticalAlign=middle;whiteSpace=wrap;rounded=0;fontFamily=Verdana;" parent="1" vertex="1">
          <mxGeometry x="300" y="717" width="168" height="30" as="geometry" />
        </mxCell>
        <mxCell id="-IuH-Xse1U2JRsALx-bR-40" value="" style="image;aspect=fixed;html=1;points=[];align=center;fontSize=12;image=img/lib/azure2/general/Resource_Groups.svg;" parent="1" vertex="1">
          <mxGeometry x="75" y="558.76" width="43" height="40.47" as="geometry" />
        </mxCell>
        <mxCell id="-IuH-Xse1U2JRsALx-bR-41" value="Azure Container Registry" style="text;strokeColor=none;align=center;fillColor=none;html=1;verticalAlign=middle;whiteSpace=wrap;rounded=0;fontFamily=Verdana;" parent="1" vertex="1">
          <mxGeometry x="118" y="570" width="115" height="30" as="geometry" />
        </mxCell>
        <mxCell id="-IuH-Xse1U2JRsALx-bR-47" value="AzureDevops" style="text;strokeColor=none;align=center;fillColor=none;html=1;verticalAlign=middle;whiteSpace=wrap;rounded=0;fontFamily=Verdana;" parent="1" vertex="1">
          <mxGeometry x="-340" y="528.76" width="95" height="30" as="geometry" />
        </mxCell>
        <mxCell id="-IuH-Xse1U2JRsALx-bR-48" value="" style="image;aspect=fixed;html=1;points=[];align=center;fontSize=12;image=img/lib/azure2/devops/Azure_DevOps.svg;" parent="1" vertex="1">
          <mxGeometry x="-390" y="519.85" width="38.91" height="38.91" as="geometry" />
        </mxCell>
        <mxCell id="-IuH-Xse1U2JRsALx-bR-64" style="edgeStyle=orthogonalEdgeStyle;rounded=0;orthogonalLoop=1;jettySize=auto;html=1;dashed=1;" parent="1" source="-IuH-Xse1U2JRsALx-bR-49" target="-IuH-Xse1U2JRsALx-bR-51" edge="1">
          <mxGeometry relative="1" as="geometry" />
        </mxCell>
        <mxCell id="-IuH-Xse1U2JRsALx-bR-49" value="" style="image;sketch=0;aspect=fixed;html=1;points=[];align=center;fontSize=12;image=img/lib/mscae/Azure_Artifacts.svg;" parent="1" vertex="1">
          <mxGeometry x="-270" y="604" width="50" height="50" as="geometry" />
        </mxCell>
        <mxCell id="-IuH-Xse1U2JRsALx-bR-50" value="Devops_Artifact&lt;div&gt;Repository&lt;/div&gt;" style="text;strokeColor=none;align=center;fillColor=none;html=1;verticalAlign=middle;whiteSpace=wrap;rounded=0;fontFamily=Verdana;" parent="1" vertex="1">
          <mxGeometry x="-292.5" y="660" width="95" height="30" as="geometry" />
        </mxCell>
        <mxCell id="-IuH-Xse1U2JRsALx-bR-65" style="edgeStyle=orthogonalEdgeStyle;rounded=0;orthogonalLoop=1;jettySize=auto;html=1;dashed=1;" parent="1" source="-IuH-Xse1U2JRsALx-bR-51" target="-IuH-Xse1U2JRsALx-bR-34" edge="1">
          <mxGeometry relative="1" as="geometry" />
        </mxCell>
        <mxCell id="-IuH-Xse1U2JRsALx-bR-51" value="" style="image;sketch=0;aspect=fixed;html=1;points=[];align=center;fontSize=12;image=img/lib/mscae/Azure_Pipelines.svg;" parent="1" vertex="1">
          <mxGeometry x="-160" y="697" width="50" height="50" as="geometry" />
        </mxCell>
        <mxCell id="-IuH-Xse1U2JRsALx-bR-63" style="edgeStyle=orthogonalEdgeStyle;rounded=0;orthogonalLoop=1;jettySize=auto;html=1;dashed=1;" parent="1" source="-IuH-Xse1U2JRsALx-bR-52" target="-IuH-Xse1U2JRsALx-bR-49" edge="1">
          <mxGeometry relative="1" as="geometry">
            <Array as="points">
              <mxPoint x="-345" y="640" />
            </Array>
          </mxGeometry>
        </mxCell>
        <mxCell id="-IuH-Xse1U2JRsALx-bR-52" value="" style="image;sketch=0;aspect=fixed;html=1;points=[];align=center;fontSize=12;image=img/lib/mscae/Azure_Pipelines.svg;" parent="1" vertex="1">
          <mxGeometry x="-370" y="693.5" width="50" height="50" as="geometry" />
        </mxCell>
        <mxCell id="-IuH-Xse1U2JRsALx-bR-60" style="edgeStyle=orthogonalEdgeStyle;rounded=0;orthogonalLoop=1;jettySize=auto;html=1;entryX=0;entryY=0.5;entryDx=0;entryDy=0;shape=link;dashed=1;dashPattern=8 8;" parent="1" source="-IuH-Xse1U2JRsALx-bR-53" target="-IuH-Xse1U2JRsALx-bR-54" edge="1">
          <mxGeometry relative="1" as="geometry" />
        </mxCell>
        <mxCell id="-IuH-Xse1U2JRsALx-bR-53" value="" style="sketch=0;pointerEvents=1;shadow=0;dashed=0;html=1;strokeColor=none;labelPosition=center;verticalLabelPosition=bottom;verticalAlign=top;align=center;fillColor=#505050;shape=mxgraph.mscae.intune.user_group" parent="1" vertex="1">
          <mxGeometry x="-120" y="410" width="50" height="37" as="geometry" />
        </mxCell>
        <mxCell id="-IuH-Xse1U2JRsALx-bR-59" style="edgeStyle=orthogonalEdgeStyle;rounded=0;orthogonalLoop=1;jettySize=auto;html=1;shape=link;dashed=1;dashPattern=8 8;" parent="1" source="-IuH-Xse1U2JRsALx-bR-54" target="-IuH-Xse1U2JRsALx-bR-55" edge="1">
          <mxGeometry relative="1" as="geometry" />
        </mxCell>
        <mxCell id="-IuH-Xse1U2JRsALx-bR-54" value="" style="image;aspect=fixed;perimeter=ellipsePerimeter;html=1;align=center;shadow=0;dashed=0;spacingTop=3;image=img/lib/active_directory/internet_globe.svg;" parent="1" vertex="1">
          <mxGeometry x="135" y="403.5" width="50" height="50" as="geometry" />
        </mxCell>
        <mxCell id="-IuH-Xse1U2JRsALx-bR-57" style="rounded=0;orthogonalLoop=1;jettySize=auto;html=1;edgeStyle=orthogonalEdgeStyle;dashed=1;dashPattern=8 8;flowAnimation=1;" parent="1" source="-IuH-Xse1U2JRsALx-bR-55" target="-IuH-Xse1U2JRsALx-bR-28" edge="1">
          <mxGeometry relative="1" as="geometry" />
        </mxCell>
        <mxCell id="-IuH-Xse1U2JRsALx-bR-55" value="" style="image;sketch=0;aspect=fixed;html=1;points=[];align=center;fontSize=12;image=img/lib/mscae/Support_Requests.svg;dashed=1;dashPattern=12 12;" parent="1" vertex="1">
          <mxGeometry x="360.5" y="405.5" width="50" height="46" as="geometry" />
        </mxCell>
        <mxCell id="-IuH-Xse1U2JRsALx-bR-58" value="Time de&lt;div&gt;Suporte&lt;/div&gt;" style="text;strokeColor=none;align=center;fillColor=none;html=1;verticalAlign=middle;whiteSpace=wrap;rounded=0;fontFamily=Verdana;" parent="1" vertex="1">
          <mxGeometry x="360.5" y="453.5" width="120" height="30" as="geometry" />
        </mxCell>
        <mxCell id="-IuH-Xse1U2JRsALx-bR-61" value="&lt;b&gt;Stage&lt;/b&gt;&lt;div&gt;&lt;b&gt;Continuous Integration&lt;/b&gt;&lt;/div&gt;" style="text;strokeColor=none;align=center;fillColor=none;html=1;verticalAlign=middle;whiteSpace=wrap;rounded=0;fontFamily=Verdana;" parent="1" vertex="1">
          <mxGeometry x="-400" y="770" width="95" height="30" as="geometry" />
        </mxCell>
        <mxCell id="-IuH-Xse1U2JRsALx-bR-62" value="&lt;b&gt;Stage&lt;/b&gt;&lt;div&gt;&lt;b&gt;Continuous Deployment&lt;/b&gt;&lt;/div&gt;" style="text;strokeColor=none;align=center;fillColor=none;html=1;verticalAlign=middle;whiteSpace=wrap;rounded=0;fontFamily=Verdana;" parent="1" vertex="1">
          <mxGeometry x="-190" y="770" width="95" height="30" as="geometry" />
        </mxCell>
        <mxCell id="-IuH-Xse1U2JRsALx-bR-66" value="" style="rounded=0;whiteSpace=wrap;html=1;shadow=1;strokeColor=#B3B3B3;strokeWidth=1;glass=1;" parent="1" vertex="1">
          <mxGeometry x="85.5" y="780" width="344.5" height="180" as="geometry" />
        </mxCell>
        <mxCell id="-IuH-Xse1U2JRsALx-bR-67" value="" style="sketch=0;html=1;aspect=fixed;strokeColor=none;shadow=0;fillColor=#3B8DF1;verticalAlign=top;labelPosition=center;verticalLabelPosition=bottom;shape=mxgraph.gcp2.lock" parent="1" vertex="1">
          <mxGeometry x="96.5" y="762.82" width="29" height="37.18" as="geometry" />
        </mxCell>
        <mxCell id="-IuH-Xse1U2JRsALx-bR-68" value="Monitoring" style="text;strokeColor=none;align=center;fillColor=none;html=1;verticalAlign=middle;whiteSpace=wrap;rounded=0;fontFamily=Verdana;" parent="1" vertex="1">
          <mxGeometry x="128" y="766.41" width="95" height="30" as="geometry" />
        </mxCell>
        <mxCell id="-IuH-Xse1U2JRsALx-bR-69" value="" style="image;aspect=fixed;html=1;points=[];align=center;fontSize=12;image=img/lib/azure2/compute/Container_Instances.svg;" parent="1" vertex="1">
          <mxGeometry x="554.5" y="832" width="64" height="68" as="geometry" />
        </mxCell>
        <mxCell id="-IuH-Xse1U2JRsALx-bR-81" style="edgeStyle=orthogonalEdgeStyle;rounded=0;orthogonalLoop=1;jettySize=auto;html=1;shape=link;dashed=1;dashPattern=8 8;flowAnimation=1;" parent="1" source="-IuH-Xse1U2JRsALx-bR-70" target="-IuH-Xse1U2JRsALx-bR-28" edge="1">
          <mxGeometry relative="1" as="geometry">
            <Array as="points">
              <mxPoint x="460" y="870" />
              <mxPoint x="460" y="668" />
            </Array>
          </mxGeometry>
        </mxCell>
        <mxCell id="-IuH-Xse1U2JRsALx-bR-70" value="" style="image;aspect=fixed;html=1;points=[];align=center;fontSize=12;image=img/lib/azure2/compute/Container_Instances.svg;" parent="1" vertex="1">
          <mxGeometry x="320.5" y="836" width="64" height="68" as="geometry" />
        </mxCell>
        <mxCell id="-IuH-Xse1U2JRsALx-bR-80" style="edgeStyle=orthogonalEdgeStyle;rounded=0;orthogonalLoop=1;jettySize=auto;html=1;shape=link;dashed=1;dashPattern=8 8;flowAnimation=1;" parent="1" source="-IuH-Xse1U2JRsALx-bR-71" target="-IuH-Xse1U2JRsALx-bR-70" edge="1">
          <mxGeometry relative="1" as="geometry" />
        </mxCell>
        <mxCell id="-IuH-Xse1U2JRsALx-bR-71" value="" style="image;aspect=fixed;html=1;points=[];align=center;fontSize=12;image=img/lib/azure2/compute/Container_Instances.svg;" parent="1" vertex="1">
          <mxGeometry x="133.5" y="836" width="64" height="68" as="geometry" />
        </mxCell>
        <mxCell id="-IuH-Xse1U2JRsALx-bR-72" value="Grafana" style="text;strokeColor=none;align=center;fillColor=none;html=1;verticalAlign=middle;whiteSpace=wrap;rounded=0;fontFamily=Verdana;" parent="1" vertex="1">
          <mxGeometry x="108" y="910" width="115" height="30" as="geometry" />
        </mxCell>
        <mxCell id="-IuH-Xse1U2JRsALx-bR-73" value="Prometheus" style="text;strokeColor=none;align=center;fillColor=none;html=1;verticalAlign=middle;whiteSpace=wrap;rounded=0;fontFamily=Verdana;" parent="1" vertex="1">
          <mxGeometry x="290" y="910" width="115" height="30" as="geometry" />
        </mxCell>
        <mxCell id="-IuH-Xse1U2JRsALx-bR-75" value="RabbitMQ" style="text;strokeColor=none;align=center;fillColor=none;html=1;verticalAlign=middle;whiteSpace=wrap;rounded=0;fontFamily=Verdana;" parent="1" vertex="1">
          <mxGeometry x="529" y="910" width="115" height="30" as="geometry" />
        </mxCell>
        <mxCell id="-IuH-Xse1U2JRsALx-bR-76" value="" style="shape=image;verticalLabelPosition=bottom;labelBackgroundColor=default;verticalAlign=top;aspect=fixed;imageAspect=0;image=data:image/png,iVBORw0KGgoAAAANSUhEUgAACgAAAAGSCAYAAAAv/ZhqAAAABGdBTUEAALGPC/xhBQAAACBjSFJNAAB6JgAAgIQAAPoAAACA6AAAdTAAAOpgAAA6mAAAF3CculE8AAAABmJLR0QA/wD/AP+gvaeTAAAAB3RJTUUH6AcNCC4YYPH3QAAAgABJREFUeNrs3XmYXFWZ+PHvudXdWSAbOwiyqQi4oCKLohBI0p2EgAuJziiKkK4EGHQYt3H72Y7LuM24A+kExV07gGBIUh3AdgWEqIggsgiyBWQPYUknXXV+f6RhQFnSSXfVPbe+n+fJI+Ooee/7nnvq3u63zguSJEmSJEmSJEmSJEmSJCk5wRRIkiRJkiRJkiRJkiRJKpoLLrhg0qhRo8ZVq9VxMcbxpVJpXLVanRBCmBBCyABijJOe9F8pAeOBh4Dq4P+/lmXZ6sF/Xj/4/1sdQngghPBQjHF1W1vbQ5MnT15rxtUINgBKkiRJkiRJkiRJkiRJSkZPT8+YCRMm7Blj3DPGuGsIYXtgpxDCdjHGnYDtge3Y0NBXL2uAO0IIf6/VareHEP4eQrg9xnhHrVa7YcyYMTdMnjz5Yaun4WYDoCRJkiRJkiRJkiRJkqTcWbZs2c4hhJdlWfayGONewJ6Df3ZK9JLuDCFcH2O8IcZ4fQjhD+vXr79y1qxZ91ptbSobACVJkiRJkiRJkiRJkiQ1VKVSeUEI4bXAK2OMLwVeDmzVJJd/G/CHGOMfsiz73fr163995JFHPuCq0MbY7AbAOJ/tGGAHSmxBjS1ye6UZD1LlEfq5NXyXRyx9/cQyEwjsNrg+xuZ4jayjyiO0cUc4jbusnCRJkiRJkiRJkiRJ0vBbuXJl6z333LM/cHCWZYfEGF/DhrG92qAG/CmE8ItarfaLGOOvZsyYcY9p0dMZcgNgPIFdKfEWAocTOQCYlNg1R+AW4NdEKqzlPBsChznBZSYQeTMZ7UQOIc1jVx8CLiPwMwb4UTiTW6yslMT+Mxb4kplo2Cfsw8D6J/7vjBqwmhpryXgMWAOsp8aDg//+A4zmAbblgdBFzQRKknL/UTeX7cn4r9wFtgX/Hr7EY1ZIaui7yI5AV+4CW8d7wlmstUJSzvaMTo4ncGDSFxG4LCzgW1ZTkiRJ0lAsXbp01yzLOkIIHcARwDizsvGvk8CVwAXABZdddtnKrq4uf8eqwdf0jV1F8zmMGh8CpgBZgXLwMIEzqfLFsIjbXRKbsdOcyB7U+E8ibwfGFOjSasAKAv8dFvBLKy3leB86jom04THIaVoN3EPk7wTuIrKKwD1E7iBwOyVu4TFu8ZeXkqQGv/PsRZW/5DC0iaGb1VZIauD+MJe9yfhz7gIbYHz4JmuskJSzPaPMd4G3J34Z3w3dvMNqShqKnp6etvHjx/9XM+cghLC4vb39d64GafhVKpWZwOua9fprtdrHZ8yY0e9KUO7ef2IMK1asODjG+GZgOrC3WRk2d4UQlsYYl9RqtYp7QHNrec6bccOJf1+lxlEFzcGWRN5DRjnO4zPcz+fDYta5NIawYZ/KGB7lY1R5L9BWwEvMgA4iHbHMudR4j82ikjTsJgATCLwA+L+vKDz+r9UNnzCxzN+J3ELG36hxPXA9Ja4jcEM43eZPSZIkSZIkKa+23Xbbtv7+/g82cw5ijDuBDdTSCPk08PJmvfj169d/GrD5R7lRqVT2jTHO7u3tfTuwpxkZETvEGE8ATsiy7MFKpbIE+E57e/vFIYRoeprLszYAxnm8iciZwMQmyMUYIp9kEkfFubwlLOJml8dGvKicyF48Qg/wsia55DeRcVjs5F1hIT91BUhS3W1PYHsiBzzRHDh4sHUscw9wNZGrgT8RuIoWrgmn8bBpkyRJkiRJkpQDRy1btmyUJ/RIw2vFihUvrNVqLzcTUmMtXbp011KpdDzwNmDPEIJJqZ+JwLHAsb29vTf39vZ+v1QqfWvKlCk3mZrm8IwNgLGT9xH5PEMYE1wQrybjsjiXGWERHsH9LGInr6HKBcCkJrv0rQj8JHbyH2EhX3ElSFJubAtMJjD5iX9ngBjL3ASsBK4gspIqv3cMmiRJkiRJkqQGmFAqlaYBS0yFNHyq1epbbDSSGqOnp6c0fvz4ySGEcozxjWzEJFKNuN1jjB8dGBj4cKVS+VmMsXv06NE/mTx58oCpKa6nvfFimQ8An2vivGxHxsVxHoeGBfzRZfK0a+RAoBfYsklTkBH4ciwTQjdfdkVIUm4FNhwrvifwFgLQQi2WuQ64FPglNX7pyb+SJEmSJEmS6iHGOBsbAKVhFUI4xixI9bVkyZLntbS0/FsI4V3A9jE6cTaHMmBKCGFKf3//LZVKpbulpWXBlClT7jM1xSz2Ux86O3kr8FlTwwQiy2OZHU3FP6yRE9gVuIDmbf57sv+NnbzRNEhScs8/ewPHA2eRcVMsc1ss8/3YSWc8iV1MkSRJkiRJkqQRcnRfX99o0yANj6VLl74IcPyvVCcrVqzYb/ny5QtaW1tvDCH8J7C9WUnCrsCnBwYGbunt7f1Kb2+vvw8tmKc0AMYTeAGBbppv7O8z2RH4fuz650bJZhW7aKHED4FtzAYAgcA343x2MxWSlLSdgX8l0M0At8Yyf4ydfDZ2cmjs8qhySZIkSZIkScNm/Lp166aaBml4tLS0zDYL0siKMYbe3t4jK5VKX61W+0MIoQzYzJ6mLWKM744x3lipVL7Z29v7YlNSDE9tbCtxOjDOtDzFZFZxvGkYtIqTgINNxFNMpMbXTYMkFcrLCHyQwM9ZxT2xzFlxHjPibNpMjSRJkiRJkqTNMTgGWNLw3E9zzII0ciqVypTe3t7fxhiXAIeZkcJoA94VY7ymt7e3Z9myZXuakrQ90QAY5zELmGJKntZn4rFs0fQPT2UmAJ9wOTytmXEefltLkoppIvBOIkuZxF2xzDdjJ+1xNiVTI0mSJEmSJGkTOAZYGgbLly/fC3iZmZCGX6VSmVKpVC4HLgRebUYKK4sxzs6y7Nrly5cvqFQqO5qSRAv5xD9FPmI6ntG2jGVe02chchIbmiD09Pn5qEmQpMKbBLyLQIVJ/C128sl4InuYFkmSJEmSJElD4BhgaXh4mqY0zCqVyuts/GtKrYOjna/v7e39eE9PzxhTkpYMIHayH3Cg6XgWkXJzXz6B0Nw52Aivj2Wcjy5JzWNnAh+lyo1xHhfHTt4ay7SaFkmSJEmSJEnPxTHA0ubLsszxv9IwufDCC59fqVS+A/wCG/+a2ZYxxq7x48dfX6lU3mE6EvpMBCDwr6biOe0Vy7yyaa++k4OB3VwGz+mtpkCSmk4gcjiBHwI3xzL/GU9gK9MiSZIkSZIk6VkctWzZslGmQdo0y5cv3yvG+FIzIW2evr6+icuXL//farV6A3AsEMyKgJ2Bby9fvrx3cNy6cu7xEcBHmIqNMsVr17OK5kmSmtzzgP+mxG2xk9PjPF5oSiRJkiRJkiQ9jQmlUmmaaZA2TQjB0/+kzVSpVP61v7//2hDCqUCbGdHT7LXTQghXVSqV/7dy5UonoeVYFk9lDLCfqdgoBzfvXc1Bln+j8vTq2EWLiZCkpjeWwHwi18Yy34mdvMiUSJIkSZIkSXoyxwBLm8UGQGkTLVu2bM9KpVIBvg/sYEb0HNqAT9x3332/W758ueOhcypjDS/k/04C1LN7cRNfu0d6buzGdye7mwZJ0qAScCyBP8cy340n+nkqSZIkSZIk6QmOAZY2QW9v74uBl5gJaWj6+vpali9f/tEsy64G2s2IhiLG+NIQwiWVSuXTPr/kT0ZgR9Ow0Xb02mWuJEmboAS8nSrXxHl0x5P8NpUkSZIkSZIkxwBLm+gtpkAamosuumiP/v7+vhDCJ4HRZkSbqAX4cJZlv1u6dOlLTUd+ZMCWpmGjjYsQmu2i42xKwBjLv7EJY5xJkCQ9gxKRTga4IZb5SDzVz1dJkiRJkiSpmTkGWPK+kUb4fgm9vb3lgYGBq4BDzIiGyb4tLS2/rVQq7zEV+ZABraZhCPma3YTjknegxdIPifeUJOm5bAl8ike4LnbyVtMhSZIkSZIkNS3HAEtDcOGFF+4N7GsmpOe2dOnSHXp7e3tjjAuALcyIhlOMcQzw5eXLl//wwgsvnGBGGiszBZIkSQ2zC4Efxk764onsZTokSZIkSZKkpuMYYGkIqtWqp/9JG2H58uWHlUqlPwBTzYZGUgjhrdVq9YpKpWJzdgPZAChJktTwJ2MOo8ofYpmuOJs2EyJJkiRJkiQ1D8eZSkMyxxRIz/qZEiqVyntCCCuAHcyI6uSFwGWVSuXNpqIxbACUJEnKhzHAx5nEb2On4wskSZIkSZKkJuIYYGkjLFu2bB8c/ys9o76+vom9vb0/Bb4MtJoR1dmWwOJKpfKJrq4u+9HqzIRLkiTly34EVsZO3hMhmA5JkiRJkiSp8CaEENpNg/TsSqWSp2VKz+Ciiy7ao7+//xLgSLOhBgrA/zvooIPOWbJkyVjTUT82AEqSJOXPaAJfpkwlltnRdEiSJEmSJEnFlmWZjU3Sc4gxOv5XehrLly8/eGBg4FJgb7OhnHhDa2trX29v73amok7PkqZAkiQpt6YBv4/zea2pkCRJkiRJkoorxnh0X1/faDMhPb1KpbIvsI+ZkP7p3piTZdnFgI1WypsDarXapUuXLn2RqRh5NgBKkiTl2w7U+Hks825TIUmSJEmSJBXWuLVr104zDdLTizF6Sqb0DyqVygeAH8UYx5gN5VEIYY9SqfTLFStW7G82RpYNgJIkSfnXAnwlllkQZ9NmOiRJkiRJkqTicQyw9MxCCN4f0qAYY1i+fHkX8DkgmBHl3Pa1Wu3ny5cvP8xUjOBzpCmQJElKRplJrIjHMdFUSJIkSZIkScXiGGDp6fX29r4Ex/9KAPT09JQqlcoZIYSPmw0lZIsQwgWVSmWyqRgZNgBKkiSl5VDa+HWcy86mQpIkSZIkSSoUxwBLT6NWqx1jFiRYuXJl6/jx438QQiibDSVoC2CJJwGODBsAJUmS0rMvGb+KnbzIVEiSJEmSJEnF4Rhg6Z+FEOaYBTW7vr6+lnvuuecHgPeDUrZFCGGpTYAj8AxpCiRJkpK0G4Ffxfm8wlRIkiRJkiRJxeAYYOmpli5d+lJgbzOhZtbT01Nau3btWSEET8NUEYwNIfx0xYoV+5uK4dNiCiRJkpK1HTV+FsscEbr5vemQJEmSJEmSkvf4GOCfmgoJSqWSDU9qaj09PaVx48Z9O4TwNrOxSWohhDtrtdrfQgi3hhBur9Vq9wD3D/55IMuyNQMDA2tGjRo1ANDf3/9ojLF/9OjRbWwYW8vAwMCYEMJoYKtarbZNCGHrEMLWMcbtgT0G/+wKtJnyjXveqdVqyy+88MLXT5069VrTsflsAJQkSUrbRKASO5kcFnKN6ZAkSZIkSZLSNjgG2AZAaQPHYqtpxRhDb2/vQsDmv41IF/BX4KoY459CCH/KsuyqBx988JY5c+asq0cAXV1d2atf/epdWlpaXhpjfEUI4RUxxlcAu1mep7VNtVpdsXTp0kNmzpx5i+nYPDYASpIkpW9bAhfGeRwaFnCD6ZAkSZIkSXkR57IzgW3CQq40G9JG3jcxHrVs2bJRM2bM6DcbamaO/1Wzq1QqnwkhvMtMPK31wMoY42+AXw0MDFwya9asexsZUFdXVw24ZfDPBU/ay3YolUqHA5MH/+xp+Z6wc6lU6q1UKq/p6Oi433RsOhsAJUmSimFHIhfH+RwczuAO0yFJkiRJkhopdpFxJycT+TSB94ANgNIQjA8htOMpgGpypVLJ0//UtJYvX/7uEMJ/momnuD/GuDyE8NNarVaZMWPGQykEPXPmzLuAHwz+oVKpvAB4c4zxmBDC/paVvYBzenp62ut1WmMR2QAoSZJUHLtQY0k8ideH03jYdEiSJEmSpEaIZV7KnXQTOchsSJvGMcAS4PhfNane3t63xBi/ZCYAeAQ4J8b4ndGjR/9i8uTJA6lfUEdHx43A54DPLV++fDfgX0IIncDuTVznw8aPH38GcLxLftPYAChJUmPcSYl9cxFJpJXAlk/7/6sxmipjBv+vCQQyeNJ/PrAlkTYCE4mMITKawERgNDB28L8zhsgEYOLgn/GWf0S9gio/jLN5Q1hM1XRIkiRJkqR6iacyhkf5GJH3EWk1I9Jm3E+OAVaTGxz/+2IzoWZTqVReF2P8DpA1+efgb0IIZ/b395999NFHrynqdU6fPv1vwH93dXV97uCDD26PMc4HZgKlJiz7u5YvX37D9OnT/9udYOhsAJQkqTFq4XQeyFE8d9ftgR0CJzIRmESVicAEIhMJ7ABsB2wL7AA8nw3fdNnG5TLkJB/JRL4EvNtkSJIkSZKkeojzOIJHOAN4gdmQhoVjgNXUWlpa5sQYTYSaytKlS3cFzgHamjQFNeAntVrtizNmzLismS68q6urBiwHli9fvnyvEMJHgH+hyfq6Qgif6u3tvbq9vX2JO8IQPzdNgSRJquuDG0Q2ND9uVANkPJ5xZOxOxl4EXkJkX+AlbPhhcsmMPmOiT4llrgrdLDIZkiRJkiRppMST2Zr1/A+RdwDBjEjDxzHAaurPlxgd/6um0tfXt2V/f/9P2XBQRrMZCCF8O4TwuWnTpt3Q7Gth+vTp1wHvqFQq/wV8BDiW5vmdaBZj/E6lUnn14KhkbWziTIEkScqz8E3WhEVcFbpZHBbw8dDNMaGbFzPAJOBwIh8mcj5wn9n6J1+LnexnGiRJkiRJ0kiI83g767kWeCc2/0nDf4/FeHRfX99oM6FmU6lUXg7sZSbURPt96O/vPxN4WZNdei2EsLhare7b3t4+1+a/p+ro6Lixo6PjXaVS6aVApYkufWII4dwlS5aMdRVsPE8AlCRJSQrfZA3QN/iH2EXGKvYjcjgZU4gcCjT7D8dGE1gcy+wfulntqpEkSZIkScMhnsge1DiNSLvZkEbUuLVr107DUwDVZEIIxzj+V82kt7f3Y8CcJrvsi0IIp7a3t1/tCnh2U6dOvRaYXqlU3gz8D7Br4d83Ynxpa2vrGcA7XAEbxxMAJUlSMX4g0EUtdPP7sJAvhgV00MK2BGYT+D7wYBOn5gVExwBLkiRJkqTNF7toiWXeT5U/2fwn1cfgGGCpuT5vYpxjFtQsli9ffgTw/5rokm8Bjuno6Jhq89/QdHR0nDNq1KiXhBC+CtSa4JKPrVQqc638Rj4zmgJJklRE4TQeDgs4Oyzg7YxiBwJvBs4D1jVfMjgmzqPsqpAkSZIkSZsqzmN/VnE58HnAcVxSve69GI9yDLCayeD43xeZCTWDFStW7BRC+D5QaoLLHYgxfnb9+vX7dHR0nGP1N83kyZMfbm9vf0+M8RDgz01wyV9eunSpnwkbwQZASZJUeOFr9IcFnBu6eSOt7AT8B3BjUyUh8sV4QvGPBJckSZIkScMrnsSWscz/ErkMeIUZkepu/OAYYKlZePqfmkJPT0+pVqt9B9i+CS73mhjja6ZPn/6hWbNmPWr1N9/06dMvHTVq1KsGTwMs8sz0LUql0g97enrarPqzswFQkiQ1lfAN7gvdfImd2IvIDKDSJJc+jhKLIgRXgSRJkiRJ2hhxHjMY4GrgVJrjZBoplxwDrCZzjClQM5gwYUIXcETBL7MKfOahhx565fTp06+w6sNr8uTJa9vb298DvBG4r8CX+spx48Z9woo/x/OiKZAkSc0odFELC1keuplOYD9gMcX+hgzAFMqOApYkSZIkSc8uzmX7WOY7RJaCEwWkht+TjgFWk1ixYsV+OP5XTWDZsmUHxRg/VPDLvDOEMK2jo+Mjc+bMWWfVR05HR8f5tVptP6CwTZYhhA9UKpXXWe1nZgOgJElqemEBfwzdzKHGq4FfFvxyvxCPZyerLkmSJEmS/lGEEOdxAhnXAseaESk3HAOs5vgcitHxvyq8JUuWjM2y7NsU+3TlPuBV7e3tP7Pi9TFjxozba7Xa64BvFvQSM2BRT0/PGKv9zAmSJEkSEBbxu9DNoQSOAm4t6GWOo4XPWW1JkiRJkvRkscyelFlBZBEwyYyoqdZ/jK8Dpuc5RscAq0nuxWNyHNt7gbdYJW2utra2L1Dsky4/d9lll03p6Oi402rX14wZM/o7OjpOAP6dDeOXi+ZF48eP/7iVfoZnRVMgSZL0VGEBS2hhX+B0ijkW+G1xPq+10pIkSZIkKc6mLZb5GHA1MMWMqFlts802FwP35/ZedQywCm5w/O8L83oLtrS0nG2VNAzrfFqM8cSCXt7aGOOxHR0d/9nV1VWz2o3T0dHxlRDCMSGExwp4ee+tVCqvtMr/rMUUSJIk/bNwGg8DJ8VOlhA4E9ixSJdH5CuxiwNCF76ESZIkSVJ9XQNclPhb5TWWsRhiJ68h0A3sazbU7Pbff//1vb29P4kxnpDTEMf39/e3A+dbLRXyMynH439DCL+dOnXqrZVK5SArpU21ZMmSsbVa7QwgFPDy7g4hHNXR0fFbK50P7e3t5y1fvnxaCOF8YKsCXVoLcGZfX9+rJ0+ePGCln5oYSZIkPdOL/UKWx5N5Kev5HtBRmAuLvIpVHA8sssqSJEmSVMf3zG4+C3zWTKiRYpkJwH8D83BalPSEWq22OIRwQm7v3RhnYwOgivrZtGF951WPFdLmamtr64ox7l7AS/tblmXTpk2bdoNVzpfp06f/ulKpvB64GNi+QJe2X39//8nAV6zy//GlTpIk6TmEb3Af3cwAPkGxRgJ/Ip7KGCssSZIkSVLziPOYBfwJOBF/TyQ9xejRoy8G7slrfCEExwCrkAbHOb4grx+dWZadY5W0OZYuXfrSGOO/F/DSrg0hvN7mv/zq6Oi4JsZ4KLCqYJf2X5VKZUcr/H98sZMkSdoIAWLopgt4O9BfkMvaiUc4wepKkiRJklR8cS47x07OI/JTYBczIv2zyZMnD4QQfprjEMcNjgGWCiWEcEyOw7ts6tSpt1olbaqurq6sVCotBFoLdml/aGlpeV17e/ttVjnfpk+ffl2pVJoC3FWgyxoPfMrq/h8bACVJkoYgdPMDYDqwpiCX9GFPAZQkSZIkqbgihDiPMhnXEDjajEjPrlarLc71PZ3vMalSEde143+1WQ466KATgAOLdE0hhD+tX79+2pQpU+6zwmmYOnXqtSGEqcADBbqs43p7ew+0uhvYAChJkjTUF5tu+ogcARThxWZHHqZsVSVJkiRJKp44n5dQ5jdEFrDhlAxJz2Hbbbf9GTn+uV8IYZZjgFUkeR//W6vVzrZK2lTnn3/+OOCTBbusPwNTZs2ada8VTkt7e/vVMcajQgiPFeSSshjjV2KMweraAChJkrRJwkKuoEY78FD6F8MH42zarKokSZIkScUQj2N0LPMpavweONiMSBtv//33Xw/8JMchjncMsAr1mZXj0/9ijJfMmDHjdqukTdXW1vZhYPsCXdLfgCnt7e13W900TZ8+/dcxxn8BqgW5pAN7e3vfZGVtAJQkSdpkYRG/A94ArE38UnZkEsdYUUmSJEmS0hfLTKaNq4CPAK1mRBq6LMscAyzVSQghzz+bdvyvNllvb+/uIYR/L9AlPVStVo/q6Oi40+qmraOj43zgvQW6pM/09fW1NP3zq0tbkiRp04Vu+oD0vykTOclqSpIkSZJUCF8DXmgapE3X2trqGGCpDnp7e19Ffsf/1mKM51olbaoY438DRdmr+2OMR8+cOfNPVrYYOjo6vgKcVZDLeVF/f/+7mr2mNgBKkiRtptDNecCH0r4IXhvLvNJqSpIkSZIkqdlNnjx5AMcASyMu5+N/L3X8rzbV0qVLXwoU5rTWEMK86dOn/9zKFkutVpsfQrisIGv040uWLBnbzPW0AVCSJGk4dPNF4MeJX8U8CylJkiRJkiQ5BlhyHTv+V5uuVCp9nOL043y9vb3921a1eGbMmNG/bt26Y8jxqcdD+Dx5Xmtra7mpn11d0pIkSZsvQKSFucA1CV/G2+JJbGk1JUmSJEmS1OwGxwDfk9f4QghH9fT0jLFSStWKFSv2DyHskdPwagMDA+dYJW2K3t7elwBvLMjlXPrQQw+916oW16xZs+6IMb4DiKlfSwjhfcuWLRvVrLW0AVCSJGm4HixP42EibwHWJnoJW1BlppWUJEmSJElSsxscA3xejkMcN378+GlWSqmq1Wp5Pv3vN7NmzbrDKmlTxBg/QTF6ce4C3jxnzpx1VrXYpk+fvgz4RgHuvedlWfaOZq2jDYCSJEnDKCzkGuBT6T4d4+gQSZIkSZIkCQghOAZYGpm1G2KMx3jvq2gqlcrLKcbpf7Usy97Z0dFxp1VtDqNGjXo/cHUBLuWDPT09pWasoQ2AkiRJw20nPgf8NtHoZzgGWJIkSZIkSYK2trY+4O68xucYYKWqUqnkevxvCMHxv9rUffnjQCjAdfzPtGnTVljR5jF58uS1WZYdC6xP/FL2HD9+/FuasYY2AEqSJA33i1EXA2ScCNQSDH+MY4AlSZIkSZKkJ8YAn5/jEB0DrCSFEI7JcXi/njZt2iqrpKFasWLFfjHGN6R+HTHGlatXr/6oFW0+06ZNuzKE8LkCXMqHYoyh2epnA6AkSdIICGfwBwLfSTL4GsdYQUmSJEmSJMkxwNIIrNkA5HndOv5Xm6RWqxXh9L+1LS0t75gzZ846K9qcVq9e/UngqsQv4yW9vb1HNVvtbACUJEkaKVX+E3goubgDU+JsShZQkiRJkiRJzW716tU/wzHA0rDp7e19NbB7TsOrZVl2rlXSUK1YsWI/4OjUryPG+P+mTp16rRVtXnPmzFkXY5xLmlPOnuzDzVY7GwAlSZJGSFjE34GvJxj6RCbySisoSZIkSZKkZjdnzpxqjPG8HIfoGGAlJc/jf0MIv3L8rzZFtVr9CImf/hdCuGzNmjX/azU1ffr0K4DuxC/jgEqlMqWZ6mYDoCRJ0sg+bX0FWJtg3IdbPEmSJEmSJMkxwNIwrtWQ5/UaY3T8r4Zs2bJle4YQ3pj4ZazLsuz4OXPmVK2oAAYGBj4M/D3xz5wPNVPNbACUJEkaQeEM7gZ+mN5TsQ2AkiRJkiRJEsCoUaN+DtyT1/hCCLP6+vpGWynl3eD4391yGl61Wq2eY5U0VFmW/TtQSvkaYoz/6+hfPdmRRx75APCBlK8hhHB4pVJ5edPsRS5bSZKkEX/i+l8gJhb1IfEURlk8SZIkSZIkNbvJkycPxBh/kuMQx/f397dbKSVgTo5j++XMmTPvskQaikqlshVwXOKXcVuWZZ+ymvpH7e3t3wWuSPkaQginNEu9bACUJEka6YfLM7gauDSxsMeyjldaPUmSJEmSJMkxwNIwrNEAvDnH8Z1tlbQJ5gNbJv759u729vZHLKWeZm1E4L2JX8a/LlmyZJtmqJcNgJIkSfWR3hjgGq+wbJIkSZIkSZJjgKXNlffxv7Va7VyrpKFYuXJlK3By4pdxcXt7+3lWU8+ko6PjV0Cy+2OMcUxbW9vcZqiVDYCSJEn1sJ4fAwNJxRxsAJQkSZIkSZIgjTHA69at67BSyjHH/6pQ7rnnnjcAOyV8CbUsy95nJfVcqtXqh4BqqvHHGE/q6ekpFb1ONgBKkiTVQfgW9xC4OLGwHQEsSZIkSZIk/Z+ePAfnGGDleG0G4BjvbRVJlmWpn/737WnTpl1pJfVcZs6ceX2M8XsJX8IuEyZMmF74PcmlKkmSVDfnJRbvvrFMq2WTJEmSJEmSYPTo0b8gx2OAAccAK5dWrFhxALBrTsOrtrS0/MQqaSgqlcq+McZDU40/hPDY+vXrP2YltbFaW1v/C1ifavy1Wq1c9BrZAChJklQ/qZ0AOIrAPpZNkiRJkiRJ2jAGOIRwbo5DHOcYYOVRnk+njDH+YsqUKX+3ShqKEMJJid+TC2bNmnWHldTGmjJlyk3AtxO+Z6cvWbLkeUWukQ2AkiRJ9Xq4XMANwN+SCrrG3lZOkiRJkiRJ2qBWqy3Oc3yOAVYO12QAcrsuQwiLrZKGore3d4sY49sTvoRHq9Xq56ykNuEZ6LNANdHwW1pbW48vcn1sAJQkSaqnmNwpgLtbNEmSJEmSJGmDNWvW/By4O8chOgZYubJ8+fIDgefnNLxqzk/1VD4dA4xPOP4zZs6ceZdl1FDNmDHjr8DZCV/CCV1dXYXtk7MBUJIkqb76koo2sIclkyRJkiRJkjaYM2dONYTwkxyH6Bhg5UqWZXk+lfLn7e3td1slDUWM8YSEw19brVa/YBW1GT6fcOy7HnzwwYcU9vPWtSlJklRHgd8lFrEnAEqSJEmSJElP1ZPn4BwDrBytxcCG09LyGp/jfzUkS5cufRGQcgPRdz39T5ujo6Pj98BFCX8u/UtRa2MDoCRJUj3txPXAwwlF7AmAkiRJkiRJ0pOsXr36F8DfcxzirJ6enjFWSo22YsWKg8nx+N8sy35ilTQUpVLpeCAkGn4slUpfsora7IUU49cSDn9OT09PWxHrYgOgJElSHYUuasBVCYW8SyzTauUkSZIkSZKkDebMmVMFcj0GeMKECe1WSo1Wq9WOyXF4fY7/1VB0dXVlwLEJX8KSqVOnXmsltbnWrFmzFLgl0fC3Gj9+/NQi1sUGQEmSpPr7Q0KxtpCxnSWTJEmSJEmS/k8IIdejQx0DrByswRBCOMZ7WEVx4IEHTgZ2Svhz6ytWUcNhzpw51RDCGQl/PhVyDLANgJIkSXV/y+LqtJ6E2caiSZIkSZIkSf9ncAxwnk8Pm9XX1zfaSqlRBsf/7pLT8AbWrVt3rlXSUGRZlnLT0PXTpk3rs4oaLtVq9UxgXYqxhxCOXrJkydjC7VEuS0mSpDqrcXNaT/FsbdEkSZIkSZKk/zM4BvicHIc4bt26dR1WSo0SY5yT49h+NmvWrHutkjbWsmXLRsUY35zwJXSHEKKV1HCZMWPGPcCyRMPfsqWl5aii1cQGQEmSpPpLqwEwswFQkiRJkiRJ+kchhLPzHJ9jgNXAtReAN3vvqkD7/QxgYqLhr21paTnLKmoEnJXwPV24McA2AEqSJNXbaG4Bauk8BdsAKEmSJEmSJP2jwTHAf89xiI4BVkMMjv/dOafhDaxfv/4nVklDkfL43xDCkilTptxnFTXcttlmm2XAPYmG33HBBRdMKtQ+5ZKUJEmq88vW1+gHVqX0DG/VJEmSJEmSpKcaHAN8bo5DdAywGsLxvyqSnp6eMTHGGanGX6vVvmcVNRL233//9THGHyUafltLS8ubi1QPGwAlSZIa49ZkIo3JHmsvSZIkSZIkjbTFeQ7OMcBqwJoLwJtyHGKPVdJQjBs3rgPYItHw71+zZk3FKmqkhBAWJxz7G4tUCxsAJUmSGiOd49YjbZZLkiRJkiRJ+meXXXbZL4A7cxzirJ6enjFWSvVSqVReC+yS0/DWt7a2nmeVNBRZlr0p1dhDCD+aM2fOOquoEXwO+g1pTT17sslLliwZW5i9yuUoSZLUiLeuhBoAA6MsmCRJkiRJkvTPurq6asB5OQ5x3IQJE9qtlOoly7I8nzp58ZQpU+6zStpYK1eubI0xzkz4Er5vFVWH56CfpBh7jHFMa2vr5MJ8/rocJUmSGqDG/cnEGjwBUJIkSZIkSXoWjgGWgK6urgx4c17jS3lUpRrjnnvuORyYlGj4f502bdqlVlEjrVarpTwGeEZR6mADoCRJUkOeKBNqAHQEsCRJkiRJkvSMEhgDfJRjgFUPBx100GtjjM/LaXjrY4znWSUNRQjhyITD/34IIVpFjbTLL7/8Vzl/DnpGMcYji1IHGwAlSZIa4/6EYnUEsCRJkiRJkvQMurq6aiGEPI+/29IxwKqHnJ82eVFHR8f9VklDND3h+/EHlk/1eg4Czks0/OcvW7ZsnyLUwQZASZKkhrx58VgysQYbACVJkiRJkqRnk/fxd44B1kjr6urKsix7U45DdPyvhqS3t/fFwJ6Jhv/76dOnX2cVVS8hhLMTjn1mEWpgA6AkSVJDniZZl0ysEY+IlyRJkiRJkp7FmjVrfgXcleMQZ/X19Y22UhopeR//C5xvlTQUtVptRsLhu95VV6tXr/4FcHeKsYcQZhShBjYASpIkNeRpMqEGwMCABZMkSZIkSZKe2Zw5c6ohhHNzHOK4devWdVgpjeRtkNfAQggXOv5Xm7Bukm0KqlarP7GCqvdzENCbaPiH9PX1TUy9BjYASpIkNUItqRMAbQCUJEmSJEmSnoNjgNWsurq6MuBN3psqiiVLlowFDkk0/Jtnzpz5J6uoBjxnLEs09Ja1a9dOTT3/NgBKkiQ15inMBkBJkiRJkiSpQFIYA9zT0zPGSmm4HXTQQa8FdsppeOuq1arjUDUkra2trwFGJRr+T62gGnTfXAhUU4w9hDA99fzbAChJktQIkVo6T702AEqSJEmSJEnPZXD83Tk5DnHcuHHjHAOsEVn+OY7twiOPPPIBS6QhOizVwGOM51k+NcKUKVPuAy5P9L45NPX82wAoSZLUCCGpb449ZsEkSZIkSZKk55b3UaMhBMcAa1jlffxvCMHxv9oUkxON+/7Ro0f/2vKpgZanGHQIYY/e3t5dUk68DYCSJEmNkVID4COWS5IkSZIkSXpul19++a+AVTkO0THAGlYHHHDA68jx+N/169c7DlVDsmTJkrHA/omGf8HkyZOd6qSGybJseaqx12q1Q5LOvctPkiSpEU+RSTUAPmzBJEmSJEmSpOfW1dVVA36S4xC3dAywhlOWZcfkODzH/2rIRo0adQjQlmLsIYQlVlCNdMkll/weuDvR++d1SX8eu/wkSZIa8hSWzstj8ARASZIkSZIkaWM5BljNYnD875tzHGKPVdJQVavVVMf/VtevX3+xFVSDPxdqQG+i4dsAKEmSpCGKCTUARk8AlCRJkiRJkjbW4BjgO3Mc4pGOAdZwGBz/u2NOw+sfNWqU4381ZCGEQxMN/feeeKmcuDDRuPe96KKLtk416TYASpIkNcaWCcXqC6MkSZIkSZK0kQZPvzknxyGOcwywhkOpVJqT4/B6J0+e/KBV0lD09fVtCeyfYuwxRk//Uy5Uq9VfJhp6WL9+/WtTzbsNgJIkSY2xTTqPu9xjuSRJkiRJkqSNF0JwDLAKraurK4sxvjGv8cUYF1slDdW6deteB7Qm+rljA6ByYebMmbcAtyYafrJjgG0AlCRJaoTItsnEWrMBUJIkSZIkSRqKSy+99NfAqhyHOMsxwNocBx100KHkePxvS0vLEqukoYoxHpZo6P0PPfTQb6yg8iKE8MtE4359qjm3AVCSJKkx0jkBMHKv5ZIkSZIkSZI23uAY4HNzHOKWjgHW5gghHJPX2GKMK6ZOnbraKmkTpHr61yVz5sx5zPIpR/twqmOAXzk4Cjw5NgBKkiQ1QmDrZGIdsAFQkiRJkiRJGirHAKuoenp6SjHGN+U5RKukoVq5cmUr8IpEP28c/6u8rclfJRp6y9q1aw9MMnCXnSRJUkOkMgL4vnAWay2X6iWexJZEWgEYzdrwJfzWoqRN209mU2Ibxj/xb7inSHJ/kCRJdXbppZf++qCDDloF7JTTEGf19PSM8dQoDdX48eNfD+yQ0/Ac/6tNcv/9978cGJ1i7NVq1QZA5cq0adOu6+3tvRvYLrXYQwj7A8ndUzYASpIk1VnsImMVuyYS7q1WTENa23exI1W2BXYkY1vi4D9HtiWwLYHtiEwa/K+MBUax4WTyCQAMPOl/8BGI5af8FY8AjwEPDf7zWuAB4F4i9xG4D7iPyN3A7ZS4hfu4KyymanWkguwz89kO2IcquwA7E9gJeD4bfpm2FTBxcE+ZCPCUu/+pe8pq4MEn/gTuJ3IbcAeBVcCtlLg+nMZdZl1KaH+osS+RnZ9hf5gEBPcHSZJUT11dXbXly5efE0I4JachPj4G+CdWS0OU59MjK47/1aao1Wr7Jxr6I2PGjFlpBZUnIYRYqVR+Bbw5wfBfmWLObQCUJEmqt1XsTDrfIrvNgukfxblsT4m9gBdS44VkvIjIC1nFC4FRhMf/g09+23uaf2/othj8s80/v00+zT/XgEkMxDJ3AjcTuYHA9URuAK4ncH3oZr0VlXK4z0BgPvsS2Y/Iy4CXAy+jNni6QNjsv2LC4J9d/2lvevyfByCWeRC4jsC1RP5A4Ar6+YOn40o52B+qvILAS4nsR+Bl1Ni+IfsD/JnAH6hyBQNc6f4gSZL+6UcWG8YAn5Lj+GZjA6CGoKenpwS8Kef3nLQpDkg07t9Nnjx5wPIph2wArCMbACVJkupvz4RitQGwiUUIlNmLyKsJHAC8GtgbGP/EL8ADm9vUV493nl2AXQi8/omYN1gXy1wDXDn45/dswe8cASg1aM+ZxwuJHE7gcCKHUcvFeIiJwIFEDgSOIwJtrI9l/gT8gsBFlPhlOI2HraBUt/1hMjW2feLzPDR4f9iwR7yLbHB/mMdV1PgFGRe7P0iSJIDLLrvsNwcffPAdMcbn5TRExwBrSCZMmHBojHH7nIa3tlqtOv5XmyrVBsDLLJ3yKMZ4eQghxdD3vOCCCyYdeeSRD6QUtA2AkiRJdX/i5QWEZGL9mwVroqV5PDvR8kSj3+P/OoFQ2EtuA14x+GeDR1gXy6wkcAnwa/r5RTiLB10d0gjsOV20cCeTgdlEOojsMvjZk3etbPgW6CuJnMoA6+M8LiNyPjXODYu42epKw7A/rOJwAscktz9EXkXgVUT+gwHWxzKXEjifwLnhDJ+tJUlqRoNjgM91DLAK87weY27H/4YQls+YMeMhq6Sh6uvr27K/v//FiYZ/uRVUHg0MDPyxtbV1gPR600JLS8t+QF9KQdsAKEmSVPfHRl6QTKwZ11mw4orHsxMlJhM4DJhMWqdTjpQ24DVEXgO8jzaqsZPLyKhQo5fn8bvQRc00SZu47zze1AOzWcUbga0LcFmtRF4HvI6ML8YyvyfQQ+Q7oZs7rbq0kftDmdbBU/6OeWJ/iAXYH+D1RF5P5H/iPH5HpAf4rvuDJEnNxTHAKoq8j/+t1WqO/9UmWbt27f4hhFKKsddqtd9aQeXRrFmzHq1UKn8BXpJg+K/EBkBJkiQ9h5el8+ZoA2CRRAjM41VEjgJmAfuZledUIvBaIq8l8ElWcWcscy4ZZ3MfvwqLqZoiaSP2n/nsRpX5rOIEYJuCX+4ribwS+FTsZCmwiAdZ7n4hPcv+UONE4HhCwfeHyKuAVwGfjmUuIHKm+4OeskTK7EiJMbkK6jHu90TspzzPpPKFvi1zuAfuGufyKlfSP8hYF7r5k4koPscAqyjGjRt3GLBdTsNbG2NcapW0KUIIqY7/vXPGjBm3W0Hl9j0qxt+FEFJtAEyKDYCSJEn1t38ica7jedxkuQrwglXmQOCtwBwiO5mRzbIjcDI1TmYSf4+d9JBxZljAH02N9A97z4am4ynUOJkaRxIoNVkKWggcDRzNJG6K8/gyj/LN8F0ecXXI/WFwf4j8GzVmQhPuD/AGAm9gEjfFMl/iMb7l/iDgO1SZkquI2vgI8BlLA1T5F4K52AwfJ+PjpuGf3ArsahqKr6urq9bb23sO8O6chugYYG2ULMtmx5jbo7qXOf5Xm/yeGuOrQwjJxR1CuMzqKed+D7wzwbiT+/JS5lqTJEmq40vkfHYjnZOP/hq6GLBqia61E9g1lvmvWOZG4DLg38Hmv2G2PYFTiFwZy1wR5zE/nsJ406Km339mU4rzeAdl/kxkxWATXKnJ07IHka8yhltjmU/FE9jKlaKm3R/KvJMy1xJZARzl/sAewNcYw62xk0+6P0iSVFx5H006OAZYekY9PT2lGOMbc/u+EaPjf7U5e2CSJwDGGB3/q1wrlUq/SzT0F55//vnjUgrYBkBJkqR6qpLSS6QnmqX2st9FFjuZEsv0UOJG4GPAnmamLvYncjr93B7LfCWWeb4pUdPtQRBimdlM4hoi3wZebFb+yVbARyhxS+zks/E4JpoSNc0zyuP7A5wF7GVWnmZ/CHzU/UGSpOL67W9/e0kI4Y4chzirp6dnjJXSM8nz+N8QwmPr1q1z/K82ybJly7aFNH+eG0K4wgoqz2KMVwLVBEPPRo0atV9SAbvcJEmS6vk2ltCR0YErLVgiL1CnMD6WeS+ruJnAhcBsNoyWU/2NY8M4nxtjme/Hsg1QaoI9CELs5I2U+SPQg409G2NLAh+kjZtimVPjbNpMiQq7P8zjTaxyf9iE/eGvscypsUyrKZEkqRi6urpqwDl5fg4ZHAMsPa0sy3J7SmSMcfnRRx+9xippU5RKpZcm+969oblKyq329vZHgOsSvb9ekdTntMtNkiSprg5P58mWP1iunJdoPs+LZb5IP7cBXwRPncuRVuBfgatjJ9+OJ7KHKVEh96EyL6bMxQTOBV5qRoZsEvC/TOJPsZOjTIcKtT/MZW/K9BE5B3iJGRmyrYD/Ba6O85hlOiRJKgbHACtVfX19LY7/VYHtm2LQIYQ7Ojo67rd8yrsYY5K/b8yybJ+k4nWpSZIk1ekB911sC7wyoZB/b9VyupZOYoc4jy9T40bgvcB4s5JbJQLvoMpfYidfjScyyZSoEPvQqYyJZT7FhnHxk83IZnsRgfNjJ0vjCexqOlSA/eHTZFwJHGpGhmF/iPw0lrkglv2yhyRJqevo6PgNcFuOQ3QMsJ5Wf3//YeR0/C/w6OjRoy+wStoMSTYAxhivtnRKQZZl1yZ6jyU1ycIGQEmSpHppY0pCz183hW7utWg5e9k4ga1imS8ywF+JvAcYbVaS0UrgFKpcF8vMjV2+iynhvWgeHTzC1cBHwNG1wyowgxJXx07eE2dTMiFKcH+YMbg/fNj9YdjNZMNpgKf4HCFJUsKP/CFE4Nwch7jluHHjplsp/dOzfox5Hv+7bPLkyQ9bJW3GGkq1AfBPVk+JrNW/JBq6DYCSJEl6uidc2hOK9dcWLEflKNMaO3kPJW5gw4l/Y81KsrYFFrKKS+I89jEdSmovOo7RcR7fILIcHGs9grYk8GUm8os4n91Mh5LYH05lTOzkdCJL3R9G1DgiX2UVv/C0UEmS0pVlWd5HlToGWE/R19fXEkJ4Q17jCyE4/lebK9Wf015j6ZSCWq12baKh79jX1zcxmWdMl5okSdLIGzzFpyOhkG0AzMvaKTMTuIbAl4GtzEhhHEjkd7HM+z3lS4nsRS+mjcuInGQ26iTwWmr8Mc7j7SZDud4f5rI3j3AZgflmo24OocQfYydvMxWSJKVn6tSplwC35vZVJIQjHQOsJ1u3bt1kcjz+N4Sw1CppU61YsWInEv25e6lUcgSwkrDddtvdAKxPMfb+/v4XpRKrDYCSJEn1MIkjgO2TiTfwK4vWWPF4doplzgYuAF5oRgppNPB5JvKLeBK7mA7ldj8q807gCuDlZqPuxhP5buzk2/FU/AWc8rc/dHIcGVcALzMbdTeBwPdimbPcHyRJSsvgGOCf5DhExwDrqc/9OR7/G0JY2t7e/ohV0mas730TDb0WY7zWCioF+++//3rgpkTDf3EqgdoAKEmSVB8pnd5zF91cZ8kaI0KIZf6NFq4F3mxGmkDgtQzwu1hmmslQrvajMq2xzELgLGBLM9LQfeIdPMJv4lx2NxnK0f5wJoFvAVuYkYZ6J4/wa0eGS5KUFscAKxV9fX0twBvyGl+tVnP8rzbv/TbdBsC/2vyqxKTasLpXMs+XrjFJkqQRfoE8li2ANyYUcm+AaOUasFbm8zzKrAC+Bow3I01lW2B5LPOxCMF0qOH70SmMZ8MJpHPNRm68gowr4lwONxVq6P5QZgKwDDjebOTGK6mxMs7nMFMhSVIaLrnkkkuB2/Man2OA9bjB8b/b5jS8R7MsW2aVtJlSbQC8xtIpJSGEVBsAPQFQkiRJg0bzBlI6OSlSsWgNSPs8jqHGVcAUs9G0MuC/KPPtOJs206GG7Udz2Zl+fgWeSplDW5OxPM5L6mRhFWl/2DCy/lc+r+R0f6jRGzt5m6mQJCn/urq6asDZOQ7RMcDa8A4Q45wch3eBJ6BpGKTaAOgUJ6X2efKXREP3BEBJkiQ98cT1bwlFW6WNCy1aHV96yrTGTr5KZDGwlRkRcCxbsTwex0RTobrvSfN4ORmXAS8zG7nVRuQ7scyHTYXquj90sh8DXAa81GzkeH8IfDd28iFTIUlS/oUQHAOsXMv7+N8Y49lWSZu5hgKwT6Lh/9UKKiW1Wu36REN/4eDnYe7ZAChJkjSSL5DzeS2Rg9IJmMvCN7jPytUp3XPZHriIwClmQ/9wLx5OG33xZLY2GarjnvQqIj8Hnmc2ci8An45lvmgqVJf9YR77E/g5sJPZSGB/CHwmlvm8qZAkKd+mTZvmGGDl2vr16w8HtslpeI8MDAwstUraHCtWrNgWmJBo+DdaQaWkra3t5lRDX79+/e4pBGoDoCRJ0kiKvDepeDPOtWh1Whqd7EfGSuD1ZkPPYD/Wc5FNgKrjnrQCPHkyMe+NnXw1bmgIlEZmf5jPK4isIN1fijSr98cyX3F/kCQpv0IIEccAK8/vAjkf/ztr1qxHrZI20+6pBl6r1W6wfErJEUcccTeQ5L5drVb3SCFOGwAlSZJGSJzHC4kcnVLIDHCOlatDojuZQuAXwM5mQ89hP9ZzcTzB8dAawT1pPi8hcCGOIU9T4BQ6Oc0mH43I/jCXl1FjBTDJbCTp3czj6+4PkiTl+HHeMcDKqb6+vpYY41E5DnGxVdLmqtVqSTYAhhAeu/zyy1dZQSW2biPwt0Rj3yWFOG0AlIb97ve+kiQNivxXYs9bvwtncouFG+Fl0cnbCCwFxpsNbaSX08J58ThGmwoN+540l72pcTH5HemjjXsPnU+n44A1zPvDPPYh40L3h+TfSU5inuOAJUnKq8ExwLfm9lUjhFm9vb1bWKnms3bt2iOAbXMa3qMhhIpV0ubKsmy3JF/zYvxrV1dXzQoqQamOAbYBsKBKTXfFLa6TIanhi5AkiVjmQOAtaQXN96zcCKe4k04C3wXazIaGeH++jja+E7t8NtcwLquT2IGMXmA7s1EAgf+IZbpMhIbpWXZHovtDgZ4j3hc7+X8mQpKkHD7GhxBjjHmeyLFFrVZrt1LNJ8uy3J7+GGP8aXt7+yNWScNgt0TjvtHSKUUxxpsSDf35SXx2u8SGaGKyHwKb7jG2t/BDuqu2NQmSJOCLpDVqax2B71u2EXyxKTOXwBk4gk2bbjar+LRp0LDsSccxmio/IZFvL2qjfTyWOdk0aLP2h1MZQ+Q8YGezUSCBT8QyJ5oISZJyyTHAypWVK1e2xhjf4D2jwr//xrhbonHbAKgkZVl2c6L3nA2AxVyR7NV01zzAHhZ+CGq80CRIUpO/NM7jGOCQxMJeErq51+qN2Jo4AVjg87eGwQfjPI42DdqsPQkCo1hE5CCzUUhfiZ0cZRq0yfvDw5xJ4ACzUUhfi50caRokScqXjo6Oy4Db8hpfCOHInp6eMVaqedxzzz2HA1vnNLyH16xZs9wqaZjslmLQIYS/Wjol6uZE7zlHABdSrQkbADP2t/BDufvNlyQ1s3gCWxH5anqBc6bVG6HUlnkD0eY/DePTZuSsWGZPU6FNVuZDRN5mIgqrROCHsZNXmwoN2Tw+QuBfTESh94cfxXn+7EqSpFy96G8YA3x2jkPccty4cdOtVPPI+fjfC+bMmfOYVdLm6urqyoBdEw3/NiuoFMUYb0409F1ijLmf7uUvIYf8FE5H892FTLHwQ7JfPI6JpkGSmlQLXwV2TCzq61hIxeKNwGNUmUOAHwAls6FhNBHoiWVaTYWGvC91Mh34pJkovLEEfhLns52p0BCeW2YS+S8zUXhbEN0fJEnKIccAKxcGx/++Mcch9lglDYfXvOY1OwCjk3x/j9EGQKUq1bU7esWKFdvmPUgbAIfusGb6AVk8ma0JHGrZh6SFUY5bkqRmFOdxdKInKn0lQLSCw7we5rI3cD7giBSNhFcCHzEN2oT3uzP9WUDTeB6RH8bZNqFrI/aHMtsAi4BgNprCztT4gfuDJEn5MTgG+Ja8xhdCmNXb27uFlSq+++67bwqwVU7DW7NmzRq/yK7hsnuqgYcQbrd8SlF7e/sDwNpE77vn5z1Gf+g/dCWqHNM0VzvAO4E2yz5kJ5oCSWou8Xh2ItKdYOj3A9+2gsO8HspMIOMn5PeHZSqGD8dO9jMN2mjrOZ30TqnVZn0gcTiT+JSJ0EasldOBHUxEUzmCSZ74KElSXoQQInBOjkPcolartVupJng1iDHPpz0ucfyvhnGt75Zo6I92dHTcbwWV8PPOXSnGXq1Wd8l7jC0usU1Zlbw/nsKZ4Wv0F/pD73jGEXmfBd+U5HFQnMvhYRE/MxmS1ATbfhctrOLHkOQpwV8N3TxqFYd1PWSs4jvAXmbjKf4O/I3APUTuI3IfcC8Z9xF5YPA5u0qNh57mvzuBQAaMZUNT5dZEtiZjeyK7AHsCk5owp60EvhW7eHXoYsAlpmfdm8r8K+mObIrArcB1BFYRuQv4O4FHgbVEHhv8T21BRhs1xgM7EtiWyB4E9gK2aeLyfzDO47KwgPO9E/S0N1gnbyMk+2XXyIaTcq7fqP0hMoHIDu4PT/jQ4P6wxDtBkqQcPNjEeHYI4T9yHOJs4FwrVVwrV65svffee4/O8z1ilTRcarXa80NI8hD8O6yeErcK2C21oFM4AdAGwE2zG/2cCHy50FfZwofxdIhNV+IjYAOgJDWFO/lv4JAEI3+QdXzFAg77q8tHgKOa9OqrwF+A3wN/JHAjkZt4jJvCd3lkJP/ieCKTWM8eBF5OxquIvAp4OTC64Dnfj1XMB77uzadnvD/m8zxqSa2RO4n8nIxLgUsZyzXhS2zWN/zjyWzNOg4g4yBqvJ7Aa4HWJlkCgchZ8QReHc7kRu8IPeXemMvOBPcHBjiQyEFEXkfgEJrnZ6aByHdimf1DN3/1jpAkqbE6Ojou6+3tvRXI5S+YQwhH9vT0jPEEtuLK+/jf0aNHL7dKGkap9kE4/lepuzPFoGOMO+c9RhsAN91H4lx+GBbx9yJeXOzkRcCplnlzksjhsZNjw0K+azIkqcDb/TyOIfLeRMP/cjiLB63iMK6H+byWGh9vokt+kMgvCPyMGpeTcVWjTpQMp/MA8LvBP98EiLNpYwKHkNEOtAMvA0IB6/CJeDI/DN/gPu9CPa0NzX95PyXzaqAHWEo3fwgbTvUavj1iw/2xfPDPhlHtkXYy3kpkJtBW8FUwkRJnx1M5eHObpVQwG5r/JuZ+fwj8mMiyEdwflg3+IR7HRFqZRuBfgBlNsT/A2fE4Dg5nsdabQpKkBj6ahRArlcrZQF5PAdxy3Lhx0/EUwMKKMc7JcWw/nTx5ss+rGs49d6dEQ7/N6inxz5pVKZ6+GULI/RQ4GwA33TZk/Dh2MaVo47ZimQnAT4BRlnlzdwG+EU/gUk9ZkKSCPqR28hoi3yHNhqL7KPppxvVeD6cwnn6+C5QKfqnXAt8n40Lu43dhMdXcPootZh0bTmT+GfDBOJfdyXgn8A5g9wLVZCvW8wng37wT9TSfVYcCb8hpeI8Q+DbwrbCAlXXdH7pZzYaGw574LrallXcA7wF2KfByeDmP8Gny+8tE1Xt/mM9h1MjreK+HCXynIfvDhi/I/N/+0MI7Cby74PvDfrTxKeB93hmSJDVWrVZbnGWZY4BVd4Pjf3M71SSEsNgqaZilegKgDYBK3Z2Jxp37BsDMtbVZDmUVny/SBcXZlIAfAftY3mExjhI/jCexpamQpGKJnbyIwPnAmCQvIPCJweYHDZd+vk6xmsqe7EEiZ1Dj4NDNPqGbT4czuDzPzX9Pu+wXcXPopotu9iQyFegrUI3K8UT28EbUUz6rusgIfDGHod1D4GNUeX5YwMn1bu75p73hW9wTuvkfYE8C7wRuKvCyeM9gU6jcHzJiLveHu4GPUmXX3OwPC/kisCdwHHBzgZfFqXEer/fukCSpsaZPn/5b4Na8xvf4GGArVTw5H//70KhRo3qtkobZ9onGfaelU+JsABwhNgBuvlNjmU/HAowSi6cyhq34AdBhWYfV/gzQO3iyoiSpAOJJ7EBgGbBNopdwLTtyupUcxjUxjxnAsQV9EfsP4HlhISeGRVxWhIsKEMNCLgrdHE7ktcDFBbisVqp81LtR/3AH/yuwf44iegz4DAPsGRbwqXAm9+dqb+hmfVjAdxjFPsAHoJCN8hmBb8XjGecN0uTu4G1EXpWjiB4FPs0ALwjdfDqX+0M332YUewMfBB4q5P4Q+ZZfYpUkqcHPHSFE4Owch/j4GGAVTM7H/y5x/K9GQKonAN5j6ZQ4GwBHiCOAh8eH6WT7+DzmpzoOOJ7EDjzCecCBlnNEvAa4MJaZEbq513RIUrriXLZngJ+x4RSQRC+C96b6zJLLdJYZS+QbBbusO4DPswULw5d4rMj1Cwu5BJgSy/wr8L+k+81PgGPjCXwmnMmN3pmKpzJmcNxrXj57ltHK/HBa/seUhK/RD3whzuWHZCykeF+S250WPsWGkcdyf8iDpdSYHxZxeyL7w+fjSfyQARYB0wq2PPZggE8Cp3qnSE9jPaczhh8nEWuVCvDCnEW1lBofdyH9g4x1JkH/yDHAqre8j/8FeqyShtOFF144oVqtjk0x9hCCvQZKWqlUuq9Wq6UY+rYxxjD4ZY1csgFw2HZaTmAVL4lzKYdFXJVS6HEexzDAl4HnWcgR9Wrg6tjJiWEhPzEdkpSeOJftyfgZsHe6F8HZYSHLreaw+jiwW0GuZYDAl4l8PHTzaFM9znfzg3gcy2jjdOCtiV5GCyU+BJzgbSke5UTg+TmIZDWBU0M330puX1jE7RFmUOYE4H+A8QVaISfHeXy30eNV1SCPcBKwSw4ieZDIqWEhZyW3P5zGbRE66GTu4Kj1Iu0Pp8S5fC8s4nfeLNI/3Ptn8SDwYBKv/uUcNpVF7nNvkTbO9OnTf9vb23sLsGsu98MQjurt7d2ivb39EatVDPfee+80cjz+d/To0SuskoZTrVbbMeHYbQBU0rIsuz/RBsBRF1100XhyPDXGEcDD60AyVsZ5fCaekNuHpCf/EOClscxFRBZj81+9bE/g3Fjm+7Gci1/GSZI29nPzeHYabP7bJ+HLeJDAu63mMK6LE9mLopyQErmcyKvDAt7fbM1/jwtn8WDo5l8InAikOlbkbXF+/o+i1wjfzl20EHNxuluFGi8JC9Jr/ntiX4AYulkEvBS4qEDLpERkQezyi6FNuT/k4/TH5WS8JMXmv6fsDwtZOLg/XFyo/aHEgjibkneMJEkNes7I/xjgsTHGDitVoPeEGGfnOLzzHf+r4Var1XZI9oWtVLIBUEkrlUr3J/x5mevfvdgAOPxaiXyIErfHMt+M8zkgQsjNgjyOibHMvFjmEuAq4AhL1hD/CtwQy3w3zuVwf6gqSTl/oOtkX1q4lLSb/yDwwdDNnVZ0GFX5LNCa+FXUgI/yIK8JC7nSokJYwBlkHArcnWD4o6gxzyo2uTt5M409/W8tgXl0MyOFkZ4btS90cysP0AF8oUAr5ZXcyVxvmCZzB8fQ2NP/1gKdoZsZ4QzuKND+0M6Gk0IL8gLEq9jKE4UlSWroM0YIi3Me4myrVAwrV65sDSEc5b2gJpPsCYADAwP3WT6l7LDDDlsNDKQYe4xx2zzH5ze9R84Y4F3UeBdl7o+RywhcRuDv9V+FTAD2A14O7GXdc6MNeDsZb2cSq2OZXwJ/InCLqUlYjQECa6hxG61cF07nAZMipS2WmQycC0xM/FJWsICFVnRY18YhwBsSv4w1BI4NCzjfij5VOIPLY5nXAMuBFyYW/olxNp8Li3M49kv1egds5Mmkd1LjTWERlxVuX1hMFfhALHMNsAAYVYC18vF4Et8Lp/GwN07TaOz+AG8M3fy2oPvD+2InVxM4oyD7Q1c8iR+4P0iS1BjTpk27vLe392/AbjkNcZZjgIvhvvvuawcm5TS8h9ra2i60ShoBqTYAPjRjxox+y6eUhRBipVJ5ENgmwfBzfQKgjWD1sRWBGcAMosnQ05oAzAJmuUZS/8Qa/NcMqEIs82dgBZEfhIVcYYKktMROOoGvs6FpO2X3AscF/JQZZp9PPP6bgaPDAv5kKZ/hY72bv8b5HEKNnwN7JxT6jkziaMBvSDfnZ9drgAMb9Cz8O6q8oSin/j3L3vDt2MkNBM4Ftk/8cnagyvuBj3v3NMH+sOHLCwc06K+/gow3FuXUv2fcHxZyVpzPDdQ4l5z/UHijnicGeC/wCe8eSZIa8Fyx4Zfj5wDvzWmIj48BPsdqJf6ekO/xv+c5/lcjIcuyHWJM8tclnv6norgfGwCHf29zXUnSiNoH+HcCl8cyV8R5HG1KpPyLpzImzuNbBLpJv/kPAnMd/TvMa2QuhwMHJ3wJN5HxutBt899z3j5ncDdwBHB9Yvf9O6xek8p4T4P+5h8xltcVvfnviVtsIZeQcRAU4AT3yHtjOd3RNxpSrRu1P/yALTi06M1/T3p2+A01DgJuLcDlvC+exA7ePJIkNei5wjHAGmE9PT1tgON/1XyvxzFuk2jcNgCqKM849ycaeq5HANsAKEn1sz+R82KZC2OZPU2HlNMXqHm8kEe4lMhxxbggvuZ415F4O8ntt683xu3UmNIsv4QflnJ3cyctTIGEGmkjHXFu8ieTaahlP4XxxAb84D7wRbr51/AlHmuqveEM/kaJwyH5psctCJ7wVfj9ocwEArMa8Hn0Obp5e9PtD4u4GQqxP2zJAF3eQZIkNca0adMuJ99fOpq5ZMmSsVYqXRMmTJgGTMxpeA9Wq1XH/2qkTEo07vstnQoiybVcq9W2znN8NgBKUv1NAX4fy347TsqTCCGWOZnIH4CXF+SifpN4o1o+0zqPfQhMTzT8uykxZfCX0hqCcBq3ETkakmlgaCHjX61ck1nHUcDoOv+tXwgLeH+zjpkPp3MTgcOBVYk/Mxwf57GPN1GRFytHA6Pq/Ld+NizkP5t2f+jmr0SOgORP4j4hzmVvbyJJkhrwPBFCjDHm+QS0LVtbW6dbqYRfBfM9/venM2bM6LdKGiFbJfq5sMbSqQhqtdoDid6DE/Mcnw2AktQY44Efx3n8h6mQGi/OZXfKXAx8HdiiIJd1J4HZoZv1Vni4FwzvAUKCka8n8sZwOtdZxE18uVvIFUSOTyjkt1i1ptuf5tT5b/x86OYDTb83LOCGwZMA70r4MkpEPutN5P4wfDcG/x26+ZDPDlxPjSOAvyd8GS0E/tubSJKkBj1POAZYI2TZsmWjgKNz+woT44+tkkbQVonGbQOgiuKRRJ/LJuY5PhsAJamBnxFE/ieWebepkBojzqYtlvkAGVcBkwt0aY9S402hO/nTRvK3Zk5lDOk2VX0kLOQSq7iZH94L+RGwKJFwD4jHs5NVa5L9qcwEYFr9/kI+F7r5oJkf3BtO5zoyjgZSPp3gyNjJflazgPvDiUwCptbxr/x0WMCHzfzg/rCIayHx/SFwVJxXkFPSJUlKTEdHx+UxxptyHOKs3t7eLaxUgo94IbQDE3Ia3oNr1qy5yCppBNd/qiOAH7Z6Ksg9+GiKcccYJ+Y5PhsAJanxvhTLzDQNUp0f0uYxi0lcA3wO2LJAl1Yl8NawiMus8oi8Xh9Nfn8w9ixvU1xAN1+0gMPkMf4dkjhJMdDCLAvWJOo73vPrYSH/adL/oQRncDmBk5NeRcG6FtIARwNtdfrbvhy6+ahJ/4ebq5vfEjkl6f2hZtO3JEkNdG6OYxsbY+ywROnJsizPpzf+ZM6cOeuskkZQkicAxhhtAFRRPJpo3BNz/dnuupKkXOzF3/aEHqlOL0jzODh2soLIT4EXFO8COTEsYImVHjHHJhjz32nhuADR8g2P8F0eoUYnaeT0aCvWDB9unEfk03X6uy5kJ0416c+wPyzgTCJnJHwJx8QTCvh81MxaOJ/AJ+v0t1V4gPeZ9GfYHxayEOhO9wKYE09kDyspSVIDPoYdA6xhtmzZslExxlmueTXx+h+TaPiPWEEVQYzxsURDn5jn4GwAlKR82JoW/tc0SCP4MNnJa2KZXiKXEOo6Aq2ePjD4i0WNxBoqsw2hjuM1h0vgI+Eb3GcFhzmti/gVcFYCoU4eHF2tQi9IDgN2rsPfdAMtvCV0MWDSn8WDvAeSHbleosT7LWKhTK7T/vAX4K1hMVVT/ixG8W5Csid1lxhwf5AkqREcA6xh/zFCzsf/rl69+mKrpJESY5yU8L3rCYAqCk8AHAE2AEpSfrwlzucA0yAN44schNhJeyxzEYHfQILNWxvvI6GbL1j1EV1Q7UBLWj8R4HfsyLcs3oj5ALA65zGO5lFeY6k0DFYDR4XTecBUPMfWu5h1tPDWBPaHZ/LOWGZHK6kheIDAUaE72TVfv/3ha/QTeQvwUJoXwHHxJHawkpIk1V+WZefkODzHAKe3nvJ8auO5jv/ViL7WhLBVwuHbAKii3IepNgBO6Orqym2fnQ2AkpQnVT5sEqTNF09hVJzHCZT5E4EKcETBL/n/hW4+Y+VH/Ml5emq3AoH3hC5qFm+EXlK7uRf4UgIr4XCrpc1UI/IvoZu/mIqN3B9O4zZisidljQLHPGsIb7GROWEBN5iKjX5+uJUNXyJI0WjW8+9WUZKkBryU1WqOAdawyPv4X8DxvxpRLS0tyZ4AGGO0AVBFkWoDYPba1752XG6Dc11JUo4EZvptemkzXn46eVEs83n6uZXIImDfgl9yDXhP6OaTVn+E11YXGTG5EyQvCGfwG6s3wkbxJcj5iOVgA6A22xfDQpabhiFayCLgokSjnx+Py/dIC+XGZ8PCZNd543TTTeBnScYeODGWczsuTpKkwpo+ffoVwF9zHKJjgBORZVkH+R3/+8BDDz30M6ukkZTyCOAsy2wAVCEkfAIg69atm5jbPcKlJUm50sIAbzYN0hBe1sqMjZ28LXbSR+AvwPuB7Zrg0tcTeUfo5quugjq4g1cB26b1BsUXLVwd0vw1HgK+nu+Nkv3jsfhDeG2qK3mAj5mGTdmGiWR0kuZ4lnG08k6rqOewEviEadjE/aHKXOCRBMMfT+AdVlGSpAY8Q4Rwbo7DcwxwOuvomByHd57jfzXSarXaxIRjtwFQRfFIqoGXSqXc7iE2AEpS3kSmmgTpOW6T2bTFecyKZb4P3E3gewQOA0KTpOAhIrPCQr7vaqiTwMGJRXxFWMAvLVzdLADW5zi+FsbyKsukTbCWyNvDYvzh+6Z+fJzB34APJfrZNy82z7OVhu5R4NjQnevPv3zfYou4Gfhwmi9kzLeCkiTVn2OAtbn6+vpGxxiPynGIPVZJIy3LsnGpxl4qlWwAVCFUq9VkTwDMcxOxDYCSlDeBA0yC9M/icUyMncyJZb7DJO4i8lPgX6HpTrW6ichrwkJ6XRX1XIAclFi8nv5Xz4/ubu4kcnbO18SrrZQ2Yd38Z1jINSZiM+3EacCVCUa+N/M51ALqGfaH94du/mIiNtMDfAO4KsHI94nzeL0FlCSpvhwDrM21bt26DmB8Xp+OHf+rOkl2n4ox2gCoQsiy7LFUYy+VSmNzm1eXliTlzo6xzATToGYXZ1OKnbw6lvlALPMz2riHwI+BY4FJTZqWX7Keg2zGaIDAgQlFewcPco5Fq/ub1fdyHqENgBriBzEXstAx88PyEdJFjcD7kgy+xjwrqKdRYSGnm4Zh2B8WU012f4juD5IkNUief+bjGOC8P8LFmOdTGs9x/K/qdB+MTTX2arVqA6AKIYSQ7AmAed5DbACUpFx+crC9SVDTLfuT2DLO4/Wxk/fFeSxhEvcTuBz4HDAZaGnqXQG+wE4cEb7FPa6WOid/PtsBeyQU8uKwmKqVq7M2LgZW5zhCGwA1FGsJnBg2fP5oGIQFXAwsSTD0Nw1+DkqPe4waJ7k/DOv+cCGwNMHQ3xzfxbZWUJKk+sqyzDHA2iR9fX2jgSNd2xLJNgCOGTPGBkAVQqlUejTh8G0AlCQNaXcebxJUVBFCnM9ucR4dscx7YyffjmWuYYAHifyCwBeIHAneB4MeIPKG0M0HQhcDpqMBauybVLyBHovWgLR/jX4CF+Q4xN3j8YyzUtpIXwjduR4rlaoPAOsTi7mNGsdbOj3J58IibjYNw/68+X5I7ll/FK28y+JJklRf06ZNW4ljgLUJ1q5dO538/sz9vq222qrPKqkeUj4BELABUIXQ39/vCYAjoMWlJUk5VHV/VuIvUMcxmjZ2I7I7sDsZuw/+8x7Ai6jxfz8ECubrWfQBx4WF3GoqGiiwV0Jn3NzCAi6zaA1S4xwCb8vtSm5jb+ByC6Xn8Dfgs6ZhBG7Cbv4SyywA/i2x0DtjF58PXdSsYtO7iS34vGkYgf1hEdfGeXQTOSmx0Muxiy+6P0iSVHfnsOELRnn0+BjgcyxTzp45Q8jz6Yzn7r///uutkuohy7KxMSZ5qP3ayZMne0iEivKZlGwDYJZlNgBKkqRiiPPZjirbEtmewI4EtgN2AHYisjuB3YGdNjzBPf5fMm9DfZEDPsxOfMVfpuVh0bNXOm9NLHYkXwNtSYVHeATI5zfdq+yDDYB67j3vP8JCHjURI2SA/6aFTmBUQlHvwSoOZcMXE9Tc+8Op4Us8ZiJG7DnuM0ROSGx/2JM7eB3wCwsoSVL9ZFm2uFarfSDHIc7GBsBc6evrG93f35/n8b9nWyXV7dU23RMAH7F6KooxY8Y82t/fn2r4NgBKkqSnvtPGE5lUl79pPW20PqkZJTKWgSd+qTSWEuOAccAEaownYxzxSf/ehj/bPfGnRguBpz+5z9P8hsMlBDrDAv5sKvLyEwFelMzaruV6BG3hhS/xWCyzjA0/6M5hgOxjlfQcKmEhPzENI3gbfpNVscy3gXJiob8VGwCb/XloWVjIT03ECO4PZ3BHLPNdYG6C+4MNgJIk1dG0adNWLl++/KYQwh45DfHIJUuWjJ01a5ZfLsuJdevWdbDh5/15dG9ra+vPrJLqKNUx5essnYpi8uTJA5VKZT3QmlrsjgCWJEn/aEeq3F+XvykDqk/z7z3xpPKkfw54dljjPEjgQ+xIt6f+5Uxgz0QiXct6fmvBGv32xzJCbhsA97ZAehY1Iu8zDXVQ5QuUOAEoJRT1m2OZfwvdOJKpWVdtxvtNQ10+qz9P5F1J7Q+BN8cuTgldOIpKkqR6fgSHsBj4YE7D26KtrW0G4KluORFjnJPj2M51rKnqLNUTAP2ZjIqmSpoNgGPyGlvmmpIkSWrssyLwPWCfsIAzbP7LpR0SifO34SzWWq6Gv2H9Jse7zW4WSM+yPn4cFnKNiRh54UxuBBYnFvbWBKZavab1Y0+nrtP+sIAbCMmNy9uWO5li9SRJqvNzw4YGwPy+YsY42yrlQ19f32hgpmtZekKSDYAxRhtlVTRJruksy3K7h9gAKEmS1DgryXhd6ObY0M2dpiOHL9WnMoYNY7DzLzh6LRdlWMANwF05DW9XK6RnUCXySdNQ1z37s6R27nKNt1i4Jt0fcH+os8+Q3rns7g+SJNVZe3v774Abcxzikb29vVtYqcZbu3btDGB8TsO7d9SoUT+3SqqzJPemEELV0qlgkmwAzPMIYBsAJUmS6u8mIm+nmwPCGTk+LUzwGNsnE2vVBsAcuSSncY2LJ7CV5dHT+EFYxLWmoX7CAv4I/DKtoHlDPI7RVq/JRL4fuvmLiajz/hD4dWLr5I3uD5IkNUSeTw4eC0y3RDl4vgzhmNw+Rjr+V40xJtG4vVdUNKmOtbYBUJIkSdxOYB7w4rCQ74f0TvZoPrVkGgBrtHG5BcuNS3IbWaunAOqfDBA83ashImcmFvF4RjHDwjXZ/lBzf3B/2CgTaKPDwkmSVF+OAdZzGRz/e2SOQ+yxSmqA1kT3fBsAVTSpnmo5Kq+B2QAoSZI08m4BTmEdLwwL6A7dyX6rpflEJqayxsJpPGzBciO/p/ZU2cXy6CkC3xscXa1625KzgQcT+1ycY+GaynfDmbkeK1dki4HV7g+SJOnZOAZYz6W/v38mMC6n4d07evRoJ5qoEUopBh1jtAFQRZPqms7tHmIDoCRJ0si5FjgOeGHo5uvhLNaaksSEZMYBXG2xcuQB/gA5vd8D21kgPUWVL5mEBt2OX+Ix4IeJhd0eu2ixek3D/aFR+0M3jwI/Suy5ucP9QZKk+osxnp3j8BwD3Hh5PoXxbMf/qkFSfW/xflHRpLqmc7uH2AAoSZI0vGoELiAwk514Sejm2574l7B0GgCvsVg5WjaLWQfclNPwbADUk/0iLOIq09BQixKLdyK3c7BlawKRn4du/mQiGvocmtr+MIm7ONDCSZJU50cGxwDrGSxZsmQsMNO1K/2TUqJx2wCooklyTccYPQFQkiSp4P4OfIYqe4QFzAoLWBa6qJmWxNUSaQAMNgDm7y0wpyNVPQFQT10PXzcJDS5BN7+HxJowS57g0RQyvmYSGrw/LGAlqZ3yXHN/kCSp3jo6On6PY4D1NNra2mYAW+Y0vHva2tp+aZXUIDYASq7pTRZCyO0JgI5lkCRJ2jy/JHI6D3Lu4KlfKpLAGgK/SyDS31us3K2dfP7wvWYDoJ5wGztynmnIhR7gZclEG5kBfNiyFdqt7MhPTUNu9oeXJBTvDOCjlk2SpDo/osd4dgjhP3Ma3uNjgM+2UnVfF47/lZ6eI4Al1/TmfL7mtonYBkBJkqShu43IYuCbYaEnrxVZ6GYx4DgKbcLi4UZiLuPa2uJo0Bmhyx8c5uS+7CHyqYQiflk8np3CN1ll8QrrdPeHnCjRQ5X/Siji/WKZHUM3d1o8SZLq+EqxYZRqXhsAH29EswGwjgbH/87IcYj+vFWNfdNKk+/pKhpPABxmjgCWJEnaOKuAr5JxCN3sGhbyXpv/JD2jWm7H74yzOAL6Wc9C05APYQE3AH9IKWRaHfNZYGuBRaYhJzfb6VwH/DGp/SHQYeUkSaovxwDrH+V8/O/fH3roIcf/qpFsAJRyIMboCYDDzAZASZKkZ3Y/8F0CR7ETu4Zu3hPO4DeBXJ7rJSlPSrn9wfuWFkdEloRvcY+JyFVN0jr9oGaDT2EFfhq6uddE5Epqp6O4P0iS1IjHuA2nAObV42OAVa9XzByP/w0hnDNnzpyqVVIDlRK9r20AVKFkWeYJgMOdU5eVJEnSU/yFwFcITOEBtgvdvCMsYIlj0CQNyQ7cTj6bhT0BUJDxHZOQM4GexOI9Inb5M6VCiu4P7g+bvYaOiBAsnCRJ9VWtVnP9pYE8N6QVzeD435l5ja9Wqzn+V43WkmLQqTZLSc/yeZBkM3gIwRMAJUmScmo1cC6BeVTZLXSzd1jAv4cFXBwW4zcRJW3aS+CGpuFHcxiaJwDqbiIV05CzPaObvwJXJRTyJFaxr5UrnL+zE72mIWf7w4Yx4VcnFPLWdLKPlZMkqb5mzJjxB/I9BnjmYGOaRtjg+N+8jly+a82aNb+ySmqwJHtkYow1S6dC3YiJNrXGGD0BUJIkKSdqwBVEPgW8jp3YJnTz5rCA7nAmt5geScNodQ5j2sKyNLnAD0M3601ELmuzNLGIX2/RCucHnnqdUzGx/SG4P0iS1JCP4HyPAd5isDFNI/3omO/xv+c6/lcNvj8CnlguafNkBiZJkpQPV4ZuDggL+Vjo5tf+klPSCFqTw5haLUuTc7xnfqXXAHiIRXN/UN1q4/4gSZKek2OAlffxv9VqtccqqZFCCJENh0SkGLu9PSqUWq3Wkmjouf1yvZuEJElqNi+L87g4dvK+OM/RVJJGUMzlCYAt0W+5NrOrQze/Nw05dR+XAfclFLEnfBXLVWEhV5qGnNqZS4H73R8kSdKzGRwDfEOOQzyyt7fXyQQjqLW19UhyPP734Ycf/rVVUg6kOna0ZOlUJAk3tdoAKEmSlBMtRA4n8AUi18Qyd8Yy34llZsdTGG96JA3fGywP5TKuLvxhUfP6kSnI8ZaxmCqBSkIh7xTL7GnlCiK6P+R6f+higEhvQiHvHOeyu5WTJKkh8nwK4FhguiUawcf6fJ+yeLbjf5UTqU6FsrdHRZPq7ynWuUlIkiTl0w7AsUAP/fw9lumNnbwnzmVnUyNpM+WzAXC1Y4CbVo1zTULupTXmM3jKV2G0uD+4PwyzzP1BkqSGfARnmWOAm9SSJUvGhhBy22AZQlhslZQTqTai+qVuFU2qa9oTACVJkhIwGphG4Mtk3BLL/CqWOTnOZXtTI2nIAo/lMq7VtFicpnRtWMS1piH3+8bFQEwm3sjrLFohXBNO5zrTkHOt7g+SJOm5TZs27UrgLzkO0THAI6StrW0WOR7/u3r16t9YJeWEJwBKrunNYQOgJElSgg+ehwBfJ2NVLHNhLDM7zqbN1EjaKDGnP0xq8T2wSZ1tCvIvnMHdwJ8TCvlAq+b+oDrtD6dxF/n+Zf4/BOz+IElSA+X5dGfHAI+QPJ+uGGNc7Phf5UiqDYCeAKiiSXJNxxhtAJQkSUpYBkwBepjEbbHMF2OZPU2LpGcVWGcSlBvR8Z4J+XlCse4Vj8XTO1LneHD3h5Hx4lhmrCWTJKn+HAPcfAZPVZye4zXpl46UJ6k2ADrVRYV7ZEkx6BCCDYCSJEkFsR3wXuD6WObCOI9ZEYJpkfQ01psC5cTNYSFXmoZEhKQafEpswX4WLWk3hEVcZRoSEZPaH1oIvNyiSZJUf44BbkpHQm6/fHHnpZde+mtLpBxJtQFwlKVTwSR5AmAIIbcHP9gAKEmStOnPUVOI/JQyf4ydvDXO9gh2SU8SPQFQuXGeKUjIOn4BxGTirfEqi5a0n5qCpJ4t0tofovuDJEkNdE6OY3MM8HA/duX4VMUQwuKurq6aVVKOpDqOerSlU8E4AniY2QAoSZK0+V5K4IdM4s+xk+NsBJQ0yBMAlQ+B5SYhoXJ9i3uAa5IJ2AYf9wfVr1yL+DtwbULry/1BkqTGcQxwkxg8TbEjr/HVarXFVkk5k+oJgDYAqmhsABxmNgBKkiQNnxcR+BaTuDqWme1oYKnp2QCoPHiUfn5lGpJzWTKRBva3XMl6hDYcxeX+MHJsEJYkqWE6Ojr+CFyf4xBnLlmyZKyVGhZHArkcqRxCuOO3v/3tJZZIOZPqz2xtAFTRJNmvFkKwAVCSJKmJvBjooZNfxTKvNB1S03IEsPKgL5zFWtOQmMAVCUW7Vzw2n79s0nP6Wfga/abB/WEE7R1PZYxFkySpYfJ88toWLS0tMy3R5osxzslxbGc7/lc5XJePJBr6KKungkl1mpoNgJIkSU0n8Frg8tjJV2OZCSZEajqeAKg8qJiCJJ8hUmrwKbEF+1m0BEX3hyRVk9ofWljDyy2aJEkNk+vRq1mWOQZ4M/X19W0ZQpie21eOGM+2SsqbEMLDiYbuCYAqGk8ANKGSJElJKRE4Bbg2dtJuOqSmYgOgGq9qg0+SalwNPJZQvC+xaAlqcX9IUsZVkNDJrpn7gyRJjTI4BvgveY0vxjizt7fX08Q3w9q1a2fFGPN64vLtjv9VTtkAKOVDS4pB12q1R/Mamw2AkiRJ9bEjgeVxHl+Is2kzHVITiI4AVsP9NZzJjaYhPaGb9cAf0gmYva1acm4Ip3OTaUh0fwhcmdDzkPuDJEmNdU6OYxtbq9VmWKLNeDYM4Zg8rz3H/yqXrygxJtsA2NXVZX+PCvUxlmLQWZbldg9xg5AkSarnw2zkfWzFJXEeLzQdUuF5AqAa7ZemIGkrk4nUBp/0RPeHxOu3MqFoX2zBJElqKMcAF1Tex/9mWbbYKimPEh4BnL3iFa/w1FQVSaonAK7J7SbhmpIkSaqzyKuI/DF28h6TIRWaDYBq9OeNDT4pC1yTULQ2AKYmc39wf6hbrO4PkiQ1kGOAi6u/v/+oPI//nTp1quN/lVepNgAyatSoLS2fCmRUikGHEB7Ka2w2AEqSJDXGGAJfjvPojmVaTYdUQMERwGr4GvyVSUi6fik1AO4cj2ecRUtI1f0h8fqltD/sGsuMtWiSJDXw1SKEs3McnmOAN12eT0/sCSFES6Sc7onJNgBmWWYDoIok1QZATwCUJEnS04h0EqjEE9jKZEiFu78HTIIaaFXo5q+mIWHruTahaAMlx3wm5PawiJtNQ8KypPaHjIy9LJokSY1Tq9UcA1ww559//rgQQrtrTtokjyS8n/vlSxVCV1dXBmkejpLnEcAtLi1JkhriHiLfzHWEgRZ4ykkuGTABGEdgC2AskUmD/97WlnQzRA6nxG/iSUwLp3GbCZEKIqOG33VW43i6V+LCmdwfy9wF7JDInrc3cIWVS+LZ0/0h9f2hm3tjmbuB7ZIIuMbewB+snCRJjTF9+vSrKpXKtcDeuXw8HRwD3N7e/ojV2jijRo2alePxv7dNnz79t1ZJuX0ljjHZEwBtAFRRHHrooW39/f1Jxp7nEwBtAJQkqTHuDAv5z8K8MHXRwiq2pca2lNieGs8jsBuR3QnsBuwGPN+yP6sXM8Cv44lMC6dznemQCqFmCtS4D2d+aRIK4VpSaQDEEwCTkbk/FGh/2C6RWN0fJElqsBDCOTHGj+Y0vMfHAHtq3MZz/K+0iWKMD4cQkoy9VCrZAKhCGBgYGJVq7FmW2QAoSZKKK3QxANw5+OfpX6qOZxxt7E3kpdTYh8CrgP2BLczgE55PlV/G+RwRzuBq0yElLtoAqEZ+OHOZSSiEPwOTE4l1T8uViJr7Q4H2h0PdHyRJ0kY9AtZqi0MIeW0AfHwMsA2AG+H8888fB3TkeK2dbZWUZ3k+vWsj7i8bAFWU55JRCcee21NEM5eWJEmqy0vVN1kTzuDysIAzw0LeG7o5jJ2YSMYriZwM/Ai4z0yxHTUuimVPyZCSZwOgGmct8CfTUIh95M8JxbqrBUvCYwSuMQ2F8OeEYt3NckmS1FjTp0+/CvhLbl8nYpzR29vrF8U3wqhRo2YBo3Ma3q2O/1XehRAeSDj88VZQRfk4SzXwlpaW3DYR2wAoSZIa96LVxUA4gz+EhZwWuvkXdmI7Mg4k8DFgZROnZnvg4ngie7hKpKTZAKhG+WPoZr1pKMLDEtcmFO1uFiwJV7o/uD+4P0iS1LTyfMLeFoNjgPXc5uQ1sBij43+Ve7Va7d5kXwND2NoKqghijMk2AN5///0P5TU2GwAlSVJ+Xl66qA2eEvip0M2rCbwI+H+kdbrFcNmJKsviyfhCJ6UqswFQDXOFKSiIWlLPQNvFUxlj0dwfVCcxqf1hh3hKut/ulySpKKrVaq5H7A6OAdazGBz/257X+EIIjnFW7pVKpWQbAGOMk6ygCiLVnxFU58yZ81hun6VcV5IkKa/CAm4I3XwydLMvgUMJ9EBTnViyF+s5Lx6X25EOkp6dDYBq0AeoDT6FKeUi/g7cl8zKe8QxwO4Pqlspu7kTSGV0VcY6nm/VJElqrJkzZ/4J8nuKcIxxpmOAn11bW9vR5Hf8723t7e2+byj3BgYG7ks19hDCVlZQBZFqA+CaPAdnA6AkSUrjxWYBvwwLeAsD7AZ8Pu8PWcPoENr4hitASlLVFKhBVpqCQklnzGdwzGfuRfcH94eGcX+QJCkfzs5xbGMdA/wcr1whHJPj8Bz/qyTMmDGjn3R/v2QDoAoh4RHANgBKkiQNl/BNVoVuPkgruxP5FLC6CS77+FhmntWXkuMJgGqER9mRv5iGQrkhmUijJwDm3MPsxPWmwf2hQU9Fu1kuSZIazzHA6cr7+N8Y44+tkhKS6hhgGwBVFKk2AN6T6+co15UkSUpR+Ab3hYV8DHgBgdOAgYJf8ldimVdaeSkh0QZANcQ1ocu1VzC3JhTrbpbL/UHuD0//Auf+IElSHjgGOF2jRo16A/kd//u3jo4OTxtXSpJsAAwhTLJ0KsrHWqJx2wAoSZI0Yi883dwbFnAygZcDFxX8Yfh78VTGWHUpETYAqjGuNgVFe9jhtoSi3dmC5fpzyf2heDW9LaFY3R8kScqPPJ8C6BjgZ3qcijHPpyM6/lep8QRAqbGSbAAMIdgAKEmSNOIPXQv4M91MI/Iu4IGCXubePMLnrbaUCBsA1ZAPRBt8CqfG7QlF+zwL5v6guro9ofXn/iBJUl4+lkNwDHBili1bNj6EMC2v8cUYz7ZKSkySDYAxxq0tnQpiVKL3YK73DhsAJUlSYQSIYSFn0cI+BC4o6GWeFOdzgNWWEtBiA6Aa4k+moGCypE4AtMEn3w/L7g9FU3J/kCRJQ9fe3n418Oe8xucY4Kd5Lcyyo8lvs8TNjv9VavLexPMsRi9btmy8FVQBpNoAeHeunxdcV5IkqWjCadzFAo4C/gNYV7DLy6jytdjlc5yU/7dBGwDVACUbfApnvQ0+Gq6HZPeHwqm5P0iSpE2W5xPbHAP8Dxz/Kw2vLMvuS3g/2MEKqgAcATwSe5vrSpIkFVGAGLr5Ehmvg6RG523MxR3AnbzLKkuS/sF94TTuMg0Fe6b5JmuABxMJd4t4HBOtWi7dE87gbtNQsP2hm9XAQ4mEOy6egidVSJKUl+cIxwAnY3D871TXkjR8arVasj8/a2lpsQFQycuybGyiz0+OAJYkSWrYw9gZXA4cABRrDEHkc/FktrbCkqQnud4UFFY6p3yNYifLlctnR/cH94fG63d/kCQpLxwDnI4sy94AjM5peDdPmzbt91ZJCUr20AhPAFQRxBjHpRi3JwBKkiQ1+oGsmzt5jMOAJQW6rK1Zx8etriTpSW40BQUVHfOpzX0gdn8osNsSWofuD5Ik5ek1I8Y8n9w2NsY40yoBMDvHa+jHjv9Vkq/IIdyecOzbW0EV4BkkyQbA9evX2wAoSZLU8Jei7/IIO/Em4MfFuShOjCfwAqsrSRr8XPCEr+LWNp0Gn5oNPjnl/uD+kAfuD5Ik5ekxIuejW2OMTT8GuK+vbyLg+F9pmJVKpZRPALQBUEV4BhmX6P2X6wbAFpeWlI+9Arga+CVwDYGbqfEQkf5cR50xnshWBPYCXgUcBmxlOSXl9oGyi4E4m7cxifXA2wtwSS1k/Ccw1+pKkoAbTEFhpXTC13aWy/1BdRSTahB2f5AkKUc6OjquqVQqfwb2yeWrRQgzent7t2hvb3+kWWu0bt26o4FRuXwMjfGm6dOnO/5XSZo6derqSqWyBkiuCSmE4AhgFUGKDYADM2fOfDDPAdoAKDXWHcDpwHdDN7emfjFxNiUmcQRwPHAMULLEknL3crSYapzNcUxiLPCm9C+Id8QT+GQ4k1usrtTA56AuMv7ObtR4MTX2IbAXkf3NjOqq6ojP4j7AcBvpDFXa2oLlUOb+UNyHEG4jJLOXuT9IkpS3R4kYF4cQPp7T8B4fA9zTxPXJ7SmIWZb92DtIibsd2DvBfcEGQBXBlgnGfG/ex97bACg1xgPAxxjFovC1nJ/yNwRhMVVgBbAinsALKPFZ4M2WW1Ie96t4HG+jjQuBQxK/nNbBUwBPtLLSP4unMJ4BSqwj0MbEJ+6b9U/zghnYEmh9mv+ZCQQyIqOBrcjYishWbDj5eBKwE6vYCxg9+L8jNcYYT/gqsHvT2Xht8MmlzP3B/SEPL2LuD5Ik5e7jecMI17w2AD7eANeUDYB9fX0T+/v7p+S4Nmd7BylxSTYAAs+zdCqAFE/fvCfvMdoAKNV9Z+ACAieEM7i70Jd5JjcCx8R5zCLyTWAbiy8pV/vUWayNJ3A0JS4B9kr8s+VdcS6fDou43cqqqGKZCcCOBLajxk7A9mRsPzhKbgKBicBEYMKT/ox64qsWJaD6pP/BbJPutcFgrIdy6YHwNR4yDQVV40FP+NJmuC+cxsOmoagvNjyYzgOd+4MkSXnjGOD8yvP4X+DGjo4Ox/8qdan+PmVXS6cCSO4EwBjj3/Meow2AUh33BODjLOBToYl+bRwWsCSexCsZYCnwUpeBpFztUWdyf+zkzQQuI83jph83ioz3A++xqkr2QanMBDL2ILI7kd2B3YHdBv91d2DME09UT27E87Q96XG3mYICy3gwmbdIGwDdH1T//aGWTLTuD5Ik5ZBjgHNbl9yO/x08OVJKXaoNgJMuvPDCCVOnTl1tCZWwcQnGnPufr9kAKNXpOR04OXRzejNefDiN2+JxvJ42KsCBLgdJudqjFnJN7KSTwA8Tv5Tj4kl8xNNdlPuHojLbENmXwIuBfYjsTWBvYOeEfnkt5ZENPkW2ngeT+QmOJ3y5P6i+Bnhwk042bgz3B0mScijLsh/FGB0DnCOD43+n5jW+EEKPd45SF0K4PcY0z+wZGBjYFbjKKiphyf18IMZ4a+6f6VxXUl18tFmb/554iDqLB2llJnCdy0FS7vaohfyIyBmJX8Z4Bnir1VSuXoiOZ6c4j1mxTFcs89NY5g7gHgI/B84A3k1gKrCz2ZI294azwafQWhIa8WmDTw4fdt0fCq3N/UGSJG2e9vb2vwDX5PZxNoQZfX19WzZTTfr7+98ItOU0vL9OmzbtSu8cpa5Wq92ecPi7WUGlKsYYgG0SDN0TACVxLt38t2mA8A3uGxy1eTkw1oxIytcmxXuBycBe6T410wkssphqyPI7jtG08GoyXge8BngVsAPR3Eh1+hyzwafI5e3m0VhmHfn9BdCTbRUhBPwEyNEzovtDkfeH03g4lhkgjZ/zbmXFJEnK6TNFCItjjPvmNLyx/f39M2iiUwBDCMfk+GSyH3vHqCD32S0Jh7+bFVSqfv7zn08AWhMMPfdNw54AKI2su6nS6S8+nvQwtZBrgA+ZCUm525+6eZTIscD6dC+CA2In+1lN1UM8ga1iJ0fFMp+PZX5DG6vJ+CXwaWAmsINZkup5U9rg0wQeTCTOVk5ltOVyf5D7w9MYFU9hlOWSJCmXct3UNTgGuCn09fVNjDFOyXGIjv9VIdRqtRuBaoqxhxB2tYJK1fr167dNMe6WlhZHAEtNLfLBcCb3m4h/8ADfAK4yEZJy99K0kCuALyR9ERmdVlIj8lgzm7bYyaGxzKdiJ7+lxN0Ezgfez4YT/9rMktRQd5qCwnswmUgfYQvLlacPcfcH94ccedT9QZKkPHIMcH7kfPzv9R0dHX/0jlERzJgxo58ETvR6BrtZQaUqxphkA+Cjjz7qCYBSE7uRB/muaXiaF7XFVAl8wkxIyqUt+BTw13SfnHlbLDtmXcO0nE5kj1jm3XEeS5jEfQR+DnyEwAFAyQxJuXq7v8ckFH1TTqjBp2qDj/uD6iyd/WGU+4MkSXkVQlic4/AeHwPcDHU4JsfhLfZOUcFcn2jcu1s6pSrRBsDVRx999Jq8B2kDoDRyvhIWp3lscF3syHnATSZCUt6EL/EYcFLClzCByHQrqU168YIQ5/KqWOa/Ypk/UuWvwFeIHAlsaYakHFtvg08TWJ1MpC02+OTMvabA/SE3BtwfJEnKq1qt9qM8x9cMY4DzPv43xuj4XxVKCOGGREN/YYwxWEElKrkGwBDCrSnEaQOgNDLW0coPTcOzbJJd1Ah8z0xIyuUe1c0K4NxkLyDjjVZRGyvOphQ7mRLLfJ0yt5CxEvgY8DKzI6VzK7PGBp/Cy3g4mVhrNvjkan+wAbAZquz+IEmSNtv06dOvA67Oa3zNMAZ43bp1byK/43+vmz59+lXeKSrUq1SMqTYAbrl8+fLnWUElet+leALgbSkEaQOgNDIuDd/gPtPwHGpcYBIk5VaJ9wP9aT49c2ScndsfFCkvy6STfWOZLiZxI4ELgZOBXcyMlKTVYTHrTEPRN+6EalyywSdHHgjdrDcNBRfcHyRJ0rBxDHAjX/tizO3435yPiJY29Z5LdQQwWZa92AoqUck1ANZqtduT2BdcW9JIPAXzC5OwER7k98BDJkJSLrfy07kJOC3R8CcwicOsov5RPJ6dYpn3xjJ/JHA18HFgNzMjJc/TvZpiE0/oiwlVx8a7P6jOUvrikvuDJEl5fu2I8cc5j6+wY4AvuOCCScAReY1vYGDA8b8qnFKpdEPC4dsAqCRlWbZzgjE7Alhq3jek/B6RnidhMVXgWjMhKbda+TSwJtHPIscAa8NS6CKLnRwZyyyjhVuBL+J4X6lo7jEFTSBLqsFnrAXLzTOh+0Nz1Nn9QZIkDQvHADdOqVTK9fjfmTNn/sk7REXT2tp6MyR7av5eVlCJSm4SVYzREcBSE/urKTBXktIXvsF9BL6eZvAcHbt81mtmscw2scwHWMWNBJYA04GSmZEKyQafptjYkxrz3GrBcvNM6P7QHHV2f5AkScPJMcCNeKQL4Zgch+fpfyqkyZMnDwA3Jxr+3lZQKYoxJncCYAjBEcBSE1ttCjZ2t+RBkyAp30+i/C/wcIKR78gdvMoCNuGS7eTVscxZwG3A54DdzYpU+M8qG3yaQzoNPoEWy5WbWrg/NEed09kfau4PkiTl/hXTMcB1Nzj+9/DcPm6GYAOgivs6FcKNiYbuCYBKzsqVK1uBHVOLe2BgIIlDrWwAlEZkB+Axk7DRHjUFknL98tfNvcDpiYY/xQo2jziPjjiPXxK4HHgnMNqsSM3yYWWDT5PoT2hN2uCTmwcE94cmqXM6+0Pm/iBJUt5Nnz79uhBCbse9hhBm9Pb2blGknLe2tr6R/I7/vba9vf1q7wwV9nUqxmsTDf15559//jgrqJQ88MADO5LepKq1V1xxhSOAJem5n6qIJkFS7rXwNWB9cnFnNgAW/mO0iyzO45hY5ndElhN5nVmRmpANgM1S53RO+Io2+OSI+0NTPBR6AqAkSRrmx4sYcz0GOMY4s2D5npPj8BZ7R6jg+92ViYYeRo0a5RhgJWVgYOD5CYZ9U1dXVy2FQG0AlCRJeq63qNO4jcjZ6b258pp4KmOsYPHEMq1xHu9gFVcTWQy80qxIzbwp8JBJaIo6r0soWht83B9U1xcWR4RLkqRhfoyMsSfn8RVmDPBFF120NTke/ws4/leFlmXZlcm+CoawnxVUYms2xQbA65PZz1xikiRJG6HElxOMejSPeCJckQye+Pd24Doi3wb8hp8kCKw1Cc3wIZDQiE9PAHR/UL05IlySJA2rFMYA9/X1bVmEXA8MDLwRaM1peH/p6Oi4xjtCRbZ69eprgUdTjD3G+AorqMTsklrAIYQbUonVBkBJkqSNecA7g8uB3ycY+hFWrxhiJ9NZxe+JfBfY3YxIehIbfJriYYSBZGLNKFmw3Kwb9wf3h5w91Lo/SJKUzMd2zscA9/f3zyhIqo/J8Rr4sXeCim7OnDlVIMlGV08AVIJ2STDmG1MJ1AZASZKkjRU5M8Gop1i4xJddmQNjJ30ElgEvNyOS/knNBp8m0ZbQM5MNPvnh/tAc7yltCUXr/iBJUiKq1Wqum7+KMAZ4yZIl25DjL3DnfRS0NIxr/Q+Jxv2ynp4e37GU0pp9YWox12o1RwBLkiQVznp+ADyWWNT7xROZZPESfBGaz/NiJ4uBSwkcZkYkPQsbfJpBSKjBJ1C1YDlRdX9ojgfHpBoA3R8kSUrEzJkzrweuyu1rRwgzent7t0g5x62trW8AWnIa3jUzZsz4s3eCmkGWZVcmGvrYSZMmvcgKKhUhhOQaAAcGBhwBLEmSVLgH07N4kMh5qb27UuMQq5eO2EUWy5xMjT8TOAYIZkXSsyol15yuTdOazodZQuNI3R/k/lBv7g+SJCUk72OAgSMTT/GcHMfm6X9qGrVa7cpUY69Wq6+wgkrBsmXLRgHP///t3XmcXGWV8PHfU9XdSViyEER2EQUVF0QhgCIaTdJLEhElcVeEdCeAjIPbOL4z0u6OzrghkHTCooyjJIBiIF0dokFAIRjADcGFTUjCvocsXVXP+0c3CMiSpZf73Pv7fj6ZQVE895x7z7236qnnJBb2Q9OmTVudSrAuAJQkSdo8P04u4sibLFsiperg1azmCuB7wGgzImmTVN3hqxg3CXf40hYI9oeC1Nn+IEmSBkW9Xs/0IrCUxwD3j/+dmOHan+cVoKKoVqu/S/VdJYTwWiuoRLwESG1k9fUhhJhKsC4AlCRJ2hwPUgHuTyzqwy1ctsWjGRk76ARWAoeaEUmbxQU+BblZJLXAxx2+slMJ+0MxpNMf3CFUkqSkZH0MMNC6fPny7ZICINpKAABUYElEQVR8gGtqeicZHf8bQviD439VJNOnT38M+GuKsccY3QFQSSiVSvskGPb1SeXY00ySJGnThUVsJPCzxMJ+fTyG7a1eRl/QZ7MfTVwNnAxJLe6QlBUNjvgsxkOIO3zJ/iD7gyRJGnpZHwO8cePGqYnmdYY1lzJ13v820dAP7OzsdN2PUrjG9k0wbBcASpIk5dwFicXbQCOHWLYMvvB0cByRlcCrzYakLW8mbDAJhZDOAp/gAp/MqNsfCnIfsD9IkqTBlOnFYCmOAe4f//uWrMZXLpcd/6vCCSGsTDT0sRMmTHi5FVQC15g7AA4yFwBKkiRtrsjPIbHdVOqOAc7UKXQc42IH5wGnAaPMiKStUnbEZyGktcOX56T9QUP7fpLSAkDPSUmSEtPa2vpn4HdZDjG1McANDQ3vIqPjf4HfT548+QbPfBVNvV7/VbKv/uWyG0AoBS4AHGQuAJQkSdpMoYvHCPw8raB5k5XLhtjOG6hxHfAusyFpQNSpm4Qi3ECSWgD4mAXLiJr9oRgvKPYHSZI0yI8bITgGeGDzeVSGw3P3PxXSo48+em2q7ysxxkOtoBLwisTivb+lpWVNSgE3eI5JkiRtkcXAtITiPTB20hA6qVq6YXwRn80cIqf4HD7kHgPuAx4g0EukDjz0xN+LPDhIu9EcABxk+jX4zYVGk1CIOjcRkuq7ygb7QzG4AFCSJA2qarW6qFwufymzr0t9Y4DPTSGXS5YseQEZHv8bY1zoGa8imjlz5sZKpXJ1lq/P5+ACQGXa0qVLd63X6y9MKeYQwh9Sy7NfPEqSJG3Rkx8XE4mQzFfx27KKVwG/tXhDL86gzDi+QeQkszGgHgNuJXIrJW4lchtwB4F7qHMPjdzHCO4N3xqekd2xg5NxAaCGwkbf7QuhxPbEZJ6TXOCTFQ32h2I8bLK9C4QlSdJgmjp16l8qlcrvgP0zGmLr8uXLt5s4ceKjmX9dCuGdZPc7+t/1j3yWCimEcEWM8S0Jhr7fRRddNG7atGkPWEVlUb1ePyDBmK9NLWY/BJQkSdqSF8G5rIodXAe8Lp2gORgXAA65eDzbUeX/gOlmY4vdBvwJ+AOB66lzA2VuC3O5O9vFpyGhL+OV9E3JHb4Koc44F/hoC9gfinEfGJdQtPYHSZJSfeQIYVGMMasLAB8fA3xuAnmckeUae6aryGKMv0q1RZfL5QlAj1VURu8vr40xphbzdanl2QWAkiRJW24xaS0APASYZ9mGTpzF7lRZDLzWbGySKvBH4ErgWur8kVH8KZzCw2m+1fq+pSFS9lwrhJQW+NSHZ+dVPQN3CC0K+4MkSRp0jgHeev3jf9+c4RDP90xXkdXr9V+XSqUaUE4w/ENxAaCye48+IMGwk9sBsOSpJkmStIUCF6X1hM3BFm0I093OaymxAhf/PZe7gZ8R+SwlJtLAuNDFAaGL40MXC8ICrkp28V8fd12S55oGUjoLfEo8Yrky87xqf7A/ZO2ctD9IkpSoqVOn/oVsTxdpXb58+XaZfhTK+Pjf5ubmGz3TVWRtbW0PA79P8vU/hDdaQWXY/oldT+tGjBjx59SS7AJASZKkLTWPa4A1CUX8sng0Yy3c4IuzOITAL4BdzcZTVIHLgH8j8MrQxQtDF0eE+Xw1zOXScBqP5upo3QFQQ/dm77mW9/sKBEjoHl7nAatmf9CQ9ocxyQS80f4gSVLKQgjnZTi8x8cAZ9nMDMe20DNcAiDVMcCHLVy4cJTlU9YsWbJkNPCSxML+3cSJE6up5doFgJIkSVsoQCRySVLPfk1MsHKDK3YwkRKXkNJOLIPrfuD/CLyPMjuFLt4cuvh6mMefCnDs7rqkoVGnySTk3IlsD8ks5NoYunjMotkfNESOZgzpjKdaH85mvUWTJCldtVrtx1mOr38McCYtWbLkBSGEw7MaX6lUWuQZLkGMMdUFgCNHjx7tLoDKnHK5/Fr6fryYkmtTzLULACVJkrbO0sTidQzwYH440MFhwEXAdgVPxWPA/xKZzAPsFLp4f5jHj8LpBdvxJbrrkoZInW1NQs5tSGoHX3f3ypKy/SH3RtofJEnS0Glra7sJxwBvkVKp9C6y+8Ou306ZMuWvnuESVKvVy1ONPYQwxQoqa+r1+mtTiznGeF2KuXYBoCRJ0lY9BbIMiAnFe4hFG6TUtvNa4GfANoVNQuAaArMZwS6hiw+G+SwLi6gV+LRwB0ANjTLbm4TcP2/skFC0LvDJ1rljf8i7uv1BkiQNuSzvFJfZMcBZ3p0w4zWVhtT06dNXAUkuiI0xTraCypoQwhsSDPs3KebaBYCSJElb8+C6gLuA36cTMAfH9Lbazv6L9XG8jMAyijn2dzWBLwAvDfM4MMyjK5zCw54VAO4AqCFSZ7RJyLlyQjt8BR60YPYHDWmNxyYUrf1BkqQ8PH7U6+dmOb4sLrTL+vhfYKFntvQUPYnGvf/FF1+8s+VTxqQ2mnrtiBEjrk8x0S4AlCRJ2lqBSxKKdjyzealFGzhxDjtRYwkwvmCH/kciH+EBXhzmcXLo4ibPhqefHC4A1JC92bvAJ+9qCS0wr3O/BcvUc6r9If81HpdQrPYHSZJyIOtjgEMIbVkbAxxCmEF2fyh6bUtLy988s6WnXLOpLgAM5XL5rVZQWbFs2bK9gd1TijnGuGLixInVFPPtAkBJkqStfhpMagEgwMEWbYBKfxKjqPMzYO/CHHTgF0Ta6OI1YT5nh0Vs9Ex41ly5AFBDdR9yxGf+pbTA5y7LlSn2h/w/b6S0QNj+IElSfmR2ZGyMcVTWxgD3LwDM5uNkCI7/lf7ZcmBDorE7BliZUavV3pRazCGEq1LNtwsAJUmStta2XA6sTybeyCEWbYCs5XSKsaCyDpxLnQPDPN4W5tMdIHoCPK9GU5Az1Yye9+7wVQQvTCjWYi7wKWX2vmh/sD9k6X7lAkBJkvIj0yNjszQGeNmyZS8EMrsAolaruQBQeprm5ua1wGUpxh5CmBxjDFZRGbkfH5Zg2Fenmm8XAEqSJG3tC9W3WAdckVDI7gA4EC8uHZwAfLgAh7qMEgeGLt4TFnCNld8sLgDMmzr1jMa1ncXJvT3TuUFyZzEfDDLaH4L9wf6QqfPxTsslSVI+9I+MvS7DIU698MILM7Ebdm9v77uAckbzdE3/SGdJT399CWFpinHHGHdbunTp66ygMiK5HQAbGhrcAVCSJKngfp5QrPvHkxhlybbiJbqD1wHfzPlhrqTEYaGLyWFupj/QzS5HAOdPU2YX+Iy1ODlXYveEYr27kDXK6gLhaH/I/4NpQv2BgvYHSZLy+hgSY5Z3jhs5cuTItky8smd4/C8ZHuUsZUAl4f58pOXTcFuyZMkLgH0Tu3ZunjRpUrLTC1wAKEmSNCBPhUltB9/IOvwF2JaW+mhGAj8AmnJ6iPcBc9iVg8NcfmXFt0KdESYhZ3ozO+LzBRYn988ZeyQTa62gIz7LGe0P0f6QeyGh/uAIYEmS8vUYEkKmF49lYQzwxRdfvDMZ3v2oXq+f55ksPbPm5uY/ArcnGv47raAy8JxwGBASi3lFyjl3AaAkSdJAeJCVwGPJxFvnIIu2hUbwReCVOT26/6WRl4Uu5oXOjO5klNTbIjuYhJzJ7ohPF/jkXzoLfMoFHfFZtz/I/rAJ14kjgCVJyhHHAG/C61G5nNnxvzHGlY7/lZ5XT6Jxv6Knp+fllk/DKYQwOcGYL0055y4AlCRJGoiHwkVsBNL5ZUhkglXbgrR1cBiRj+fw0NYQOSJ08cFwKvdZ6QHjAsDcNXtqGe3pO1mcHN97jme7pPpJb7K/jt86pYz2B+wPue4PJzIaEhrzvK6g/UGSpDw/j2R8DHBTU9PU4Qwgy+N/s76Do5SR6yTVBYDEGN0FUMOtNbWAq9XqpSkn3AWAkiRJAyedMcDBBYCb/cLctwDj+7l7ho5cSI1Xhfn8zCoPuHGmIGdKrM9oZO7wlWc1XpJQtA+EM3nE/mB/0BDpTao/3BvOYa1FkyQpX7K+iGw4F+BdfPHFO8cYD8toamJDQ4Pjf6Xne9UvlS4BqinGHmM80gpquFQqlVcCeyUW9uqpU6f+Jeme5aknSZI0QAKXJxTt3vEExlu0zVDl68DeOTqijcBJzOfIcAb3W+CBFU9kBLCtmciZdazLaGTbx6MZaYFya5+EYr2tsFXamNn+MKb/nqQ8qiXUH0KB+4MkSTnWPwb42gyH2DZcY4DL5fJRZHT8L7By0qRJN3sGS89t8uTJD0FS3/v84xUshNdfcskle1pFDZOpqQUcY1yeetJdAChJkjRQHuMqoDeV9z+qHGTRNvHBfxavB2bn6JBWA4eHLr4dIFrhQbDB8b+59BLWkdVrpskxn7lVT2oB4N8LW6c9M7sAENa5C2BuBfuDJEnKwCNJtncBHM4xwJkd/5vx0c1S1nrcT1INvVaruQughuu6aUsw5ktTz7sLACVJkgbq4fAc1hK4JpmA644B3hQRAiVOydGz80pKTAhdrLC6g2pHU5DDPt9JHdiQ0Z7uAp/cnngJLfCJxd3hK3RSpW933expsD/kmP1BkiQNu1qt5hjgp6lUKrsAmR3/WyqVHP8rbaJSqXQh6f6IfqYV1FC75JJLxsQY35Bg6Jcm3688/SRJkgZQ5LKEngTdAXBTtPM+4NCcHM0FbMvhYS6rLOyg94IXm4TcyuYuX2VeaGlyyx2+7A9be0+yP9gfssAFgJIk5VRbW9tNOAb4KUIIR5Hd7+F/09zcfItnrrRpJk+e/PcY4zWJhv+G7u7ul1lFDaVqtToFaEws7DtaWlr+lnruXQAoDYaRlE3Cpr4F0WQSJOXMlclEGt0B8HlT1EEjgS/k5HAW8AAzw7cyPKIwX884+5iE3Ho0oz19D0uTW/smFOtN9ocMqtsf7A+ZeDa6yXJJkpRrCzMc25CPAY4xHpXZx7Jsj2yWMqlUKv001dhDCO+3ghric641wbCX5aJXefpJg2Aj25mETX0LYrRJkJQrVa5OKNqd4hz2smjPeZ9qB/bOwZF8gy46wiJqFnXIzp2XmoTcejCjcbnAJ4+tZBYvBHZKJuAyf7U/ZFCwP+SyP3SwC7BjQs9Gf7VqkiTlV71ez/RI2aEcA5z18b9Zr5VkjxtwH4wxBquoobBy5cpGYHpqcccYl+Qh/y4AlAZDg+N1NsPOpkBSnoQzWQ3cns6bq2OAn/WB/0RGEPh/6Z+U/Hfo4tMBolUd0ry7ADC/tX0wm03LBT65VOY1CUVbZ1TBd/iKLgDUkJ5vKfWHGg9ws0WTJCm/+scAZ3lEZtuSJUuGZEOKjI//vbq1tfVWz1hp87S2tv4ZuC7R8Pfq7u4+3CpqKNxzzz2TSenHin16GxoaluYh/y4AlAZDnZeZhE1mriTlUTq7AAbHAD+r9XwI2DXpY4icEubxKYs5LBwBnFeRBzLaz13gk8/zLaUFPrcXfsx8KaP9wQXC+RSS6g+3hkVstGiSJOVelkfLjgwhtA3J43eMM6yRlEs/TjXwUqn0IcunoRBCeE+CYV82efLkh/KQfxcASoPjYFOwCS9Bc9gJeLGZkJRD6SwAjC4AfMa0dFIi8MnED+Mc5vMxqzkM58/RjMRxrDkusCOANaTnW0oLfBzvaX/Q0LI/SJKkTAkhLCTDEyiGYgxw//jfN2b1jaVWqzn+V9ryHvIj0p2yc9TixYu3sYoaTMuXLx8JvD3Ba/vivNTABYDS4HhrhGAankeNt2KeJOVRKaEFgPC6OIOyRXuaVUwD9k02/silPMAsx/4OkwZe67tWrnv8AxmNbHffQXIouMAnsftvVvvDHvaHXHpNQteG/UGSpAJobm6+Bbg2wyEO+hjg/t3/MvmZUAhhxdSpU2/zTJW2uMfdHmP8daLhj25sbHyHVdRg2rBhw1RgTGpxV6tVFwBKek4vop1DTcPzvW3wbpMgKZdKrARqiUS7HePYz6L90z1qVsLR30gD73TM2rD2gENMQo5F7s5oZCOZwwssUI5OtRMZAbwioXvnDfb/zPaHUXyEHb2qctQf+nYbfrn9QZIkZdDCDMc26GOAQwhHZfXg6/W643+lrXdOwrEfY/k0mGKMKY7//evUqVP/kpcauABQGryrq90kPMcN4Bh2BdrMhKQ8CqfxKPCndAJ2DPBT7lEd7AK0Jhr+WiJHhdMzuwNRURxsCvLcJLgzw7HtaYFyZAOvBUYk9DzxB/tDhvtD2f6QKyM4AGhKKGL7gyRJBdHQ0JDpEbODOQZ46dKlu5Lh8b9Zr42UxGt/jD8C1iYa/luXLl26j1XUYLjwwgu3L5VKUxMM/eI81cEFgNKgPQHw/ngsLzIRz/YWyKdI68NqSdrc+8DVCcXqAsCn+gDQkGTkgePDfK63hMPOHQDzrJThBT4p7QalTZHWYuKyC3wyvQAw2B9ydq4dnFS0G/mjRZMkqRgmTZp0c4xxZWYfi0NoXb58+XaD8c+u1WpHkd3v3q+aPHny3z1Dpa3T1tb2MHBuouGHWq3WYRU1GJqamo6IMY5K7qIIIVe747oAUBo8jTTwddPwz2I7+wLHmQlJuVZKaAEgHGTBnuJdad5g+UGYxw8s3zCX4Xh2BvYyE3kucqZ3AHyFBcqVlBb4rA6ncp/Pf5leAGh/sD8Ml9vD2TxoySRJKo4sf5keYxy1fv36aYP0j5+Z4bIs9MyUBqyPLEi4P39k+fLlI62iBsFHEoz59ilTplyZpyK4AFAa1CcAZsbZTDcRT0pJJyUCc0lplJUkbZkVCcX66ngSoywZxFnsDknuiHgfgU9YwQyouvtfAazJcGz7WZ5cSWeBj+N/H8/DmgzHZn+wPwzXufd7yyVJUsEei/sWAMYMxzfgY4AXL168Wwjh0IweciyXyxd4ZkoDo7W19Urgd4mGP379+vXvsYoaSMuWLds7hPCWBJ9XfhxCiHmqhQsApUF/rOas2MGeJqLfaj4HTDQRknJvF64H1iYSbQPreJ1FA0ocAYQEnzc+Hbq41wJmwttMQc7tyj1ANaPRucNXXl4jP8ILgL0TCtkFgAB17gZqGX1WsD/kpT/MYSfgxfYHSZKUVc3NzbfEGK/JcIhtS5YsGT2Q/8DGxsYZZPR79xjjrx3/Kw24s1INPITwiRhjsIQaKL29ve2kufbs3LzVwgWA0uAbD3THY9mh6ImI7XwQ+JynhKQiCJ1UgWuSCbjuGOC+wiW4eCtyNfPT/cAhh6aZgkL099UZDe8lcQZNVikHGnkjaS1I/51Fg9BFL9ndJdT+kBeRwxKL2P4gSVIRn40zPAYYGBlCaBvQR7QYj8pwLc7zjJQG3DnA+kRjf1WlUpliCTUQFi5c2BRCODrB0P/W3Nx8Td7q4QJAaWjsR5ll8Xh2LmoCYjtHEziTFHdVkqQtl84Y4Jjk2NuBTUEnJSKHJ/hE//mQ4bEqBXveeSWwl5kohFszGlcDY9nH8uShofDWxOJdadEy3x8a2YGXWh77g/1BkiQNhSKNAV6yZMnuWR7/W6/XXQAoDbCWlpb7gWRHa4cQPmEVNRBGjx79HkhyDcy5eayHCwCloXMAVX4d24u1w1LspCF28NX+xX8NngaSCiUmtAAwuACQNbyavp17U7IyzGOJF1tm3q7c/a84bsvweeiYzzwISS3weZhd+YtFe6J22e0PdftDTqS0Y/X9dHGzJZMkqXiam5tvgez+ECCE0Lp8+fLtBuQ1vFR6Fxke/9vW1naHZ6Q0KNfX/ITDn9zT03OwVdQAOCnFoGu1mgsAJW21FxO4IrbzuXg0I3P/4NPOa1nD5cBncOc/SUXUyNUJRbt3PCG5xW8DLb0X3sBXvdAyZaopKIiY4QU+kVdaoMRPr76d4/dLKOTrQid1K5dAf8D+kPzpdQy7Ai9P6Hq4xp2qJUkq8LNLjIsyHNuo9evXD9QPOWdmuAwLPROlwdHS0vJL4K8JH8LnrKK2Rnd399uA1yYY+rVTp079Qx5r4gJAaeg1Efg8TfwpttMeT2RE7l7qjuNlcTZnEVhJ5BBLLqmowmncDqxOJVyqxdql9p/UOSCxiO8istgrLSPPP8eyA5FDzURRGnymF/j4/J26GhNJ6wdUjvdMpT8E+0PyGhMb/1uyP0iSVGSlUuk8cj4GeMmSJbtDZj8Pqler1fM9E6VB6yExxjg31fhjjG3d3d0HWUlthU8neu6fkdtnL89Jadi8mEAXG1gdO5gbZzM9djAmySYJIbbzytjBv8QOLqfGDUSOBsqWWZIS2gWwXvAxwCGxBYCBc0IXvV5iGVFmBtBgIgrjpgzHdmic4XN40mJiC3yiC3wS6g9viJ1+Fmh/GFL2B0mSCqwIY4BLpdJRZPcHXL+ePn36Ks9EafA0NDScATySavwhhM9bRW2J7u7uQ0MIUxI859eNHDny/3Lbkzw1pWG3AzCbyGyA2MHtwM3Ao8BjGY99HDAeeBmwjaWUpGe0AnhHEpGWirsDYOz7oO7Vab2p8H0vr0z5sCkokCp/zvDb9BjG8xrgOguV7P2oLbGgV1i5J6nx5wwvsRvDKl4D/NZCJdgfOimxmtbEnlftD5IkFf0ZJsZFIYSDMhrb42OAf7wV/5jMjv8NITj+VxpkkydPfqhSqZwJfCzRQ2itVCqTWlpalllNbeY95uREQz9/4sSJD+a1Li4AlLJnj/4/kqR8SOdLr8jBha1SBzuT1mL2W8Jc/ujllZFLp519cexqoYQzWR07eBgYnckA67wRFwCmqZ0DgV0TiviOsIBbLNyTLGAVHTwKbJfJ+AJvxAWAabqDCZTYOaGIbwpzcccZSZK0CPgvMrpLXv8Y4C1aANjT07NHjDGrnwfVN27ceIGnnzT4GhoavlutVj9KupPxvhZjPCiEEK2mNkV3d/ehQHOKsdfr9TPyXBvHfkiSJA2mKiuBWiLRviDOYa9C1iny4sQiXuLFlSGBj5DdcS8aPH/J8Dn5JsuTbD+Znli8v7RoT08JMdP9AftDskqJ9Qe4zKJJkqTW1tZbgd9kOMS2JUuWbNGP++r1+gyy+3nQFY7/lYbGpEmTbg4h/CzhQ3h9T0/Pe62kNlUI4espxh1jvLmlpSXXn2W6AFCSJGkwH4TP5BHghmQCrhd2DHBqCwC7vboy8tI4gzLwQTNRSDdm98TkMMuTrGlpNUEut2SJ9QfsD/aHIesPV1gySZIEEEJYlOHwRoYQpm7hcR2V4Zyf55knDan/Tjz+ry5evHgby6jn093dfSTpfra0IO87XboAUJIkabDFhMYAByYUskYhqXFqkY38ygsrI3ZgMrCbiSikLC/w2TV28BJLlNjjwvHsAbw2qaDr7vCVYH/YLR7H3pYosf5wLC8CXmN/kCRJiTqXvp2yM6lUKs3Y3P9OT0/PHkBmx/+GEM73tJOGTnNz869DCCnvLLZnY2PjZ62knsvKlSsbQwhfSzT8DY2NjWfmvUYuAJQkSRr8J66rk4k1FnQBIOyYUKy3hrN50AsrI+ocaxIKKvKHTMcXONwiJabKEaQ1TvweFmR6odtw+kPGzzX7Q3rvE+9ILOLV4Qz+ZuEkSRJAc3Pz7WR7DHDL8uXLt9uc/0LWx/9OmTJltWeeNLRCCF9J/BA+uXTp0n2spJ7NPffccyKwb6LhnzNp0qS78l4jFwBKkiQNvhUJxfq6/pGmBXs7Z3xC0V7nJZUNcQ67EZL7Ql4Dpc7vsn2C8naLlJz3JnbvXB4yvIuH/eE5lOwPCT6rJtcfLJokSXrK40GGxwDHGEetX79++mY9Um/BroFDaJFnnDT0pkyZsjTGuDLhQxhRr9e/ayX1TJYsWbJ7COHziYYfgW8XoU4uAJQkSRpsu3A9sDaRaLdjHPsVrkaRHRKK9vdeVJk5bzqABhNRUGfwd8j0bpxTYgfbWKhE2skc9gIOTSroOt1W7lks4FbgoQzfv5rtDwn1h76R7qnt0l2xcpIk6cmq1eoicjIG+JJLLtkzxnhwZt/UwPG/0vD5auLxt3R3d3/AMuoZ7pPfAbZLNPylLS0t1xeiTp6qkiRJgyt0UgWuSSfgAo4BDoxIJtbIbV5VGShDB41EZpmJAvf2vi8usrzL1zZEmq1UImq8l7TG/0YCPRbuOfpDyPSC/W2AKVYqmRMqtf5QJ7DUwkmSpCebOnXqbcDVGQ6x5cILL9x+U/6D1Wr1qKw+n4UQLm9paVnjGScNjxUrVvyUxH/AH0L4dk9Pz05WU4/r6emZDrwz4UP4dlFq5QJASZKkIXr3SybSyEGFq06kKaEn+Nu9nDJxzrwL2NVEFF62x3wGjrREiUhtvCdcF7rwS6Xnvk/8LuMRvsMiJXMuvSexeFeGudxt4SQ9w/OOu6dLyvQY4Kampmmb1M5CeHdWj6Nery/0NJOGT2dnZz3G2Jn4YYyPMZ5iNQWwfPnysTHG0xI+hOubm5sL8yNmFwBKkiQNhZDpX7g+XfF2AExpAWBklRdUJq7p40yCCPw24xFOjR00WqiMt/U5vAp4dWJhO94z/f4wLXa6ECPz/WE2+wOvTCrokv1B0rMaaQqkYqvVaueR+Bjgiy+++EWQ2R9P1+r1+gWeadLwamlp+SlwbeKHMbOnp+fdVlPr16//HrB7wofwPyGEWJR6uQBQkiRpKJQT2gEQXhVPYpRFy6hG7jEJwyt28GrgcDMhsr+76w4Ez9XMq/GRBKPutnDPI2S+P4znDvtDAlLsDy4AlPQsL1IuAJSKLg9jgMvlcmbH/wKXT5069U7PNGmYPw4IIYYQTk7+0S3G03t6evawosXV3d19ZAjh/Qkfwt9GjBhxTpFq5gJASZKkoXjpO43bgdWJhNvIOl5XrAKxLplYexOKNb/ny8dNggDYhRuBhzMdY3QMcKbLcyIjCHwosbDv4gGutHrP4z5uAB7J+P3sHRYqw/3haEYS+WBiYa9hl6R++CRpKJVcACgJSH8M8IwMx7/I00vKhubm5osg+XejcTHG73d2drqmqIB6enr2CCHMT/wwvjhx4sRqsV65JEmSNFTSGQNcz+woi8HyWDKR7sp6L6XhE49jbyIfMBMCCJ3Ugd9kPMyj4oyExpwXzUbeCeyYWNQXhEXULN7z9Ie+HK3MdpDMcEx4ho3gKGCHxKI+v//eKEnP8DLlAkBJaY8B7h//OyGrqW1sbDzfM0zK0KNPjJ/JwWFMPPTQQz9tNYtl+fLlDTHG/wPGJ3wYf3744Yd/WLTauQBQkiRp6KTzi6+Y2Q+zBksqu+pt8EvVYVbls0CDiVBCvf2F7MDbLVNG1elIMGp3lchPf9iZwHTLlNnn8fbkYg72B0nPaYwpkDR16tTbQghZfk5+1jHADQ0NM8ju+N/LJk2adJdnmJQdra2tlwIXJf9qGuMXu7u732JFi2PDhg2fBw5L/DC+MHPmzML9gNkFgJIkSUMnnQWAoWALANMZAezz+zCKc9grwVGdGvz+kf3dXdNcZJb/ntLOvgTenFjYd/EAl1m9TS1yErs/2x+yeOp08HLgTYmFvYZduMLqSXoOu5oCSQD1ej3JMcAxxpkZTutCzywpe0IInwJSH0HaEEL48eLFi3ezovnX3d39diD13Sv/dNVVV/24iPXzC0RJkqShUmUlJDMyb+94QtLbe2+emMwCwEZH9Q2jOv8J5l9P08AVkPGdOQNvix28xGJlTInjye7uEc/G8b+b9+yX/f4QmRxn8WKLlbm6pNgfHP8r6fmMi0c7BlgSNDQ0JDcGuLu7ey/gwIyGXGtoaPiJZ5aUPc3NzTcCZ+fgUF7Y2Nj4fytXrvSz8Ry75JJLXhFCOIfE15HFGDs7OzsL+fmECwAlSZKGSDiTR4AbUgmXKgcVpjjpLAAE2MaraRhOkdkcCBxtJvRPzfJU7gN+l8C7/yyrlaGecgLjiQnWpOSuEpvVH87iHuAPma9qyf6Qqf7QwY4Ejkku8Lr9QcqY3kxG1cAulkbS5MmT/57gGODMjv+NMf7S8b9Shl+6S6WTgUdzcCiH33vvvXOtaD4tX758bK1W+ykwOvFDuaKlpeW8wvYbT2VJkqQhFBMaA1wv1Bjgx5KJtIFRXkhDfdkSiHzX9yc9q8DPE4jyaHcQzZBePgpsm1jUt7Cz43+34CaSQn/4iP0hU1LsDzexwPG/UsaeT9dn9H3WMcCSgCTHADv+V9IWmTJlyuoY41dycjjHVCqVf7Oq+bJw4cKm9evXnwvsm/rjRalUOimEEItaS7/AkiRJGtqnr6sTirU4OwAGHkkm1iov8EIaYh18CDjUROhZ1flFAlHuTOTtFmv4xQ62oW+BT2KBc7bjPbfoGSOF/rALkWkWKwOX2QfZNsn+AGeFDI/xk4rZUNiQ0bj2tTiSIK0xwD09PS8OIbw+o6HWSqWS43+lrD+axfhN4G85OZyvVCqVmVY1HxYuXFgeM2bMj0MIU3JwOGdMmTJlZZHr6QJASZKkoZXODoCxUDsA3pVQXV7kZTSE6T6ascDXzISeUyOXk9Uxa08WOMFiZcIsYMfEYq5T5/uWbgtUucz+oE02klnA+MSirtHADyyelLm+ns0dAOu8yuJIgr4xwMBVGQ7xiTHA9Xr9KDI6/he4tLm5+W7PKCnb2traNoQQTsrJ4ZSAc7q7u5utbNpijGH06NFdMcYjc3A4D4YQ/qPoNXUBoCRJ0lDaheuBtYlEu1Ocw16FqEudO5OJNRSkJlkxgu8BO5sIPedleRqPErg8gVAnxlkcYsWGTzyREcAn0gucn4czuM0KbkF/OJNHiPwqgVDfFucU6scf2bvMjmYkgY+nd5KzLJzG7VZQytw77vqMRvZqiyPpiceIEFIZAzwzw3Eu8kyS0tDc3HxRCGFJTg6nKYRwQaVSeZOVTVOMMfT09JwGHJOTZ4ovuCDeBYCSJElD+xDaSRW4JpmA6wUZA1xOagGgOwAO1UtwOzOJvN9MaBP9NJFPAf7dUg2jDfwLsGdycZc4y+IVoD/U7Q/DqinR/oD9QcrovTubI4CDCwAlPUXWxwDP7unpOSbD43+rMcYLPI2kdJTL5RNJZ4OI57MNsLinp+dgK5uWzs7OUk9PzwJgTk4O6Ybx48d/z8q6AFCSJGk4pDMGOBRkJ5jIqoRifY2X0BCk+Rh2JXCamdBmXJsXkuEvLp5kepxlHxmWU+QExgOfTTD0u2jCL5W2RpkLE4n0iDjH0YzD0h862BGSXIB5J/fzEysoZVB2dwDcOR7DrhZIEkBzc/PtZHgMcIzxzTHGM8jw+N+2trZ7PJOkdEyaNOnmGOPncnRIY2KMl/T09BxuddOwfPnyhkMOOeRscrLzH1CPMXYceOCBvVbXBYCSJElDL3B1MrHGYiwADF08BNyXSLgHxex+8JgLsZMSjZwJjDcb2ow+8nfguiTuQmW+bMWGQZX/BMYmGPnp4ZSM7iKUSn+Yy63Ab5PoD3X7wzBJsz9ETg+L2Gj5pEx29PWZja2Rt1ogSU+0qwyPAU7AQlMgpWfFihXfBq7M0SFtH2Ps7u7ubra62bZ8+fLtNmzY8FPggzk6rFNaW1uvsLp9XAAoSZI01MoJ7QAIr4szKBeiLpGbEol0HO3s44U0iNZwMhE/sNCW+Gki/W5a7GCi5RrClB/LS4kcl2DoG6gz1woWqD/A22M7b7ZcQ9gfZrMPJNkf1lO2P0iZvkaz+yw6yfJIepJMjwHOsGpvb687MUsJ6uzsrMcY5wB52rFsmxDChd3d3e+1wtm0dOnSXTds2HAZMDVHh3VLCOH/Wd1/cAGgJEnSEAuncTuwOpFwt2Mc+xWjMNycUKyHeiUNjjibI4j8p5nQFikn9Ov7wDdip58JDOG58U2gKcF744/CAu6ygAPi3KT6g7sND6VvAo0Jxv2jMJe7LZ+UWQ9lOLa3WR5Jj8v6GOAMWz59+vR7TYOUptbW1t/HGL+Ss8MaEUL4YXd3939Y4WypVCqvq9frVwIH5OiwYoyxvbm5ea0V/gc/7JckSRoe6YwBDsUYAwzcmM6rDdO8hAYhrR28nMgPcNGDtrRdns6fIZFdXiOvZzXHWLUhSHU77wemJxr+t63gAPWHLm4EfpNIuAfRzkes2hD0h9l8INnnusB3rKCUaVleFLJ7bOeVlkjSkzjK1pxJhTNy5MgvQVLTojbpTTGE8MVKpXLWkiVLRljl4dfd3X008Ctgz5wd2hmtra0/t8JP5QJASZKk4ZHOi13koEJUJPCHhGJtiUcz0stoAE/zY9kB+Akw2mxoK3vmDxKK9utxFi+0aIN4OhzPzskukolcEubxO6s4oPfvcxKK9RtxDjtZtEHuD9H+IGnQ+vg9GY/P8XCS/tESQjgfxwBvjmpvb+9PTYOUtokTJ1ZLpdIHgTzuYHZ0qVS67JJLLtnTSg+PJUuWjKhUKqeFEM6C3H2XdEe5XP6kVf5nLgCUJEkaHin9sqsYOwBW+X1C0W7HCCZ7GQ2MeBKjKHMh8HKzoa1W58fAhkSiHUfgWxZtUO8t3wPGJxl7iS9ZwAG2kR8DvYlEuwORb1q0Qe0PpwI72B8kDdIz6T0Zj/ADsdPvpyT16R8DfKWZ2GQ/d/yvlA9Tpkz5awjh4zk9vAm1Wu3a7u7uZis9tJYsWbJfqVS6Ejguj286IYQPT548+SEr/c98wZIkSRoOVVYC9USifVU8iVG5r8ke3Exav7b7gBfS1osdNLKW84HDzIYGQjiD+wksSSdg3htnc4SVG4T+0s57gHclGv7yMI/LrOIAX25ncQ/Qnc5JzPvj7GTHV2c7tbN5L/BO+4OkQVPmzoxH+CJW8SYLJelJFpmCTXyWjNFcSTnS3NzcBVyY08MbH0JYUqlUvrZw4cImqz24Ojs7S93d3R8vlUrXAgfk9DC/3Nzc/Aur/cxcAChJkjQMwpk8AvwpkXAbeTS3Lwv/qEkndWBlMgFHjoxz2M2raWtSSCBwFtBqNjTATk/sYlhgPxnglM5mH0Ji58GTlfiCVRysB47k+sOZ8Rh2tXADmNJ29iUm3B/gi1ZRSuIt/u8JRHmMhZL0uHq9fh6OAd4UvY2NjT81DVK+VKvVjwC35PTwSsC/jR49+uqenp5XWe3BUalUXnnIIYf8MoTwP8CInB7mpSNGjPAzy+e52CRJkjQ8rk4m0lCQMcBpjRtppM5sL6MtEzsp0c58Iu83Gxpw81gG3JhQxDsS+YFj2AaovxzPdkQuAMYmegiXhblcaiUHrT/0AH9Nqj808H37wwD2h8AFwJgkDyBweehiuZWUErhcT+Fh4IGM95T3xjnsZbUkAbS1td2BY4A3xS8mTZp0n2mQ8mXatGkPhBBmAOtzfJj7xxh/093d/e8rV65stOoDY+HChaMqlcqXgGvJ95Sj2+r1+syJEydWrfqz88M7SZKk4RJYkUyssSALAGNyHzTOjseznRfTZpa5kwZWcw6BY82GBqe9E4FTE+t/b2UV/2H1tjaNBKosANL9RXOJk63kIPeHmFh/gEms4bNWbwD6Q40zgFcmfBD2Byktt2U8vkbqfNoySXqShabged4nQjBHUk41NzdfE2P815wf5sgQwlfuvffe67q7uw+z6lvxeh5jqFQqM7fffvs/Av8PyPOI5ceAd7a1td1j5Z+bCwAlSZKGTzoLAAMHFaIigV8D9YQi3okqn/BS2owX4xk0sYaFwPvMhgZVle8DDyfWAztjO0davK3QwceBdyd8H7zI3f+GJM9nA4+mdQPl83E2R1i8rdDOJ4jMTPgILnb3Pyk5NycQ4zGOmpf0uHq9fj5pfS431HpjjD81DVJ+tba2zgPOKcChvjKEcFmlUjmjUqnsYuU3T3d392E9PT1XAueGEPbO+eHWYozvbWlpudbKPz8XAEqSJA2XXbgeWJtItC+JJzA+7yUJXdwL/DaxsD8Zj2dnL6jnF09kNDvwM6ILnDQE/eRMHgHOSC1sAj+IHbzaCm5Bj+lbPPm1hA+hSs1deIboeeMh4MzEwi4ROSfOSXh3y+HsD7N5J4GvJt0fgv1BStCNCcQ4gga+ZKkkQd8Y4BijY4Cf3c9bWlruNw1Svj388MOzgasLcKgBOAb4S09Pz8k9PT3bWv3ntnTp0jdWKpUlIYTLgYOLcMwhhONbW1t/ZvU3jQsAJUmShuvBtZMqcE0yL2PVguwCCMsSi3c7ev3C5PnEWbyYDfyKSLPZ0BC+cf8PsCG5ngIXxePZwwJuRo+ZTQuBHwMN6T6Y0BUWcIPVHCIN/DewMbGot6fORXEWu1vAzegP7bQS+VHS/SGyIMzjT1ZTSu7ensp9/ejYzpstmCSAEMIis/CsHP8rFcDMmTPXAe8A7ijIIW8XY+yMMf6lUql8dOHChaM8C56qu7v7bd3d3T+v1+tXAK1FOe4Y42ebm5u7PAM2nQsAJUmShlc6Y4DrTCjGWwWXJBdz4Jg4mxYvp2cpaQeHUWIFuGuRhvjSnMsq0tvlC2BPqiyNHexoFTehx7TzZiIXAE0JH8bDBD5vNYewP5zG7QS+n2DoL6JEj/1hE/vDHN5C4PzE+8MjRDqtppSgWjILAAOBufFERlg0SfQtcnMM8D/rBS40DVIxtLS0rKnX628nnQlSA2FX4JTRo0ff1t3d3bl8+fKxRT4Hli9fPrJSqXyoUqn8LoSwLITw1oKl4OTW1tav2g02jwsAJUmShlNIaCv3UkF2AHyQy4CHkjuTImfEY9nBi+qpYgez6NvV8QVmQ8PUO79O3wf1qXk50B1PZLRFfM4eczCBxUDqv07+UpjL3VZ0yPvD14BqgpHvByyxPzxPf5jFIdT5WfL9IfDlsIC7rKiU5H3mhoTuMy9nA5+zaJJaWlrWOAb4GS1z/K9ULG1tbdfFGD9C8RZFvyCEcPKGDRtuqVQq36tUKvsX5nOEGENPT88bKpXK9zZs2HAn8H3gNQU8/U9uaWn5gl1gS14BJUmSNHzKCe0AGIuxA2BYxEYCFyUY+q6U6YoQvLAgnsjo2M7/AfPBnSQ0jD1lLrcC5yQa/oFsYJmLi5+lz/TtvHoJsH3ih/IH4NtWdBj6w+ncTOT/Eg3/INZzif3hWfpDO62UWJqD/vBHIt+0olKi95kuHgOuTyjkz8TZTLdykhwD/AzPlzE6/lcqoNbW1kXAJwp6+GOBE4DfViqVFZVKZU5PT89OOezvYcmSJQdUKpWv9fT03Bxj/FX/cY8pYM3rwEdd/LflXAAoSZI0jMJp3A6sTiTcneIc9irIa8ZPEo38XXRwctGvqziL17OBawi81y6jjLx5fw54LNHoD6LMFfEYdrWQT+ozHcwi8jPSX9xTJzIndCW5S2U+lDkZWJ/mgywTKHO5/eEZ+kPgwhz0h0iJE+0PUvJX8sqknpojP4yzeIWFk4qtt7f3PBwD/GQba7Wa43+lgmppafk28PWCp2ECcHqMcXWlUvllpVL5WHd3916pHszixYt37O7ufk+lUjmrp6dnValUuhb4NyjI92/PbH0I4X0tLS2netVvzQuVJEmShls6Y4DrBRkDHOgGHk00+s/F2cVc+BY7aIwdfJYSvwZeamtRZlrKXFYB3034EF5BA5fGY72uYiel2MF/07e7aGMODmlBmM+vvUqHtT/cSuB7CR/CfjSwPHbwEvsDpdjO/+SoP5wR5nKpV6mU/LvtbxKLeHtKLIonMN7iScU1ffr0VeB7yhOtPIRl06ZNe8BMSMXV3Nz8GdKdMDKQysDhwLdDCLd0d3ffVKlUzuju7v5AT0/PHlkMuLOzs9TT0/OqSqUyq6enZ0GlUvljY2PjXSGEHwFHA7tYVu6s1+sTm5ubzzUVW6fBFEiSJA27FcA7kog0MAHI/RiO0MVjsYOfAB9MMXwiZ8Z27g/z6SnKRRQ7OBjoAl5jS1FGfQ04FnhBovHvQ5mr4hyOKuqCkHgsO7CKMwkckZNDupsyn/HSzIASX6HGRyDZxQ77AitiO+8K8/ml/SEX7qHGv3lxSnl4ueVyYnJRv5Jefh47mBS6uNciSsUUY1wUQjjMTADg+F+p6I90IcSVK1cee++99+4ATDUjT+Rlb2DvEMIxMUYqlco9wG+B62KMvy2VSn+JMd7S0tJy/2DHsmzZsvG9vb27hRD2CSG8PMa4H/By4GUxxm37720W7Z9dG0J4R1tb2+2mAlauXNm4Zs2aMY2NjWNLpdLYer0+NsY4Dri1tbX1eX/c5QJASZKk4Vbn6mT2ZY5MKExdIj8kJLkAEGAkgQvjbN4d5pHrESHxGLanzJeBE8jeDueXESkTeKONTqGLh2IHXwBOSfgwxlOnJ7bz0TCf+UWqX5zNZCJnAbvl56TkhHA67iKRhVKczgOxgy8B30q6PwSWxtkcH+ZxRqH6QwdTgLMgR6OQIx8NZ3C/V6eUA/O4gQ7uBHZOLPL9gV/EOUwKc7nbQkrFU61Wz29sbPwWTrPb2NTU5PhfSRx44IG9y5cvP2rDhg0/AyabkWf0gv7cTA4hPLHgrlKpPATcDNwO3BdjvC+EcG+M8V7gYYBSqbQ+xrju8X9QqVQq1Wq1MQChz9gY47gY49j+vx4L7BRC2C2EsGe1Wh0VQuh7pXah36Y6tV6vf6KtrW1DXg5o4cKFTWPGjBkbQhhTq9WeWMRXKpXG9Z8zYx4/f0IIY+v1+pgQwhPn1L333rttY2PfUIl6vU7/+QfwX4ALACVJkjKvzm8oUSeND7ReF2dQDouo5b4uD7KMcawm3S9zRxA5L7ZzdJjPD/NWnthBI5F2Ap8DXpjBEO9mI0fQxAfABYDqtytzWc0s+r7QTFUTga7YwVvZyHHhbB7Mc8niSYziUf6LyEeBkJsDC5wd5nGeF2WmnErfLqGvSro/RBbEdt5G4LjQxUO57w9r+Tp9P0LIT3+I/CDMd5cZKT+3fGKMLCfw3gTDfzV1Lo+zmBEW8HurKRXL9OnTV1UqlV8DRd8F8JKJEyc+6BkhCWDixInrFy9e/I7GxsaLgIlmZJONAQ7o//P4gqon/j/886K9er3+jH9/U/67el73hxBmNzc3Z+6zySVLloxoamoa29vbO7ZUKo0NIYyp1+tjn7YAdAww9ml/Hv/3tokxEmPk8UWoT16M+uTz5fG/N5DnkAsAJUmShlk4k0diB38ijS98t2Mc+wF/yH1dFlGL7cwj8PmED6OBwDmxgwPYlc+ETqqp1yVCoIOjgC8T2CfDgf57OJsHY4c9Tk/qK51U4yzmUOJXpL+LwXto4g1xNh8M87gsj/WKszmctcwl8IqcHdotNPExr8iM9YcueuMc5lDnsuT7Q98ikzfEWXwwLODyXPaHdt7MWubSN84nT25lJCd6RUo5U+ISYpILAAH2pcRVsYN/CV0ssJhSsTgGGIBzPRMkPdn06dMfW7x48bTGxsaLgbeYESWmu7e3t3369OmrBut/YOHChaPGjh07rl6vj4sxjuvffW8c8Iz/OoQwDhgHjATGVavVJxbtPXmxHjx14WcWuQBQkiQpG64mlR1fAhMowAJAABrposr/A5oSPooAfILVHByP4d3hTFaneBCxkwbW8C7gU0Ren/FwV7AbZ9vW9IwX5AKuih3MA47LweHsSeTS2M45lPlsmMuqPNQotrMvJb5G5MgcnoI14EPhlL7xJspYf5jLr2IHC4A8LB9/ESUujR2cQ5XPpvr88Yz9Ab5O4Ihc9oe6/UHKpY1cRCM1oJzoEYwC5scOJlLn42EBd1lUqRjK5fJ59Xq9yGOAN4wYMWKxZ4Kkp5s+ffpjF1544dtHjhy5OMb4ZjOiFIQQrpoyZcrUEMKzbne3ePHibUaMGDE2hDCmWq0+MUI3hPDE6Nz+RXtjn2U3vhHw1PG5T95d75n+dZ64AFCSJCkTT76sIHJMErFGDgLOKERZTuPO2MF5wPtycDiH0cD1sYP/4AHmpjLGOR7PdlQ5htX8K/DiBEKuE/ho6KRuY9Oz2shnaeIdwC65uIMFPkSdd8UO/osGvhVO49EUDySewHh6+RxwHJHGXJ57ka+G+VzhRZhhZT5DjSPI5nj7zVUCPkwD74odfI0GvpNsf+hgRyKfIzAHctof4L/yumOjVPiPG87intjO5YTkd4h5HyWmx3a+Si/fCmezPunHspMYFb7FOs9Q6dlNmTJldaVS+RXwpiIef4xxqeN/JT2bI4444pGFCxe2jhkz5rwYY5sZUQL3tUN6enp+0t3dfVf/Lnxjeer43LFA09MX7z19TO4zjWFWn5IpkCRJyoQVCcU6oWC1+RoQc3IsY4HvMY6rYztvyPTLYDsHxQ6+R5W/A98hjcV/APPCPFba0vRcwtk8SMjFDoBPti3wBar8PbbztTiH3VIJPB7PHrGDr9PLTcC/kN/FPUt5kE6vwIz3h9N5gJi7/rAd8CWq/D128NV4DLsm1R9m8w3gJgIn5rg/LOMBPucVKOX5BsNPcnIk2xP4Ck3cGDuYFTvYJqXg49GMjO0cGTtYyFpu9MSUNqF9hbCowIe/0DNA0nOZOXPmuoceeujIgvdKpeWIEEJHjHEGMBk4CNgX2Im0J3FlggsAJUmSsmAXrgfWJhLtq+JJjCpKaUIXfwAuzNlhvY7Ar2IHv4izaYl9Y4KHXZzF7rGDT8UOridwNXACMC6hvP4J+KQNTZvUW+ZxIbAgh4c2jsC/Uefm2MEP42zaYkf2FszEGZRjO62xg4VUuQn4FH2/Ns2rW2jkfans/lr4/jCfnwBn5rI/wGdo4JY4m//tvwaz2R9m0xbbWUSVm4h8Ehid41PuVuC99gcp5+qcC1RzdEQvAuYDd8QOvhlns09WA42dNMTZtMQOzqaJOwlcAMyA4nyuIm3Vs3EI50MhpyxsaGhocPyvpOc1c+bMjQ899NB7c/o5gqTN4AhgSZKkDAidVGMH1wCHJxBuI49yAPDrwhSozpcocQQZWSg3gCYSmUgHv4/wA2BR6OLvQ/U/HiEwm9cTmQZMBw5IOMfrgPeELh6zo2kz3shPospbgJfm8OiagPcReR9wX+zgPCI/YT1XhHOGZ8F77KCRwFuIHAEcCensQraVHiPyznAq93nRJaTKv9LAW4C9c9kfIu8n8H7g3tjOecBPh7U/zKCJHXjzE/0hsivFmCSzjhLvDHO514tOyvlnDgu4K86m0v/ulSfjgJOI/Gvs4CrgYkosYS6/DcO4k388lhdRYgqBZlbzNvp245e0BQo8BrgyefLkhzwDJG2KmTNn1oBjK5XK74Fv4kZgUiG5AFCSJCk7VpDGAkAITKBACwDDAq6JHZwLvCenh/ga4L+Bb8QOriRyESV+xTb8JnyLdQP1PxKPYXvKvA44iMCBwOFEdslJDj/Rv1uktOm95TQejbP5EJHLcv5+Ph6YTWA2o+iNHfwGuJTIlZT5I3O5bTC+oI0nMpoNvIbAG4m8GTiMyPaFO9EiHWE+v/WKS6w/nMkjsZ0PErgMKOf4UHckMAeY85T+AL+mxPWD2h/WsT8l3tj//F3U/jA7zOU6rzipML4PuVsA+I9PKeBQ4FDqfIkOVkVYBlxLneuo89twJo8MWjudxe4EXkuJSUSagZd7ukkDeIGHsCjG+KaiHbOVl7S5WlpavtPT07MK+EGM0d2GpYJxAaAkSVJWBK4evt+nb6bIhMLVp85nKXEkMCLXZyG8gcAbiMBaemMH1wI3ArcQuIUat1BiLWUeZAPrGcE6NhJoYiw1mqizLWW2JbI7sCeBPYA9ibwU2Jd8/vrwgtDF6TYxbdFFN48rYzv/TuAbBTnkRuAN/b2mb5BTB4/EyA0EbgBWAXcBa/r/PEaZBwHYyIM09d8pa4ykzCjqbE+N8QR2JLAbsBeBvYnsxwZeDIRk7q2D44thPj/0Sku0P8zn17GDzwL/Vbj+wDP2hzuAu7e4P0ReTIkXP9EfSgXZ4+/ZfTnM5xyvNKlAIhf299LdC3C0uwEfBj5MCSgRYwd/A/5CYDWRVQTuANZQ4y5KRMo8SC+Rxv57y+NqlAmMIzCOGuMI7AzsRd8Y4r3p+0HduP4cSxoE1Wp1Ublc/hb5/mHMk20olUoXWXlJW6K5ufm8JUuW3FEqlS4EdjIjUnG4AFCSJCkryqygmkisgYOKVp6wgFvibE4h8skCHXYjcHD/n74vMx5fvlfrf5uo0ffxa63/3y/x1C898v8FyPVs5FgbmLbKfP6HDg4E3l3QDGzfv7PsMy8urz1xn/zHX/O0vkOh+s6mWkAXJ5uGxHXxjf7+MMP+sJX9IdgfnuRMuvhP0yAV7J22i944m+8R+VoRDx/YB9jniXtBfNq9otb/17Vn+G/H/j/B80gaDlOnTr2zfwzw4QU5ZMf/StoqbW1tV/X09BwSYzwfOMCMSMXg7G9JkqSMCKdxO327maTgJfEExheuSGU+D9zu2ap+d9BAazj7aTtESJvb/yGyjmOB35sNDZDF7MpxweVO+egPDRwD/NFsaIBczK7Mtj9IBVVlPrDWREhKUJFG4i603JK2VnNz8y0jRox4AzDfbEjF4AJASZKkbFmRSJyBagF3ATyNRwmc6Gkq4AEiLf0Ld6Wt7y/nsBZ4J3Cf2dBWuhJ4T+hMZl9hbcrzR40jgfvNhrbyCf4qYKb9QSpwGziD+4l8z0xISk2tVjuPZ96jM2/W1+t1x/9KGhATJ05c39LS0gF8OISwzoxI+eYCQEmSpGxZkUyksXgLAAHCPC4ELvBULbT11DkizOd6U6EB7S9d3ESdabgri7bctdSYFrp4zFTkrD+cwd8ITANrqy12HQ32B0lAna8DjpaUlJSpU6feCfyqAIdaaWtre9iKSxpILS0tPwghHA781WxI+eUCQEmSpCypc3UysQYmFLhSs4E7PWELaSPw3rCAy02FBqW1LuAqIjOAXrOhzbSSMpPCGe4Sl9v+MI8rgZn2B23Bc/s11JgUTnWXWUn9uwAG/ttMSEpQ7scAxxgd/ytpUEyZMmXlww8/vH8I4btmQ8onFwBKkiRlSZ3fkMo4i8jBRS1T6OJe4MNA9KQtlLUEjghd/NRUaFB7zHy6gaOButnQpp00XEON5nA6D5iM3D+DXEzkI/YHbYZrqTLFxcGSnmIb/ge42URISkkBxgCvjzFebKUlDZaZM2eua25u/liM8Z3AvWZEypcSJb+0lKQMdmd7s1RQ4UweAW5MJNwXxGN5UWFr1cVS4DuetYVxH/C2MI+KqdAQ9Zj/I3ACLvLR854sXEXkbS7uKVDJ5/NDIifiDxH0/Faw0f4g6RnuJd9iHfAvZkJSSqZOnXpnCOGK3PbmELod/ytpKLS2tv6kVCrtD1xkNqT8KAHrTYMkZUyddSZBKrQVyURaLvQYYIBPA1d4yubeHQQOD10JXZvKhTCPuUSOJd87HGjrVOhlSujiIVNRsP4wn9OIzLI/6NlPEnqoMjmczYMmQ9Iztom+XWXPMxOSUhJjzO0Y4Hq97vhfSUNmypQpq1taWqaHEN4eQlhlRqT0lQh+SCxJGezOD5oEqcBCQouMQrEXAIYueoGZwBpP3Nz6HfDGMI8/mQoNS5+Zz9kE3g/0mg09zQJ2ZXr/7sEqZn84k8AHgarZ0FNEzmAXptkfJD2vJuYAq02EpFTUarXzyeePYNZv3LjR8b+Shlxzc/PipqamV8UYu3DSgJS0EnVuNg2SlCkbeAB/aSEVWzoLACMHFb1YoYs1BN4OrPXUzZ1zgDeELv5uKjSsfWYe5xI5yj6jJ+6+8B+hi/bQ6cIv+wM/InAU8JjZEBAJ/GeYzyz7g6RNuo+cyn3AR/DLXkmJyPEY4CVHHHGEP96QNCwmTpz4YGtr62zgbSGEP5gRKU0lduUOcBdAScqQG8IixzhJhbYL15POIo/XxxmUi16yMI+VBN6LY/jyYiPw0dDFh0KXCyqUkT4zn58Bh4M/FCm49UQ+GLr4sqnQk55DLqTO4biDU9FtIPLhMI8vmQpJm3Uf6WIp8HkzISkVeRwDHEJw/K+kYdfS0rL8yiuvfC3wYeBuMyKlpRQ6qQOXmQpJyoxLTYFUbP27dVyTSLjbMY79rBqEeSwGTsCdE1K3isBbQhenmgplrs90cS1VJgArzUYh3QK8Mcznh6ZC/9QfFnANJSYA15qNQrqVwGFhPueYCklbpIsvEPiJiZCUgryNAQ4hrGtqanL8r6RM6OzsrLe0tPygWq2+PITwXaDXrEhpKPU9WXCRqZCkrLzt2ZMlAYGrk4nVMcD/KFsX84ATcRFgqtfdT+jlgDCPK02GMnuanslq4M3Aj81GoVxMjQNDl4u79Bz9YS6rWMfhBNw9pFi6qfH6MM/F4ZK25lWISJkPERP6LEJSYU2dOvVO4PK8HE+9Xr944sSJj1pZSVkybdq0B5qbmz9Wq9X2iTF24fQjKfNK/f93EbDedEjSsLuDXVhuGiQBK5KJNDDBcj0pHV2cSuBjuAgwJQ8S+HCYxzvDWdxjOpRAn3ksdPFeArOBdWYk12rA5+hiejiD+02Hnrc/nMPaMI93EzjO/pB7dSInsyvT7A+SBuQechqP0kQbcL3ZkJR1eRoDHEJYZEUlZdXUqVNva21tnV0ul18NnAPUzYqUTSWAcDoPAGeZDkka7rdWvtM/ml1S0ZUTWgCICwCfLszjFCIfxu3xU7CMBl4T5vEDU6EEe01X/8jPP5mNXLqFyNtCF18MLirX5veHucDBwA1mI5dupcTbwny+4GcIkgb0/nEq91FlCnCj2ZCUZfV6/QLysRvVYyEEx/9KyrzJkyff0NLS8qF6vX4gcC7uCChlTumJv6rxX/jLYEkaTmtoZK5pkAQQTuN2YE0i4b4qnsQoq/a0Gs7nHAJvBxzhkU0PAMfTxZT+601Ks9fM5Y/AQQROw0VieRGBLqrsH+bzS9OhLe4PXfyBdRxEZK79IVf9YQFVXhPmcqnpkDQo948zWU0vhxO4xmxIyqq8jAEOIVzc3Ny81opKSkVbW9t1LS0t74kxvjSE8F3gMbMiZcMTCwDDGdxG4CumRJKG602PT4TTXCQi6SlS2QWwkUc5wHI9Q2ufR4XAYcAtZiMz6kTOoJeXhS5Od1ct5aLXdPFYmMcJ1Hkz8BczkrRVBNpCF7PDmTxiOrTV/eEc1ob5HEfgLcBfzUjSVhOZGrpotz9IGvT7x1ncQxNvJXKJ2ZCUVXkYAxxjPM9KSkpRa2vrrc3NzR+r1+t7AScDd5gVaXiVnvqUwX8BvzYtkjTkfhzm8SPTIOlp0hkDHBwD/KypmcfvaOQgYJnZGHa/ocShYT6zwlncYzqUu36zgMvZyP7A14CqGUlKDTidMq8O86iYDg3C88hlbMv+/Z/92R/SUgfmUeZVYT7dpkPSkN07TuFhdqONwHfMhqQsamxsPJ+0R1A6/ldS8tra2u5paWn5wlVXXfUiYHIIYRGOB5aGxVMWAIYueqnzblydK0lD6XdU6TANkv5JnauTiTW6APC5hFO5jwdoIXIyfuk+HP5O5Fh25ZAwN6HrStqSfnM260MX/06JA9yxJRlXAhNCF8eH03nAdGjQ+sO3WBfm8xngdfjDhESKxlXUmRC6mGN/kDQsbaiTapjHvxL5COCISkmZMmnSpLuAy5LtsY7/lZQjnZ2d9ZaWlmXNzc0zGxoa9gW+DNxqZqShU/qnh40F3EGkBbjL9EjSoPsL0Or4HknPqM5v6NvxI/sCB1mw50nRImphPl+gzpuAm83IkFgFfJQR7Bvmc2boTOR6kgai58zlj2E+U4BpwI1mJJPuJnAMXbwxdHGt6dCQ9Ycu/hC6mExkuv0hs+4hciy78MawgGtMh6Rhv3fM52zKvB58ZpGUsf7Ut9NUqhZaQUl5NGnSpJtbWlr+o6Wl5cUhhANDCN8F7jYz0uAqPcvL3PXUOAz4qymSpEGzgl4OC12sMRWSnvGZrG9x8A2JhPuSeALjrdom1HUBV9HA/sC3cCv8wXInkX9lIy8NXZwaTmGDKVFhe04XFwOvAT4KPndmxEPA54F9wzzOChBNiYalP8znov7+cKL9ITMeJvAFYB9/vCApc/eN0/kzD3Bo/3OM71iSMqFcLl9Amp+vrd24ceMSKygp75qbm69pbm7+2MMPP7wHMC3G2BVCWGVmpIFXetaXuTP4GyM4EPixaZKkAVUn8B0e4PBwFveYDknPY0UicQaq7gK4yck6jUdDFx8HJgArzciAuR6YA7wkzOc74WzWmxIJQhe9oYtT2cjeBP4FuMOsDItHga9QY+/QRWfo4iFTooz0h++xLS8BPkbf7rkavv7w4jCPk+0PkjJ731jExtBFJ2X2J/ALMyJpuCU8Bvji6dOnP2YFJRXFzJkzN7a0tFzc2to6e8qUKXsArwc+B1yNGyVIA6LhOV/mTuFh4L1xNucQ+W/gFaZMkrZC4CpqnBQWcJXJkLSJfWMFkWOSiDVyEFCxaJtR3i6ujZ0czBreR+TLwJ5mZbPVgYsIfJd5/MKdtKTn6Dl9i2JPiSfSxQaOAT4N7GVmBt3DwDzg66GLe02HMtkfvsU64LvxROaxnmMJfMr+MIT9oZdv+ANBSUndN07nz8DbYjvTCHwNeKVZkTRsPSmERTHGiYmF7fhfSUXu2xG4tv/PF5cvX77dhg0bDokxHhZCeCPwJmCEmZI2T8MmXYDzWBI7qbCKIwnMAiYDZdMnSZtkA30LE+aFeVxiOiRtphXJRBqYYLm2IG19o93+Nx7NeYzgeCKfBHYxM89rDYEfUuL0cDo3mw5pM/pO31js02Mn81jDVCLHAc08x5QAbZE/EjiVMv8bTuNR06GE+sNpcQbz2IE2IscDU+wP9gdJesb7xnwuijPoZgfeT+TTuBBQ0jAol8sXVKvVU0jnu+tHe3t7u62cJPWZOHHio8Cy/j/09PRsG2OcEEJ4fYzxAOAAYF9coyQ9p4ZN/Q/2fzF5PnB+PIHxbOQtBCYQeRmwC4HtgJGmVFLBPUbgUSKrgD8Dv6bKZeFMHjE1krbILlzPatYC22Y+1ugI4K3RvzPXN+PRnEYTHwE+CextZp5iHfATIv/LgywNixwNIG1V3+l7z18MLI7HsTc15gAfAl5odrZYL/BTIqeG+fzSdCjZ/tB3j+3rDx28hMAcIh8CdjI79gdJeoZ7xg8inMNsplHn4wTeDASzI2koTJo06a7u7u5fhhDemkjIjv+VpOfQ3Ny8Flje/wfoWxRYr9dfUyqVXl2v1/cJIewD7AO8BHcLlIDNWAD4lBe6U7mP/sWAplCSlBlreYQGDkwi1jLrLJg26bmrk2ps52BiGj+0iJ2U+heUaEtr3rcQsG9nrtW0AscBrRR3552NwKUEfkwT54dTeDip6EsspMqVmYrpIXca0jP0nr6dND8dZ/Dv7MBbgHcTeScw3uw8r1p/n1pI5ALH/Cp3/aGLm4BPxRl8hrFMJPBu4Ej7g/1Bg3HBcTw1RmcqpiZWWRht2ulLZN4TPy55GTXa6ftxyQvMjqRB70EhLAJSWQC4yIpJ0ubpXxR4Zf+fJ3R2dpYOOuigPUIIe5XL5d3r9foLgd1DCC8Edqfvh85jQghjYoyjzKRy/k4mSZIkKctiB3sS+FD/zjv7FOCQ7weWAD9jBD3JLfqT8tN7Ggm8jciR9I0A3cusPKEGXEZgIYELwlzuNiUqXH+ITKLEkUQm2x+e1h8CvwQWsZHzw1ncY0okFfZ+0UkDa5gIzOh/ptzRrDzhntBVvJ11Ozs7S4cddlgmnxvK5fLqiRMnrvfUTNOSJUtGNDU17ZZCrGPHjr39wAMP7LVqabrooovGNTY2ZnJqy0MPPfTbmTNnOjFFehYrV65sXLNmzZhRo0aNrtVq4wBijOOeeHaNcRvcTVAZVK/Xb5w6deofnu8/5wJASZIkKSFxNocSeRfwDvq2t8+DDQSups4vgWU8yBWO95Uy2X/2ITKFyGQCbwW2L1gKrgd+TuTnBH4ZunjIs0Lq7w/t7EtgMn2LhSfaH+wPkvRP94oZlBnDQZRoAVqA17OFU6pyopALACVJkiQNDhcASpIkSYmKc3gVkalE3gIcBmyXSOgPA9cAlwG/ZFuuCt9yNLqUVP/p+wL3lZSYABzc/2c/oJyTQ3yMwO+JXAdcQQO/CKdxp5WXNqM/hP7eEJhgf5Ak/dP9ooNtgNcRmEB84plyr5wf9h3AX/v//D50capngiRJkqSB4AJASZIkKQdiJw2sYkL/l+yv7//zMqA0zKGtBn5P4Doi11HjOs7gpgDRqkk560PHsx29vIbAfgReRuQVwMvp+yI3qwt/avR9Efs3Ir+jxHXUuY4HudGdSKUB7g919qfOK+wPkqRnvV/MYSciBxN5JZGXEngpfTvf757IITwG3AasInAHsX+xX+SvrOev4RzWWmVJkiRJg8EFgJIkSVJOxQ62IbIvgX2AfQm8lMiuwG79f8Zu5f/EOuAe4C4i9xC4HbiJyN+I3MQGbvILDknxREawjr0ps3t/D9qTyK6U2B3Yhcg4YBwwhoFdtLwWuA+4F7iXyH0E7iBwM5GbqXEzD/P3sIiNVkmyP/xTfyhzW+ii1ypJUgbuFycxirX9iwEDe/ffI8YDOwLj+/88/tcDbX3//eI+wpPuHXAvde6gxCoCfyewKpzOA1ZLkiRJ0nBwAaAkSZJUUPFERtDLGCJjqDOWvi/XITAC2Kb/r9dTZx3QS+RRAjXqPMBG7nVxn6RB6Euj2cDY/p7USAMjqTGq/2+XCYz+x3+4/wvWEhup9fejRh4l8ijruS+czXozKhW0PwQepE60P0hSwe4VnZS4kx0JbEeN0H/P6LsLBLbr/+tt+t95AR4jsqH/3vEIdar9z5kPUWYjcG/o4jEzK0mSJEmSJEmSJEmSJEmSJEmSJEmSJEmSJEmSJEmSJEmSJEmSJEmSJEmSJEmSJEmSJEmSJEmSJEmSJEmSJEmSJEmSJEmSJEmSJEmSJEmSJEmSJEmSJEmSJEmSJEmSJEmSJEmSJEmSJEmSJEmSJEmSJEmSJEmSJEmSJEmSJEmSJEmSJEmSJEmSJEmSJEmSJEmSJEmSJEmSJEmSlDX/H5hKUZs3lnMrAAAAJXRFWHRkYXRlOmNyZWF0ZQAyMDI0LTA3LTEzVDA4OjQ2OjIzKzAwOjAwIGTMQAAAACV0RVh0ZGF0ZTptb2RpZnkAMjAyNC0wNy0xM1QwODo0NjoyMyswMDowMFE5dPwAAAAASUVORK5CYII=;" parent="1" vertex="1">
          <mxGeometry x="580" y="800" width="88.41" height="13.88" as="geometry" />
        </mxCell>
        <mxCell id="-IuH-Xse1U2JRsALx-bR-78" value="" style="shape=image;verticalLabelPosition=bottom;labelBackgroundColor=default;verticalAlign=top;aspect=fixed;imageAspect=0;image=data:image/png,iVBORw0KGgoAAAANSUhEUgAAAwQAAAGUCAYAAACLAuWIAAAACXBIWXMAAAsTAAALEwEAmpwYAAAgAElEQVR4nOzdd5hdZbk+/vtZa+0yPTOZmfRGCIQAkRJAkGLooHCOCAiHdrBxEEVBQdTvMcbzU4oKKCAG5CAIiokelSZKCU1pCSkkJCF9kul1971XeZ/fH3smPWQyMzuThPtzXbkys2fttZ61y1rv81aAiIiIiIiIiIiIiIiIiIiIiIiIiIiIiIiIiIiIiIiIiIiIiIiIiIiIiIiIiIiIiIiIiIiIiIiIiIiIiIiIiIiIiIiIiIiIiIiIiIiIiIiIiIiIiIiIiIiIiIiIiIiIiIiIiIiIiIiIiIiIiIiIiIiIiIiIiIiIiIiIiIiIiIiIiIiIiIiIiIiIiIiIiIiIiIiIiIiIiIiIiIiIiIiIiIiIiIiIiIiIiIiIiIiIiIiIiIiIiIiIiIiIiIiIiIiIiIiIiIiIiIiIiIiIiIiIiIiIiIiIiIiIiIiIiIiIiIiIiIiIiIiIiIiIiIiIiIiIiIiIiIiIiIiIiIiIiIiIiIiIiIiIiIiIiIiIiIiIiIiIiIiIiIiIiIiIiIiIiIiIiIiIiIiIiIiIiIiIiIiIiIiIiIiIiIiIiIiIiIiIiIiIiIiIiIiIiIiIiIiIiIiIiIiIiIiIiIiIiIiIiIiIiIiIiIiIiIiIiIiIiIiIiIiIiIiIiIiIiIiIiIiIiIiIiIiIiIiIiIiIiIiIiIiIiIiIiIiIiIiIiIiIiIiIiIiIiIiIiIiIiIiIiIiIiIiIiIiIiIiIiIiIiIiIiIiIiIiIiIiIiIiIiIiIiIiIiIiIiIiIiIiIiIiIiIiIiIiIiIiIiIiIiIiIiIiIiIiIiIiIiIiIiIiIiIiIiIiIiIiIiIiIiIiIiIiIiIiIiIiIiIiIiIiIiIiIiIiIiIiIiIiIiIiIiIiIiIiIiIiIiIiIiIiIiIiIiIiIiIiIiIiIiIiIiIiIiIiIiIiIiIiIiIiIiIiIiIiIiIiIiIiIiIiIiIiIiIiIiIiIiIiIiIiIiIiIiIiIiGhL+o9/bP45l0Hyd3dL8zWnW40XHGal/mPaIEZGRERERDR4rMEOYE/QZx+DnHnmpt/dd1+rNKnkV6C6DJb1JKBlgxgeEREREREViq6du8XPLZL8zV2T2v77P+fUnzNBGy+c2hx/8NarBjE8IiIiIqJBtV+3EKgqZML07p9dST37iynZha8+mHvzxQvFsgEnvLH0/CteAwCdfeegxkpERERENBicwQ6gkBJ3fAtAPjFI/OZHB2RXLb3PWzb/FCkuhYRCGWfcxDe0rLwBAOTiGwc1ViIiIiKiwbBftxCUf/tnAIDsP+YMc1cuu9NbMu8UKS4DBFA1icjBR71pF5dnnxrkOImIiIiIBst+mxCoKgAgt+CViLtq6bW5Bf86X4pLAcsCVAFjfKuqOgkAn+7eloiIiIjoo2a/TQgy9/8QAOCtW3lc+p/PfhmWDTihfDIAACqqoYgBABEZtDiJiIiIiAbTfjmGQFUhIgg+WFzS+djd15q2phFSNgRQs3kjAWDMTvdBRERERPRRsH+2EHTX+OeWvHOSu+St86WodHPLQM8mUJFM1gE4wxARERERfXTtlwmBAFDVaOrNF76o2XQxbHubDQQqlhN0tZQDnGGIiIiIiD669ruEQOfNAwBkX/zzVG/1krPECe9gKwHEKvbWfzBZP3hlv+w2RURERETUG/tdQiDTpgEA0q8/cyk8txT2Dsr7IkDgl/obVx+Xjnkj9nCIRERERER7jf0uIQAAVS3xN649E4G/aTzBVkQAE0DTyZGh0iE1ABD/8717OkwiIiIiokG3XyYE8f+99TST6BoF60N6A4lARCoy/5hzBACUf+areyo8IiIiIqK9xn6VEOjy1wEAfuP6802yqxyh0M43tiwYz63JLJl3mqqGgc2LmRERERERfVTsVwmBTD4RAKDx2FgEQX66oZ1vDfi+panEId6aZZPyDw3sAmU6ezZu2/ax2z8/oMcgIiIiIuqP/SohAAD/ladGmkRXldghwYdV+IsAlgV1cxPjD99xPrCL/KEPWlY8h1u6f07ecVOF/s8FIfn2/w7wUYiIiIiI+m6/m3Iz9e6rB5t0avh2aw/siFiAlys3TRuOUtUSEUn1rHLcX+m/PYbicy5H/Nd3huCnzvU6m4fplDN+C/yf1++dExERERENkP2uhSC3atmB6mWGwupFQmBZgCpMNjU18ehPTwIwIN2GdOViFJ9zef7nTMtx2Xde+r49YqxjffbaTL93TkREREQ0gPa7hCBoWDcKnheC1ZuCvUAhMNn0WHf5guPzj/SPqkImTQUA5J6fMyG7ZP7tXvPG0dHDPv4eAKQevqOfRyAiIiIiGjj7XUIQnnpcRFMJSK+K9gqxbcDzoqal8aTUk48cBvRvtqGOmV8EAHQ9fHs08cpTN/sb1pwQHjV+AYysAoCSq2/u876JiIiIiAbafpcQOKMnwPhu77v+WBZgAphUfLL7/vypAPo8hkDXL8bQHzyEzLJFlhg9210y7yoRyVnDxy4JH3tSY592SkRERERUQPtdQgDfFYH0vpZfFbAdmFym1m9af6qq1vb10DJuar7L0PrF1bmF//y+ZlJFcGzXKq9o7+s+iYiIiIgKaVASAgVQd/HB2z3e9fit/d+351u7PTDYtgE3Zwcdrccm5jw4GQASv7unT8ePPXS7nVu7+ip/3YojJRoFjCqipVkA0HlP9WmfRERERESFMijTjgoAzF6BpukjS0152VedAw9vr/npnF+LiKZn34/ii6/t+859t3fDB7akCjghIJcd781/+URVfUtEcrt7aFWF/9rTIzqfuO8K9VxYRaUwgat2JBwAgEw7b3d3SURERERUUIPbZahmVERKKi43TXU/77jponv8d18dXXzxtYg/8pPd3lVPFyENvFCf5gqyHQSpeJnfWn9y7p9/HwMA2rG698ffsAGxh34k6ZVLLvHWLDtcikqhGgBQQK2+j1ImIiIiIiqgQU0Ioqeekw5NPOSPJpUsyi1f9OXO3993d/qlP40pv+omZP70693aV89AYM3limD18bREoL43Kbvw1fzg4qqJvX/qmDEo/finq3NL3j4HADZNeyoCINj/xmoQERER0X5hUAuqFedd4Yaqh8+XaFEWakLeioWfSv754VtUtaTos1/c7f2paljTmQpIrxYh2I44YZjOtgPc5Ys/papVu/v8zNqFZ3vLF5wqxaX5bkj5yU/FZLL73YrQRERERLR/GNya65EHGuM4rbAsD2IBkKhp3PC5rrtv/nzPJrpiXq93F8x9okxziQqRfrQQANBs5uDEb+8evztP1TdeD+UWv3VCTyKweZ+WZTKJ4r4FRERERERUWIOaEIiI2sZOiu34qgZwHAS5zNDsO698OfvG89MAQA6e1uv9ZRbOG2ZSyZGw7T4vOCyWBRNvn+YtfetkVbUBQOftPCnRpXMBAJ7feZi/5J0LJRzdYmeAWOKYWPtIVQ33NSYiIiIiokIZ9L7tJvACQPJdbETyKwdn0wfFH7/7MlV1AEDblvduZxOnjPdbGyb0eWUxALAsaDYTMenUUe6C12sBQKbtPCmRQ6cDAHIN66YGXR3VsLbsHSRQscJBW8shXb/8/qg+x0REREREVCCDnhCItU1tvthQNxc2ne3nxn971ycBQKon92pfdnlNtUnEQuhrl6F8QIAqgkTnacm/PHxEb56isfWlufn//IzY9tYTHIkAqpbpaJ7oVA0b1/egiIiIiIgKY9ATgu0IANuGSScOyL390pmqussY9eG7AABB/Zqi7QrlfQhAAZhUYphmkpN6ug3t8LizZgEAvOaOEd76ldMhwHaLoqmBujnLGTW2BACyj+7+lKpERERERIUyqAmBqgKWFYIaydemd//BtgHfdTSd+GT66UePBYDUs7/f6X7k6hsAAH5rQ63YjtW/jEAhjgPxXFuzmU8mH75tLABkXv3L9se95hoAQPbNlw5VLxeFvYPcQQSwnWhu4VtjASB65U39iI2IiIiIaGANdguBZaBlGgTOVjMDiZWf7SeVODg7/7VpAFBy7qUfuiN95g+lQcP6w2E5O63R731UNozrIoh3HO+uWzEBAIpO/vcdH1fVyi1553PwvRBkRwmBBQAV7vvzz9S2uqH9jo2IiIiIaAANakLgLn7LgpsdBg1C+cXEupsIVCF2CCaXLQ/amo5zVy0ZlX945wv+pjU31q9fexysHZXKd5MCsG1oNlOpnneku3zeh00bWhp0tR6uvifbdRcC8i0EgW8H7Y2H+tkgfx5L3+h3iEREREREA2FQE4LMu6+GgmT8Y+p5ke1WF7ZsqJuFpuJH5Rb+80AA6PqPj223D52bn/bTGTWx0sQ7KgcmMoWEwtBUImJiXeeknv/LSADIPvno9ufw9GPjJZsulx11F+qRTxSKM3OfnAQAcujxAxMmEREREVE/DUpCoG89CwDw6teGTTJ2kqaTgL2DxXwtG+rlqrzlC8YDQOXvF2+3iUzPT/vpr185vHtxs4EJUgQa+FAvNw7p5DAAiJ5/5eZz6G6tyK5YeEaQStbADn3IviwgCGpy77xwds96BB/W2kFEREREtKcMSkIgx50LAHBEI5qMjYEx2L4grxAnBJNODfebN37Cn/9y7c72p6p2dtE/PwHLCu+w205fqAKhMEysY5TmskdrV8fW3Ya6j6Op+DGajEd2OKB4i23V98JBW/PR/qr3JgIA7rtvYOIkIiIiIuqHQesypA3rLGdI7QGaTpTDCQFqtt/IsqHZNDSbOdDzzVAA0Nk7LEhXe2uXnQ7VyIAlBEA+IYl3FGk2eUxuyZvlwOaa/Z6jmESsDCIf3i4hkh8o7XtjY4/fexoAyFe/OmBxEhERERH11R5PCHoK1MlX/xbys5lzTEdrjYTDO9sasCxATYW/YmElAMjF123+67ynAADekvnDTSI2fCCTAQA9C4vBZNI1Xt2qKAC8tsUxvJf+OlLTiWqxQ7vuAiQCzWWHBvVrTlHVrZILIiIiIqLBsscTAvfFOfn/P1gsJt55tGZSOx4/0E1sGyadHOetXHT4touEybTzAADpF+acKKqRfq1QvDOOA+Nmh/rNG4cAwMlb/CmzcvHRpqt9PBx715lIPrGBScaOSMyaeTIAZP7vNwMfLxERERHRbtjjCUHk9IuhqlI8ddq4oHHdBITC+f76OyM2NBEbGiS6DgVQsu2fVVW8NUtPV98vHvAWAlWI7UDTyfF+w9pJiZ9/1+k+JgDAKKaaztZKWL2c6VQsaDY1LrdswRmqGir+7NUDGy8RERER0W4alDEE6VeetrxU7HS/ft3BEinaRUIg0CCAel4FgE19i3oK5dpQN8F0dRwI1Z03M/SHZcN0tFRLpOig6JkXRgCg7fpL8sfOJGo08He8/sCO2Dbg+6GgvWV64ne/+AQApP72h4KETURERETUG4MzqLhzacirW320ejl7u/UHtiWAWAKoKcu99WIJAOisWZDuQnjsiXs+FaQSI2HbGPAWAgCwLGg2AytcVO5Uj3QAoOaeP0BV7aCjqRpOaPcOalkwqfjBuXdfO19VS0rO+Rx0w4aBj5uIiIiIqBf2/KDi9mZxqg8/1F3yzqkSiX546wCA7owAGgRDc8sXDAEAueaaTX8NGtYdC98tG6jlB3YcgkB9N+w2rdt0lPSfHhyusc7RYvdi/MCWbAfw3HDQUn9W8tGfnwgAMmbMAAdMRERERNQ7ezQh0HnzsPHpu9Vr3Hi4aW8ZB2dnswttw7IAzx3mr1sxfMuHE3MeONZvaTgCIqEBW5BsR8SC8b1it6lu02CB9FsvjQsS8Qmw7N1/DZ0QTKJrcnbei/+uqpUAoG88N4ABExERERH1zh5NCGTaNIwYflJpbsnbnxSR3nfxEYHJZkYHjWvH6cypm2L21rx3qkl0jsXu7KsPxBLAdStNa92mDMYeOW6C6Wyr2mWXpx2xLGjgW0Fn61mxO2+eDgBy/NkDFzARERERUS/t+S5Dw4ZMyi19+0KEetk6AOS7FeUyJYBVg+8vsgHA++ffJ3vLF30aqmUFmW50S2IBucxwq2F9Rc9DTnVtqebSdl9bJsQJI4h1THBXLr5I61aOAID0878foICJiIiIiHpnjyUEumIeACC9ZN5U5DIlu1uzrhoAobCN7hJ4+r23TjCdbZOg6P0sP32SXxwtyKRHZjZsrMp96Yj8wUwQ7dduRSAiCDpaz229+9ufAoDiMy7tf7hERERERLthjyUEcvA06Nr3huTefuHzUKDXc/cD+e5AfgBxQjaAwHjB8Oy8uRcotBr2buynT/KDmpFOjlU3Oyx12IUWAPjtLUP7NH5gS7YDk4qXI5e9IP3inycBgK5cPAAxExERERH1zh5JCHrWDMg2NIz3Gzcc06d+9yKQwFgiEsQfmHmm6eo4GqpWYVsHeihMoisUmnBIWeX134P+9sGioL1lDGzL6tdYZhGIZcG0Nk7PvvinTwKATJo6MCETEREREfXCHkkIetYMyLzy1OXIpovg9HENMQ1cVR2fffMfl6jnDt+tVob+EAHUwHKsEAB0vjunXONdI8WyrX7PbhQKIUjFo36869L47PunAEDu/Tf7HzMRERERUS/suTEEGS31N6w8Q30Puz8IWAAFUFlzcsePr/uVZjIn5x/eE60DmxnXjQKA5RcPMcmu0X04ke2JBVgOgub6Y73355+oqk5kysf7vVsiIiIiot4oeEKQefdFAED88dvPCjrbxkkotPs7EQFsG/7K96a77752hgZuSeHHDmwVQD4hcXMlAKySG28forGOWkD7n5GoQsJhmERXSdDVdlHyyYcP6Pc+iYiIiIh6qeAJQdFRpwEAvDVLP2di7RVw+pgQiMBk07YGgQXZk8kAuvOBAGrM0Mw7r9qSikfUc/s85egOD+E4MK1NR3qL3z5aVW0A0HlzB2z/REREREQ7UtCEoGcwcW7NwjFBe+NESB/HDvSwbPRpQHK/CQQW1M/V+qsXhfyOJmtA41AFwhGYjuahQXvL+alnfzccAGTa9IE7BhERERHRDhS0dJ2c/RAAwH3zlQv8utVTJRIp5OEKRwBYAs2ka/31K0NBrCMkMoDNA0C+FcSyECTaj/NXLj5UNd8dqSepIiIiIiIqhIImBGWf+yIAwF297GMIAgvWnh0EPHC61yJLJseYzsaomqDI6AAnBKpAuAhB44YJfkfz6UHLhnIAaP3MgQN6GCIiIiKiLRUsIdC5+f7v2QVvTXOXLThRosWCfbWyWwQwCmRT4+zy4UOQzRaLDsCA4u2Ok/9P411TM8/9oQYAav+yesAPQ0RERETUo2AJwTtn5fu/+3UrjjVtDQfAcfbV5gEA+fmETCZZEjpwyiFBKjFFrP4OiNgxCYXhN6w/1atfd4yqOgC7DRERERFR4RQsITjWBTSlTm7hq4chHNm3S7SqELEAYxRO6HiTjh8LsUID3GkoTyxoOh5SLzfFXbmkKP/YPp1LEREREdFerCAJgc6eDQDw3vjzZG/FonPFCRekNn2PEgGMkaC9aZhJxYsKluFYAsBC0NF6QuaVp2qAgZzcdOC03X7zYIewFbaiEBENrLVXndKn53U8+vMBjoSICq0w3V4uvhgAEKh/QJDoqhUnXIjD7FmWBdXA9hvWTVLfj0IsAczAH0csKBRBe/OxSMTGqepaEdnrSruJiccMdghb6bj+8sEOgYhovzLhkVdQd93Z4jbHRqrxj4Lv5ytftm21NoGI5Who5Jimcff/Zb6IFODmSESFVNCa+/TbLx8v1h5dUrhwLAswBv6G1ZNQVJoWQUHGFUMVYtnQbKbUpOJj0NYaAuAO/IH6Z8KFF6H1V3cUqZv9eNDeEkYQAOGQgRboPmAAK+SIn0rDS8aCSE1txh4+urN8ytSG6InnxIbe8/gOn6ZPPQU577zCxEREtJ8LYh0OYE8H8NtebP40gM9iL7xnEdGHK1hCoKpDW77wydNUNST7RR94AcRC0NleKZlUCRRWwTrzWBZgAph4x7Gxx+96EoCrqtjbXkevvaXa5DI/81o2lsH3IaFwADUDvUIDoPl/4tgwrgf1XC8H02mlEnW51csXbPjmFSvsIVVZp7rWtYYMrR9y9gX1TmVtBsCmZOBazMYv53VCpl0zwMEREe2/vLoP1KqZnIRqDsBOFxNSaE6AemCfnU+Q6CNtwBMCnTEDMnMmTP2a4SbeOUr2tlJsf4gAakTTqUhBV0y2bGguC5OKHx/EWksBdO2NL6PXvCFsMqnD3Q1rHfVdWOFIwfvyi21DbAdBvDOAJceIWOdCrIzV1gS7aUPaKq94y6tf/3Lr/bfWaya5xp4woa3q37/QLiJ6/7T8PjrvmoHKG2YWNE4iov2CvamYsOuL+0Cvz0NEe8yAJwQyM1/QSj792OEQKdrvZsgRKfysPyJA4EE9t9YuKisp7MH6TmBU8rVCzuY8oFCvTfcBVKFBAPi+rWpsUY2oMUOCzlZ4tgMrEhkl4chJVml5xi6tWBgVWRabPevl5F8fX1Lcleqyrvqy35MM6MpnIZPOLVC8RES7Z3dagnsq3/YmbBog2ncVrMtQbvnCUzUISiEFXQx5/2U7UDcbhh2qUdUP9saBxXAiCsd3JRwpERFIOAIpcAuBAvlVnQEI7O7/u/9iDEw2G0UqOSaId8GPFk8I2ppPTUeLzrOrh72aHn/Qc7p2+WsyYXIaAGTSudDZszcNgiciGkztV5+w6eefK3D93J858US1eDHF0OoyoHZUgGkXGEED5Ac/APayhGA/q/4j+kgpSEKgqlbzF089SD3XFidUiEPs37oHFsPzStRNj3df/uvb2BsHaRkFjIqq5mvuzWBOLCGAZUOiTv5nE0Bz2ZCbSlZbjlMdpOKTg7bmT2RXLXspPe/Vx4unnfweACYDRLRX6Jh1G6quuQUA0PXHh8bn7l53VFN6wwEa1EUReHbT+lAgZZUri+69/u++Hely9rLWdwFbCIj2ZYVqIagS3ysRVhj0nVhQE5QEXW3jMwv+6WBvTAi2fXdFNtXeDxrtGYHc3WIRjuRbDpKJYpNKHRMkY4e1zf71wc33zHy8vHb4s0Wfuybd+rNbUPPN2wY3biL6SKu65hboqhVOyzOPHRd/5bn/MKnUCUZ1JARheK4t4YiGRoxZlCstXRREozGw/E1EA6ggCUHmb78fq4FfBsuS/W4MwZ5iCdTLwWQyE4POdjaz9IdlbUpWgkS8KLtkwXlBV+dB/tiJozp/OXN25VdmNFYBaN8LZ3Iioo+Olj89UJtrbvys21h3iUkmqlSs/Bo4uSysaBHs0rIDTChUrOG9b20fBWsAifZlA9rBv2eGmeyiNw6EMZVMBvpOLBuaSkJCkTFSWrHvr/Q82EQAy4KEwtAgsL261YfkVi39bqq17b/a7vtxTQcAEYHqjMGOlIg+otzW9qFBZ8c49bxSiAWxuv/Z+X+AeNgbx5N122sDI6JdGtCEoKd21SS7DtNcppQJQd9p91oEMF6x+pl9f2R2fqBBAKgHHYB/fV0mWgQSiQAi4jfV12ZXvvcVL538Zmzun2oAYL78YABPmoio94omTrIkGoX6gVERwLbzLZyWDYgNWAgKPnNDP/COT7TvKkzNszGjNZcNSSjMGoO+6l4eXo0R+MFgRzMApAXQeQrUCQSifUlGFSqqgDhQnQSRU/ocTigM+D6Czvbq1OI3vuCUV2wwz/3lUetsSfR5n0REfaDP/gJy7vUwjh1RY0phfFt61rrpmbRhcEPcJQ4qJtq3FSYh8NwQhBeHfsvPNmSJvV8MIVgNxW9twbtWEAR9HnAuBnBEfLVGqOITEBRBUQbIpyGYtFv7chyI7yPoaK9Ovf3qV6OjJiwC8HrHb+5C1X/e0KfwiIh2x5ZrD2gqXg3fHwZgn7vo835PtG8rTEKg2jNhPNiI2A+Sn8LVGCPA7i1as/fRDIB1EjhrJjQsCWIVtbufEyhgOQJrWICG7NC1jpd7N+oaO2dHij1b5gqs81X1FIgciN7u3LEhQQC3fv2k2Ntzv5L466ONZf925er2xx7D0Msv3+2zJCLaHZuSAVU03fqt4TDB0O6/DGJUfbPvRUxEPQqUEBgHAs462m8CGGNJ9x1j300GAIiELYNixw9EFmYB1PWzQmlDACAFAHrSwfFllZFnoggWGMgnjOppgHU+BMN6EVh+ETg/a2eXLzrPLimdr6p37pULwRHRfiv3zO+KTC45DGqKYe17t092GSLatxVksKoGxt7nrmZ7IxGIBrZVatuDHUr/KRQqAmtAPhi6xegBeW0Fpjy52BRb2XrRYI6t+H8CfRiK1t7uT2wHJhEv8pobTuv44wMfG4gYiYh6K77g3UjQ1TXEeF5YpXuq5H0IkwGifVuhZq9RXh4GQv6GILLvTzKUN3CfCXll69/Xnn84hv/lA5349BIz8elFLRFbb1fo/0LR1qsdOjbUdy2vtfEwb+PGE/LhKnQGpyElosILOlucINFlq5vLN7Dvg5Vq+17ERNSjICVNcWwfYJeLflMDWE4QxLL+YIeyt5vw5HsAgNWfPgIAMPYvi7oQ6P8Aej9Ue5EUCGA7YpLxYV5T/SnukuUlEIHMnFnIsImIAABF046zrGiJo64rqmafayEAWA1ItC8rUNWzrVAFLw/9pApYli+2kx+irXMHO6K93sSnF276+eBnF6UM8ACAlwG4u3quhEIwuYzjdzRPTC9+ZWrhoiQi2ppaRWWwrAr1fYvVaUS0pxUmIRAYYF+eEWdv0N1dCBr0jG8VmT6YAe1zVpx3BCY/tXCjKJ6EYgN2kaGKWEBgxKRSI7NNG05TVX6AiWiP8OPtIzTwR0IDJ99jiJcfItpzCpIQ2BWVMVi20b13QcV9QH5hMohlIPvBmOJBcPBT3a0Fgjch+hqA3IdtrwBg2aKeW+u3NB2L7lm4dC7HERBRYfnJ+EijZrT2zP7H+ycR7UEDmhD0JAAaCi+2oiVp9hjqBxPAKimHcXNrg1VE/58AACAASURBVFTcG+xw9mWeWPVQvAXV2K62FcuCejnL72iqxrJ/lQKATOc4AiIqHFUFMqlqCUxVfppptg4Q0Z41oAlBTxeh8KgDlyIU6WANRz8EASQcMXbpkEXh4RM+tGabPtyUJ99Nq9E3AHwAIPjQjS2B+r6YVKo8vmLN2D0SYC/oL37R+233sZmR9ucWGJ19Z6+2q//xdQWNo3PG13u1nc7ad9+Ljtu+vdvP2Vs+exsfnGX7sY4qeG45sO9NOUq7tjvX8B5NP/lWASKhQtgw44bdfk7HbV8uQCR9V5CFyUouv35N6vk5MRijsPfBFVYGnQDGALYTd2qGrSj73Bc8fI211H3Rs1a2JTAKlGCXSbAAMDDQqJ+IjdC//+8SOevzH55EAGj49NEY+fT83sU0Y0avZi/q+uWtGPKV7+Sjuv56AED7TZeIt3G9JBJZuE4KGsuhsrwSkUOPQPWPf2MA7NGZkZpmfAvDZ/50q8fSqvC+daWVijUBjY3oCGcgpgpADmGTRHl4KIKJ41F946kmPPza7VpgOu/6Oipv+PkeOwedPQNyce9es96sFt76o2+g5nt3AwDk4hsBALEZl0lm5TpJJjLI2Uko0qjUibBPPFKH33S3jvruff07iW3EZtyAipl3bfq9cubPoT+bheY1T1udTc0wfiuASgAdGBodjpKaCSi79/dGrtn6ddCvfQ1yzz0DGttA0BkzcMxxMzHv3M2PVd1yO/Tp19Cw6BErNOYosX0fkBSgJdj0vdYkvLpVGiqC1tzysG772dPZsyEXX7xHzwUARtctxPquttIgl4nmr1AfnXtmb6+HPVruuw+11xU2gR4IbQ/djuovbE5Se67hHT++QQI/KXLQcSKZTHdf1e47lRogk0I0/r4p+e5jOvymn37oPgfa0oum4NA57+/28zbM+ALGzHyoABFttvaqUzDhkVd2veE2dvfz1VuJX/wYZdd/d9PvY7qvtxtu/6FESkJSOnIE1Pj5b7IqFALLM0itehfhUJeWf+cJrbrlga33OWsGyq4ZvLJeQa46qiotXzr1Jb9548nihC3WduwmEWg6CXvkuProlCPPGvLNu5YOdkg7UnfDZRNMOvWu27B+iHouJBL5kH6v+poY/UHEc14b+/f5e7wL1AfnH3UgYG4D5DwA4Z1uqAqowq6obCg75az/rgwNeSJ09bXp3hwjdcYU6YpUSNaNiWqweX+2hUAs1Hzs37Tq9ltN/uGdFyx1xlWQmY9s+r3l8/9mYcIkKZ10ZFHXoheHuetXFnuJhBrxgFyAcHGpFZowyYtOPLTJb6xPBV5HMPL2JwKBYMMNF2HMXXN6+zL1iv7iF5tubgDQ9r0fWlLRIdl0pzhloxyNRqqC5Usr3FirrV2d8IwLWGFADSwEcCLlsEeMMOEJE+Plkw/usIqGu+n5L6vjdmnZd35ttnxZdO5cyPTCD6ZXvR1NN62wUisXiXht0Gg1kEoBAOyQJ8Unn2uG3XyPqfvW1Rj704e3f/42Nx1d8CJafnmP7Y2cgMojDiuOv/3q8NzqVUVeJmUMfEADhCNDrNCkybnIoUfXZ1YuzZYY3wz9/x40APr0vm0Xw4x70b7uSTsR9WXIGZfZZuUH1em17w3JNDeJmizyXwMXkUi5RIaNDYqnHNaeqx3VkfrDg6Zs4iStvv23ZtO+LroIMmdgP0e7a0ffmdSt10lHZ8IqPvoUkaISx1/27tBcR0OlUzMmCqMC9QQSUkAFEEiQU6+lIWuXlCbKj5nW7peNybj/ek5LrQNN8Xe/obs63kDbcNHHMWbOm1A3FV537YW3+13t39BcFthmYTJ1c5BoEaITJq0OV9Vc6JSWLaq+4cd7pAn+g+nVjlV14KfV+L9HEERVdfsWDBMAlp0Ljxj7yLhf/eWrIrLTa3xPJc22On79IyuxdLnk1r4PK5PuvpcYABZKxo6FPepohA/6UTDksq3rdPaGz2aPbRPK9OJHkPnzcluzDeIcd5JlN8XK4msXVakflDpjJoU0l+l+MaTnM6rqZo2V6kzIiAntoawf9+tWG+eAsVp14+3mw441UF74chjjN04Wy45axmSAXHcHhZ73XAHLziKsVdAjDlYzvNKMu/H+AY9jR1ZcdCjKMNpyk83im1y+4nRLFiBWGEGkBpEjTzRjZ7yugpcKGpN7561WZxC3yo47URLz3yl125trnWi0KFRRCfVdAN114iKA7yHXuMGIg3T0gMmt0SnT0t4bc01xmaXh/7p16/d31izINdcUNPZtFaSFQES09duXLLA6Wz+uxkQ/SrUdA6L7Mm8Xl7VoNrvLfu+0a75IvWP0UQAnQaR2V9srTFjjiZGZkiAMoFcJQUe0pMhzzEFGQhW6abHufGuPCDQXTnS23ffjD6qv+25u9VWf2PFxt6mt7nrigYrkW6+ON/Wrq331DvFSqaP8wJRDxFjqAI4lgYpIMulmW+tXm1jrfCkuaej8/tdX44doH3PXnJ3egPtC166FTJiw+XdVab715kkmh2oNwhGvo3WMBsE0P52qCVzXUrHEQkjzn2kBJIRAVZDOBF5Ta3ss7S2xwh+sNq6b86ziDvOHu9YAN6R69v+7L03fIwUz82JNOMDSCWpZ1cZEHPgGcMKAqqraoSDlbYy//tKa8hNP9XYUzz9Wz97q99YXn6/xiiITgra6ithSc5iXSB3hB0EpgMBSG4AtAXyxYp1Zt271O9rWvModUrWx7fZvr6r+9u2pMXfNgT76E8iVN/X6HD6o7tjq93htvDZT70yEkeLM+wvHmlTyKD+bqxVVSxDqvsqE4BtjSS7t+/UbGtC44fXA8zpyasUS37lhZdmtdyUBQObMQcOML2PkzAe2O+6eUnfWIVv9rqp2y93fHwsrOzK7dF6ZRIoOCGLth/qxWI1JZYrUGAtGAYFCVKAWRFWNm82qQWd88bKViuVLxAuymRF+nWb9dRJ1Nq350vX/Li3YufQk/WPmvJn/va2lWCJFxfCD/PV/hwu6CwBL1bJ9HTduAGIoTM3prrz3zm3AMbdsHcvbC8Kt856aAPWHWrYdUtvuvg1aEBvIGSBipdOB/fhaYOvFJv/+/44C9oKEQHUGRG7d6rHcKlPjhf2JfsKU2UsW1ajrHeonYmODjFtmcktDxnfz77UinxDkFyH1BVbCthrW+b7/HiKhFg20s+vpR1cP+fSViZ59L+wszDTko7sm24gW1QTGjFVYxYhEdJsEUI2nloZhQoHV7GTsVdhVV9wBEq0cVeKmgvF+2KpVzzEa2jYxzU93b0V8P1LkrUXsT42oqBywxFmffRZy7uZmyfYHf1qUyGYmea2tw2KvPl9qMpmjTLx9gtsRFLvNGwVB0H3rk/xLqAZBJmusouI06htWuG1/f0+y2bgpqm1Lv/PCquJjTs/07HtPJwNAARICnfswZPrViH7irL+l1rx/hQZBlPnAbjI+JFoEKa14za4dnQD2TG3V/mr5+Udi8l/nZ9ae/bFXvJAkAHx4QiCAGHVMJlnp2r3/juRCzjCF+bpa1iHIz7vbPcoeFqDGjbfWaWXZrPibz71W/vGzt1tsrvnnm5MBfWFOuPGlv0+Jv/uvk0w6cUrQ1T7RT8UOMJ5brrlc90XGyo950AB+ZxuCdNJAzWrb9dYmi3IvbbzpsidH/eTxZQPxqYk9MQsVl1yzKRnIvPB0Tcsf7h+18eYrRqviMybnTUTglWkuM8KkUyPUc6GBn28qFemuXeqOxPcQxDphMml4ttMp0eJ6KxpNSSi8zu2KPbP+us+uKDvmlI1V/3l9w2WrgMu6P/e6+DXI1JMG4Gy2F4+FK4zo5RCcpGpHRdXka2kN1NhRr6Xl3dTbcx8B8FrLT7+z6XntM76GoTPvwVmPLQMA1F93Ubkf5CZnG+rOCNKJk0wyPixIdB1ocrlSE7jdM4d1n09g4Le3wE8nzhPXa3CNec/tan++7uYrXxl7x6MfyJU3YdHHkpi6sPRDG1l7uhEc/LV8156mGV8bEXjJ8Ym6FSf7ueyZxgRDsquWj1TfHW6ymc2fHSBf+Ax8eF3tkHQSEP13Y4I2LxHb2BF0PVd3+emvRYeOaKj9+W9jI2c+gJbbvonaW3428G/Ah2j97SzUXHENxv1jOQAg8+z/lcWWvDW84YfXHxqkUqeZRNdUP5uq1sAfpUFQYbJpmGQSCHoqqSV/oqqA7cAqKUWQTcPraM2KHaqzS8uSqmZew63f+Efzj25+r/LwQ5vC518Vr/zREwCAtoceQvUXvrBbMe+qsL1lCyAAxF79xyioqVUNdjp+QLq/Q5r1TM0F1/S7kLNw9C6XZhkwOmMG3o/Px6F3PY2p3clA169+VJ1Y8NaooKO1qOHP940zlpxhUomJUI2qWNpzzVARBDnX8rpa28z7b7yy5sqz/mlySbfiuDMbq2tGNcrHvphvVfvmZRjzs8f32DltOrdZs/CvkS0Q+e/876pO833/Mzpo2jgivXjeySYZP93r6qhFa1MVAn+08VyYdArehhS2ai/pbnmRSBRWSSn8eAckFKqzwtE206xrvK6OF+q+dcXCkilHrR36+RtajrwmXyvf9vtfofrS/xqw84m6pRHf0eNVzRUQGQ3L9rcuwwkUlhNY6odgPY/AugNAaie7G1CWEx3jWenPG0tOhogHa9sewAoNAksspMTWB1E+ZDYGaEGs9t/evSkZSP7tN0O6Xn5xYnLJO0faxaWne63NU7z6bKkxwTh1c1aQjEOzma2/ywqIZUOKi2EVlyKIdXiw7fVOcVks8HIfZJ754wvNt96wqHTSUetLLrxiU9K7J7sxDnhCINOvBgCUnvef76d+/8sWuO5QsIlgN0h+QHFRSeCUVb5W9sXvpvCl7zEZ6IdQOn/RCESjELV2+XHMdxuyNAjCuXSu9y+8ZUqhOA4qh+T7g3Y/Lvmfvfq64+2yci/12ovrAazpeVpPzeuwr+cLEK33fH9o48svnOzGur7htzd/QrNpSz1XEBjAtgDL2lygEwFUYdIpIBm3FDop6Gyf5FQPPzU8auwUAa7qdfw70DOOoeKSa6CqEntiVlWutXF418LXP+tnUxdgfcdoVakKknHRwIeIQGx7c4xbFIA3vbwmgGY9IJ0AjFaqCSphWbCLy46RcORMhEJd6dXvP9n08x/8sfjAw1eXnXtBi4gEMvUkPHsUcM4tA3+BtC0rIpDDIXICgBA2dYuwAEvhblx7pJSVlySembOg7FMXJQGg9WffwdBv5msE9c3X7Ia/PTE+V7fyHATB5zUZOyKIxwSel/8c2DZg2Vt/9EyAIJUEEl3lCin3U4nJViRytu37zzfN/Ort1kFT3q+9tDS54Ts/AbDjloKWe368qU9x070/LAs2rDnE7Wq9NEjGPh3Eu0ZqLlesXi5fc2bZ3Z+fLZKzns9PNg2kEgB0Amxngt9UP01C4TNh2/ODROucph9e/2zVMcdvCJ9zqXfuVd/BM+MbtivUDjSdNQNyzUzUXJGvKYs9+0Rpbvl74zoXvHyi1952nt/afJxm0kNNNi3w/e4Cvw1YAgmHAYS3fr17vo++BxPrBIyJqupBnm3Dbiw60iouu8ivrHm7w+SebP3lzFesMYeuHnrehdnqL3wB7Y/ei6FXfrXXscvMmdCiacD3zkFSU3bHonkhk2iRslPPE60ZHfHjHSWId1b6DeuKs011ocQ/nz9eM+mDBIIdrn7S/R0KUvFiv7Hu46vO+1iVBoGKHbLQmwKPGoHvwyop09DYAztKDpm2tupL38js8nkDYMNX/21TctR8z/dDmeVLqpHoHJNYteJsP5c7N/C9scGaZVFVrVDPtxD42KqgpwqTTMDNrobYznQNTAy2xLONq59bv2Les+uvOe/96ORDm4fdcJsHAG2//B9Uf+W/98SpoeW+GZtqct3Fi8OJec/WNN/2zSO8ZOLCoKXxRD/WPkpzuSLjZiEG+e+elb8+SnHJ1jvreRdVYVIpIBGHqhkLyx5rhaNHSLToU3ZF1brsmuV/bP7pd/4aGn/Q6qoLr+7qSQY6H74LlVfv/sDWbflQW6GjARwDldH5ZHqLDXouHwpApBEiBelpskMq5QAOE8WRCtg7/eSLJALFP9DR2e+CU/ud38PQG3+EoVd8A/EX5lRk351/QOztedP9eOIKv7NtiptJO8bN5hcTFMm/t7YDKSnrjqUn9u5fVWESXdAgCCn0wMCy4DYVHWVFoxfYlTXvBzn//xrv+OYzoWFj6qqv+ka7XHwxOp/4FSovGbikb2cK+UY2OgdOmesuenMSVEMcR9BbCjUGdtmQOqmoWCsi29Uk0+6Z+EJ+sK8ThuMakV2mp90VUypQR3ZjzVCDAILspq5C2/45l4bXWD9Vs5lJ6E4IYnfegIob84ORmh6+20Zn2+Rc/YbL3Pr1lwVdHaPVBPkxOJa9uXC97Xcpv6J1vmVDBCaVgrquSHGZB+y8z+6utD5yL4ZclS8Etd3z/fLWe2ZO9dubz3Kb68/xO9omajY9RH0PkHxsVigExU5i3JIA+YK2AJZCNL/OhnGzlubSlWLZldml737Jqqg6V1PJl4KOhj+33vuDBTVf/UHLue8CuPhitP3+HlRf+rU+nNVOY1KF5KAw273OIjCpJExn61HZug/OAvCnlnt+iJqvfT//Ot32zYqGPz98vJ9JXR4k4mdoJlULy873b3WcTTV/270JKt2Fcyef8AcBTDJZZlz30wAODjv2ve2P/fjxoZfflEj88WGUXXj15qfOvhNy8Y2o/dp3oarS9vBdY7MfvPdZr7n+CpOIH2zcbBECk/9c2A5g6RbntE2C1rPmiW0j30FYYDxX4LklEJxkcrnJbkvj6e1vvz6r8SffennETbdmBIDeeQPkxrtQCC133ISeAc76z+dCrcuWjk+9+8YZfmvTxX5Hy2F+vKsCnucA3a+h3b1Wy6b3Dtud55YVsRALsAXSPaDTZDISZDKVflf76UFH89FO7Yh3nVji0Y7fPfhS5aVfbJLu60DL7PtQe3HvBrR23Xw1UJyKeqnUQYH4k33LiqTrVllWKjFCc7lDNJs5zM9khgKOlVu/pgSC8k3vxTbECQGBD7+lfhiM+bECLmxnx8nDDvX0Y4ajoi8aO/gBgNW9fXZf1H/nSoy69VGMufevaL3xDMsNjx6aXfPBsUEi/hnk/BP9dR+MUM8v18DP91Pvee+sHVUi+PlKBNViWFax2PaI7OployUU/owVKXozV1f3m7Zf/+SNoV+4NiZSqlM6T8XSu08qWJcofWoW5LxrUHvdTKgqOh76aXXn3D+d6DVu+KzXtPETQSI2wuSyUZh8i49YTn46C8HmypydfD67x78DtgPRfBcY9XKWerkiTScOCTpbrw8NHXZakM0813zvzL8WlZctK7/yRq/y6hvQMXsWqi7uZ1cTGwqIB3RfC7e16RoiEGjOkj03naRCAsEOrtHbxQcVwEVVZb+O13jXtzH0hh/Be+AOu8u2R6QXzLswt3bFFV5H6zjNpodq4AMG+fe359iCncTVcw7IJw1ibX5/3ZwE2WwkiMWO9NtaDnBqR1xiEqnZbQ/85E8lR05bU3TM9AwA6J13Qm68sV/n9GEKkhDo23MhIiY798lnOha+cRUTgt2gCoHCGTbmBeeAqesHO5z9xQdnH1XpmeAzKlqxy4xABbAs3youbQ0XFfU6IbPyQ+u2nyK258LlezDJeNieMDEKAPrwDMjV+RtW/BffiiTWf/DxIN71Da9x48l+Z1sVVCGhcHdNO7DTBeo2FVxtiNVdYRgKrbXLyl8Bdj8Z0LkzINNnouaqr+ZbBWY/OCb53ryLvNamfw86WqcEXe1VACCRonxhE5JvGeiubd61bS6a0l3dZLq7xSkQJGLFfrxzUhDrGJlbN+wEe0jVMy2/uvWx6FFHrCw/9hy3+tKvDWg3OhVRiOYA9QFEttvAtmFyuWFeR/PRAP5U250MtD1wR0129bLPug11XzGZ1CTNpqNQbK6t7j7dnb0MgAVs+baKQF037G1ceygC79vqeVlVfVxEPN2wATJmDPTZX0DOzQ/q1oXPOS13z/hYbuPaz7v16/7dxLtG9hQqxbawowRgh4FsexOT7nMwKiaXqc01rP+3IJseZlcMGZm666bZJTf8JCE33rUpMRkoPc3jtTf/BAAQe/iOstb5b5yYq6+7zN2w5mQT7xpjfB8Q7S5k9WGKzp0k1aIG6nu219Zc7ce7Tnc62g7QTGqaPnrvo6nGuvdKRoz1ay++Du2P/QJDL79+x/veUrkrgeVX+MY/zxj/SlXYblO9oK25GIGpRBBEVDXfYub73e/Zzr/jqgp4gQ2RYdt3lejleQMQ6AgLuvOJFQbIqFsfBQA0/uxGJ7N27eEm2XZlkEmdFsS6DoIxETV+fnV4y8q3XG1VIt4u+O7kOV+9oUEAdXMlksuVmGxmlAbBAZlQ+G9t9/38j8H//vp9u/KLvuClgoyT0EcfhZx3Zf7njStD7Q//7ODs+pWf85obzvdbmw7RTDo/aMqyIfYWBcVe6znXLQ+a7/Kmvg8T76ww6eQJfrxzsjO09igdc8Cv48//+dXyMz6T6EkG+tPNJKQBPEigwIff+wS+Kjzdgx1AjIoBelVJqgD6PHlJfjzITIy44XbUPfI9u6MreYzX0nytu37lqX5782g1prsl3AacvnwXrU2X3XydhAKi+VbjWEeFSSUq/Ob66/xE7GTNpR9KPfd/z5ScfUFcbryx99efPijMoOJjpwMAIkefuNgeNnpJ0LzxOFhhZgS9oQEQKYIMqXqz+OyL4gDHDwwEDQcjoXKhQCp69wzLtUsrGhzH6X1HW6MCa+fTmqrvA7YtoapaCwAeWZFvUtRHfuQ01zWf4rc03uK2NkwPEglYttNd2N69yhc1+Vphq6S0KVwxZOFuPbnbX687E0D+Jtpy/21HuWuWfclt2nC+39E2Qn0XViQKsR1suxJ5n1cm73leT+FVAKukFBoECOKdJUGs/fBQ7cixJpM+Sn33Hl237jkZP96vP/mAvh1vJ0Q/ZEpa24EaUxTE45uqnDp+f+/QzNL3rnY3rrvWj3WMV9+FhCKQkNX318K2IZYN9V249XXjTSb99a7f3V8P4HkZM2ara4GufD3U8vTfTsiuW3WDt2HtWUGiKyqhMMQJo9/dZrdoTRA1MOkkPM/9uPpuRVckYulzTzwuZ1+SHshkAAD+lf3Hpp+Tf3hoaHzFgs+6jRuu9lqbjjHxmA2xIOFwfgFBoJcJaC+IAGLDyr/P0GzGchvqDtRc5ksmmxnvp2L3p/717GslJ5yb6e3NuDiURkr9kDH+CA38g6CKIJ2GejlId7cR2A7EsiBOL27Fm1px+kMVQAyWvUdanpt/+I1hXkvH6UEqfZEf6zpD3VxxfkYiK9/qscku7m+yTbIgAumeuUzdnB10tU1zA38SXO+AjlGpWeZvf3vDOuccf92nDu25lA0YubI7GXjvreLWJ/9wam71isvdxvVn+p3tlQh8SDiaLywOZMV5z/fRtvO1yr4Hr6WpKkjEztdsdoRCH4o998QfK86+pBNAv7pUSqCA08uahL14ET1REWxc06fg5hV/Hj0fnKJk5JPpte9/3WvY+Cm/o8WSUAgSiebbR/p5nd307O73V2wbcBTqeQi62mpNNnOaScSGuy1N4xN/eew3evjIpvKJpxasRaagfb+kvKq+64H/+WPqLw9PEyfksJVgF0SguRycAw543Rk+5h0RcfMP83Xrq9WnH42JL8yHlc+/i3r9RJWMXVJaXzqstPeLwu3qbcrfIIqN60YB4D9v+xaS//qjtL773rFuW/PXvOb66SaVgNXTKtCXi83/z951x8dRXd1z35Rt6qsuy70bcKF3SIFQAwEcevtCCb0mEAKm9xAgEDChhJ4YCGDABIfeu7Fx75Zl9dWutk979/tjduW2kuUiN3x+P9sra97MezNv39xz373nOg5I0yE8PpOhrbdCVdujd6H0/H3BzGi5//q90rO+u9xqrj9OJmIKBEF4/Zmh9O4uMUsJIoII5AOOAycSKpTJxCFsGCVNHVEPM79KRDL25IPIP7t3vCWrgpgBx1ZgmQIAnKlv+hs/nny2sXT+JU6opQaqCtK9Kz25jgV2pOshXNWIcxywY7meUVVzjcJV72XmM6k62DRgNy4fk5w/83dWw4olWnXNwlXXgtC7748wli2+2Fyx7GiZjBF5vC6JXPV8jg03rCtjgGX7wuz+v+TMS0jtwoDJ7DboHrBlwomERli69+KWad+GmPk1IpJtf7sLpRdvvDZ65Jm/oeh0Nwws/tJTfWKzvj/RWLrgHKutcagra+ztvF+55192T94BO06XBpl77xW4MRw5SC0RyOsHHAt2OBRg2z6GjVQQlnW33dj4tlpV5bT/80GUnNn9vHNMEyxYEnMCkhMgBMjjyeQ3dF6wh3dnkyFj6PXGdQlulWWXWDdce0Zfo2HpWU4qcYYTjw7gVLyTCHB2B2qljzR3VzuP6+oQAdI9gG3DjoQK2bbGg6C05+VHAUwfsMemzTVqfexOlJ17DXjm997W9147JrVo7kXWimV7O4mYmzDqC3RPVLO7qI7tOm/WGn/WMBSu93nN82R/1nQIRQMbaWGuWLon2Ckigj/x2vPPBo45pR3AhnuStxtzg911bX1bTZoEGt8P6fa5avyNt/dKzvj2D2bdkl868QgJr89dQ5lzkIHsTndmx49XURFdI26XRHb9V7JbBO5h2fVf00G6BmlaMOuXjJJG8gppGYW+jtETASxZ70H1EL1GCHjWLNCoUfAOGPFWuqzmHBlqGkYeb68bEts0HAek6tAqaqfmn3bFYpx+JXjhj6DBO2/pnm2zyOYPgKmIAWWda13GA0uqGveWVy+hQ4/ftHJq0tGlZXYSE2thY6nZ1PA7s7HuF0486ho9a67IUqJzRVklVICl4xp02bAJIjBLCF8AQtUMJxZNr0/X2V74SQAAIABJREFU2p95BCWn/96VEr3vTwelF8652mpa8TNOJxWo2oYTU4YJ8AIQCgCq7XkzrMyPEB5Iy4BRv2Q3dpzrG265jLMGaeKtSQgc0bsqDEwENg3hpJLV9bdcMrpx6kv7mS31l9itzTWk6e5LQkrAtgC4BqVQtTa2zHq2LQdgAhNI0x0lL7+IWQ6RyQQ4bbhhYTnUMkjXIc00jMXzDg5PefE0ABPcW8KIPP1AbWL2tNPM+qVHykSMSPOsJBcMcEZhR/HlgTQ9zI5dz2baZCkzcSMExetXoelDOZ3ySjPtziOl61cCqRqkacJua97Z0L1nhx//yyIA00sv/iP4qadAZ521wfe37YmVZCDy4sSajtnf/Z+xZO45dmtTDZAJT3MHn+PhMCAlWNqdBqKie2MQIgRCityIbDAgwOSFdPpI09DYNlZ65SjH/VdUgARkPApz+ZL9oerpyJvPR5j5MyLi8LN/Q/FpXeexMGfMOwmFpfSAXWK51jtQZqVGexj+JLkLWdKegV0f5CY2+zJxcoQ4ERmtD99WnZj59fl2qPkcmUyWghnQdHeNknLlPLUt9xmo2sqQpswxbJsZB4e2Mocq56Xd8DwighOPasaKpYfD42kMP/3gncVnXNLS8MQdqKpLb3ToUOjJexE8+yoY82foLf99+dj0gllXm/VLx7BpgDSPS7O6mp/MYJbueBQVwuMFFGUFg1LEbIEyBRcYHpZcCtssYNNVk3Pn4RphbtnJ5fWBTQNm4/JhEMqlgrT2+JRJL+UdPj4dPPUSN7wps6OxAz1Ddncl/dmMQalZP1xtLFt4oEwlSHh8KwndmpDSJQHSAXm9UIqKk0SiniWnQCvpADErIFHEjt1HppPgdDKTZO6G+xJRlhq4r77MO8COhEqVvOITFVV9FdsiIaBRowAA3l8ePzfy8ITXE28+czWx3Gq3l7Y4iMBmCmpV/1lKQfB9IkoA2EEGNgEWHTG20IHcl4gGYF2VijNx+yIvL+4dM3bFJu2Iuwvrh3SKAYCfv0NrWrb4RGPZosOcjrBXqDoYboZD50uTCCwdEAikKp2LBZB5UcB2jdCMJ1om4lACBaBAXoMGJ9ZFT9ZC+NUXUXzsSWBmtD106z7pBbP/aDbV/xKmIaCqPY+BdRfLehDVAVAybpLZkJhKCvdl0G+xMja1GIx+IHh7cmqh6pCWCauxbhe2rRub77lG4ZbQa1QetHjGDNAuu/R0uOsNUlVI0yC7vW0c29YdTiw6TsY7KrKGDJsGSAgIr88E0XwlWLlcKy77xm6u/8ZqrrclpCAQ1MpKS+8/tMaJtP/cal4xko30IJmIF7LtGgokVg83Er4A7FBzaeLLDw4JP/PXl4pPv3xm9Im/5aXq5h9n1C891Y6GPcLjdQ1E6RocEAJC9xgQSp1aFGxSK/t8RAp+MBbMSljhkBAESKHBWztQ57zCX1lNy4cjHOoDTR0kU0nXiyuUtX23RCBFhZNMwGxpODCxcNbJHS8901B4wumtG0MG3HoLrmEdevbR8sT8maemF8w+x25rqumM083ZkDPGNIN0r61oefVMMgTVk9SLS7+Gz7+QFNFBJLLFAAVbTqGMtu9pRyPD4FiFIKqWqUQRs7PS8FoVQgBQ4SRjMOsWHix8vrbws39rZ+bZRIT2iXei5LxrcnQO8FcQ24YnRUlPnQgUpJxYOJ+lXPsaigJkjInuCFlm0IC04Sblb3D4kE92Fx63QSAQM7Ejg6Gn7ts9MXva8Xa47WwnFivt3IECA06WDDggzQslrzDB7NRxOhVhRxIEUWYOSyWvQBO6p0wa6X7SMMCWmZmDWm4zIqPu4kTDBebyxSckPd5ZnIg+S4ECczw/B8aG5RMwMxrvvATBs68Cty7TWv/9zyPTC+deadYtGSONtLvjk6s/DDBLkJSAIAhfoIUIrRBKXPHnLVXyi75iRUSEUNMsIAlSwJb5MpUe4sTDe7ORDjBzFZtmBdsZ5aU1HQfMnQnnZv2yASTUi1ihVv7PG+/Tb44yd5CB9UM2Kdt8/43C9q8/PtlYMu9gmUp6KAdZX0lc3R1fJb/AFKq2WJSUNirFwZmKL/AtkRIlTZUQcIm8ZenSkX2cWMeeTqStn4xHi6VtDZTJhM6msVIEYtWQMykhAgVptbT8M93nr+vN8a+2+vAXk0B7bzpPG7/7KugXx8K/56FPpb+c+msn3DKM9J5HbfykYFsgjw9qZe1/8o88bQYuux3mR1OgH3j4utuuB5gZ8WvPQv6d/1zrd8YPX8MzZo9Ner0tiflHjMbQt6ZDCjkcwIEA5Xd3PAGQ0gF0T0otLl0qKha6mf2bKoeDAGbpB5MfAFqboruml8y/wmlvrYRQwJmwDZYrwx1I96SVvIIIkWiV8WgSZhoMEKRk4fOwUlKqginoJKIV0kipUFQhfP42Nb9omq+4b4/CnXjSJNCx7ve+/blHd0ktmHmp1VD3CzYNQRmvXg/O0gRQK4B6gKeC6X2AVYJkBoXYFi0Qjp+I3uNs0i0wCERHEWMkg0pAqAWgdXkFIghNhzRNsloadk4Sbot88VaEmd8jItmruTZEAEvIeLRKxqNlLKVGGYlLOA5IKFLkFTZrwdKPpLRf0IJVczyVfTo8LU0dsWhC2j6ThPDB9oPzR4z2OK3N7yp+/0CW/BtzRd0hdmvjEHZsFbTG8FUVnE6R0946Irlo4ZkArjKT7SPMlobfOqHWSlIzibVSgjPeVNL1ViVQ8IHiy/uPULVZSlFxs1oUiPrmzZSR9gSsUguUzkdeWQUZhcFvYRtFpGm7sqKei9aGsdIwfZASvKo86Sr3gVQBJ9GRZ7U2HpJuWfYJN654h6pqrA1J4Fw1+TH9wkN57csX/cZYtuAcu6WhhlS1awNZSrfgn64bwutrFoH877TisneYzel2LJbwVvdtdXQ9ARa2kwnRUQ0DMp5W2TGnqEKUCJ+/Rko+yGlvPkwmEv3ZMl0dyDXj9IUAaTqcSEg1Fs87glRtmZx4x70AQiXnXdN1AudpN6LgvUc6jHT6Xa2iajSnEruwZYA0XXJmDARi8gcUUeSrkslEhUwl1DWrFK+8WQwIkkpRcLETDUdgWw7UNSsz5YZL7jodldMgedPqxpMAE2l2e8uhkf+9PoaNdB9ppEpIzRA6KQHHBhQFwh+IC493GalqSuszaBo59pT0ghnLHDNFEIpLrvML2Nt/iKZW1uyWnj/7GCvUUk6qWgPplLJlZUK+1h46qaqbmBlu62M11V/Q/MCNS5n5fSLiSWv3ep1gZswmwqjMz83//uc4Y+HcS81li3aVRrIzTDBHQ7gyzAqEP69NeD1LRFHwTS0//1s7mWyCjbBWWNTugGwtUCgdx2J4bGJbV/VkMmB4tVJSPSUynTrAjrQfxqnEMGmmS+A4tNZOEhEgVJcULF+0B/yBi9p8ee3hF974pvjkozj2xkTkH7X5i1xti8gmZUcXzdovvWj2SU48mk9CzZm7w9INuxSqbiulZSvU4uCnnsq+r4iS4DxWtDBbiY68klLH4/cxSwlyHNgdHSIF1Wtbzmscj+SzkR5iNNX/xolGdnJikVqZSJS4Ow1uyCy77xbolX1m+EfufL+fi5t7c/xq8wVH7F5+0qXzaf9DOnKRgY3JVqdfHIv7Aei77TO3/c5Lnkt9/s7NkA5thGdj+0TGw6j2GTBDqek/RQweEQOw0WQgl4G06s8dN15Qg4KCvtrI3Zr1XQ+uU8uC25XE6dC3pgMAGPgZSOyGbozNzHGAlEy6p0GvrP0AdKgENm0OB9uOAkX1d7zzwtDoB+9eYDU39GcpITTd9QxnPIgUyEuREHOFL2+WXt33O6Hr36RmfBdnxyESAiwZxMRqSTn02oEjknN+OEQ2LS/wDhruV4IVPyp+/6ehjoVyXd9fV1HI/X34P0/3S0z/8gKzcdnh0kgpXb7sOhuzWwKWOArgL2D+mAhRJqVx6Ovf58pfSAPoLKe75OBBM+1A4DsCBRgYA+AyEMZ1edFMkTPSNcCyYLU0DEl889m1/v4jwgC+faq3c23cQmXEjrMaGRBef0wpq/xWCeRPUn2+/8ohg5f3OfOPuUPNpi4CHvyvDbeQT33bE/csUH15U9OKeoXRtPxAtm11tQRTZpCqgm2rwKpf8jNj2peDQq8+faTd2rgzOzbIm+cmVjo2hMfDaln1LNL1R2Hbb+fv9+vlJaec0YXSRiPw3nwAqAdQX3fLRYu4IzZTEfR7OxYd73S053MmvGEtCAUwDciO8CCrYdnPIp+8+T2Ahg3xvmbnpvzsHS304zf7WfVLzrVbGwchG2ObC5nwC+H1x9Ti4ndUf/6L5A3M9A0c3BD8/Z/j7kFvdXfZGIA6Zp7ecOcfvhMe75uyI3yC1dY0XqaSZbSa4s0qY9Z02O1tBUb90vFKQfG3xtQ33/IccmQ61/eLJ7kqJcDvHfPFm+fZrcW32opa6KRSBJWYsoXSHIdJOqp/zB4nG4sX/C69YFYBqSpyKYqxY0OoPsPbf9h98TnffoVYXAq3mva6brObCsKdnyMMp2XdjdYD7ndPyHSyAolYhZsAm91xYbghcJ6U8AWWqCVlHypFxa/KRLxVq6oNlx92RgMN7JPj3fM1Up+8M8duavzQScYL1MLiX7Jtn2EuXzIIGfGENZ8Tsxs3zo4NO9Qy1i4oPiL64mNzuZVXUNkGrA8ZMsDMFHn83sGJRbPPspYv3lsaKTd3oas1R0rXa1xYNFMtCj4uvN5PRUlwWfV1D4Zo3VLWMQBNANB4w0UzoapT2TR+7kTaf+vEOnYCS2Wt+SEIEBpkOgVr+eJDzKLihXq5fy4zR3fkIK4fYm+9VBP75sMjrLamvp0qWGsio/hEusfW+w/9VKvp8yQb6Y/Lr75zRQ+k4tMAIu5peE7DbZdP04pLKtjmQ83mhmPtUNMIGY9qAEjaJjw1/Rs9Q0a9VHLyRd8AQPTph1BwRs9roqwPVI53PBl69dHP2++8ZLZa1Tdkr1jaqlQPml145uXLgdzZ6nzukaDH3uzRBS6dPh2XjR4N7y77P27VzT/SXrpgT/Lu2CXoBBFgmRCBfKhl1a8Unn7Vj7jgZhgfvAHPwUets3ln/aScp175C07E80N3XDhM+AP9RUl5gdPaWJmuX7ir82PjOG8qdq/v0OOexLpkxrYRLDhsMOCrwZD/fIT5R+2yB0McSkBwXe0yHlZW8wtaPNUDP9/UmXcZww7msoX7Wc31QXPFsqOzMaWcmQcQCtRgRatSUPicTERf0wvy6gP9B7YX/e6aSO6zfglmnttw9clfcwPp/pqBKoLFEVFU0OZTStZJ5ulg14jj0Dy94dFH9jfrFh0mE/GAGwqzzsTmKBj/AjBTUayXBr02qyn7i/lHj8XQydNyNlpyYD8M+HApBhBZyMRDLj9858VpEiEW+BmA00BUkbNxdsKrKshxkJ4zfd+2V58+hudMX0wjRrfnbLMpkQmnQSYeWOTlpzx9B72qV/Z/QC8tn1d8xsUJAFh25cno95cXujxN8/1/QsVlt6P0/65uBNDYdO91AFGesXzxnizJvUYWigJmSXa0vW/r849MsMKte7JpBLLJqWzbIFVztMq+X3tq+z1QMHzY64Hf/D6NR18HADRddRoq7322y74svey36Hv9QykA37VMuPAusyAhDfApdluLn4WSgxC7/WMjnW+3t+1pNKwYAKBhfW/lqpr+oTmzqoy6JedajcvHsmW6ntcuwO56GVaD5f/QS4qfq77tqVmkKJ0ZfK13X42yjGxpzutOuADlN/0dGcOsCUBTw3Xn1oM4YneEz5WJaJnrtFo9ZptUDWwacNpbB9itTaekFsz6DsDSNccCADT+pk55WP2kGxx0E/fLic9Fy5NTf8aOI4lykJFV+sCAVErLlw/9z3ffb7ih9yWAF9B47zWouurODTxHFyDhyjBm+2ZbgBDQyioblaLSf7FhTPWUlM6uuOXROrf//wZwHQAgPOFSFN/0AAB0yoX69j80BmA2ALT+9YZFRkvDYicWvljGOvZ0FdVyOBfJ/Y7KZILscNteZqR1BErRDMBe313E7JHpV/9ZlGpYdqzVWHeyTCU0UtTcSb9wnTqkqFBKyj7SCooe9vQdPLX8qttcB8mf3Wri0YeuRcFFd3R53aabL0flDX9F1c0PtQP4uvUvV85LLdXmkqJe7ERCB7Jti1wJs+Txwo6ENLux7hCzrOqj5keffA0A71Aq7B7MjMXHjsag12Yg3bRshNnSuCunDRVKjtwVZtdWIMA7YNjn/lG73RM8+ex3KVBs4vqH0P7EPSj5v9yFJFdF+1P3IUMelgBYknzlxYUdP372sVIc/IWMRQ6S6dReIIT12oGP+/oOewYAkq8/Af+v169q+vpAZccaYi6aPQTLFiXAjiG8voRYsXhO6E+nLpTxaAi2vbTgpIu+1Pc7bCkROQDWIgORv1+DogtyLyw0ejQabz4T/sNPaIo9/9d7461NL7KRVKH2ugzytgEpwdKBWlb9rnfMfv+hvIIEgG7JAE88F3TeYwC62q1k3Xj35X7x914bzUZqiCgoLmi77rRK2REaZcY7quE4GgnFw5ZZSLpuQ9ohAJuvjn0vYvmhI1H79mwAC7HwqDGjJXA5gcflyBpcHRmDnPILDaWk/MeC35wyDzh103ZOUQGWMBuXjgNoFBvpQmQSiaSRhtB0qVXVfqZV9XlG1T3/q7jupWVuw5cBAG13X43SNQydxq/+CyIykK18/Mb3Pe4OT3oYlDFiWl+YtLPV3HiGHWrpw9m41G7JADcCeB5wHveaycayyoUxvhygTJ2qrsgAAAz4aNlaE7d2yo/JppGD3kkM8E2XQqlj0HkARiKXdcRAtrCU3RHWUzO/Pb5jt32nA3ip43+vo/CXv+7xPdgwuHGjQlGkWljyvH/IyPuC5147BwA+mHonDjrkGlA3ZAAAKi67HQDQet25KLvtMVRceeH/mm67e3cnFtnJjrQHoK9WnAAggjSNovSSOcexI30MuB50xwaBoJaU1+t9h/yj9OcnvK7tsXv68Vs/wP/VXQV67LtuyQAA9L//352fy296eEHzHVf93U7Ga5149FdsGIDmwVpzQVEhXdWhSicW7suc/prIu16631kDuvWVx/LsxYuPNFcsO0Am4rl3JQD3RWyZED5/SCuvespTWTuxasLfFuNOV+8+a0R2RwbcMf698/OCWy7EkOsfRvVtjy1quOG8J+DxCbuZz3VikSAp2lreQVIUsJEis6V+/3SwbP/W155oi+3aP15e+/O1rpOtFbEuND70stcJh70yESPXAOnmYGaCZQasxx/18WP/TNG5Z/boGrmwyckAsDL51bEzzyoPSmHR92pZ5VP+obu8WXLQHnU0+ACJWydi9rMTMPK0lbtKWTIAYLXQswUTzsKQm55C2eU3t674w+mv6mWV0skrusZcsWQXWKabrJyjHyxtWKGWsU4ycaCMhKcBCK2PURya8hyCh58KZ/onavun7+9qtTYeZ4Va8921pwtZUccBSEANln3kqe53b6C85r3CSyekAOD728/CuD89BQDdkgEAqLzBXUgXn/gPDPzXOSi78i8dxiP3TWma/bnDtqnJeGwfllKs5b0WAgSG1dI02G5a8eu8kZ73mDnWg12JnzQ6pZyZRdPtV46TscgAllLJLQfskj61qm+DZ+DIF4JnnPg/0out+in/QJ/Dz+kRGQCAkrNcyeZskTv/cSe1Afig7ZUn5poL574nO9rHCn9eSOs38MPCY09uqXvkpl4lAwAgREHRIk6nPHCsEthWlUwmBjuNdYcbc74/36pf9Ecn0npXxzP3/rPtoiP+1fr7Xz3RduXxVyT+++/dmLmEmTUAa5GB1j+tbkhV7n8GACDvxPPf8uy0xwNIp7GJna/bLmwLSkFxs1JW9Xhg/PkzAYC//XS1Q6K3r14ZM0sGmFlj5qL0nK+Ht99z+W+bzjzggaaz9n+h9eKjX+j41yNPWssX3mfVzb/WmP75Jday+Sc7HaHdYZk1sK1ytsxCNtNQq/pO1QcM+zpL9rZlLDl8JGrfmQ0AWHDkLrtLwg0gOhLUfe4AADdUhyWrRcE6vabvB9n7wZM2JPK0K2QWnXTKL1OJYlCWDBggTXe0foOmBEaN/XP+Icc+XV5bumzN1sGr717rjJVTvtjw3mQMsvTU/5RaTcuPdFoaDmTLFl0WR8qAXQWEt4jlI6y0L+j7zsKo72kwbWDR2qZfusnAlbMXyUFvzWxQKPkPMJ5kRn33A3DDh5xoZGDyx2+OtqMd5b1OBthVEhL+PGgVtc/owbJOMgAAB32WWi/ZhNJbJwIAiKotvU/fl/U+A94lzkiwrAkpFZlK+NkysvqagGSIQH673nfgU/7Bw9/Q9tg9DQD/V/Yi6LHvej6sc8/t/KwWFs7Wq/o8q5VWLnZVk3L0JaNoJFOJUqRTe8Umv1re81EDkeddozz+4YeExtaRdlP9GXZ7a5CZcxMCdnMGhD8vqpZWvahnyUD21xMO3KCE0cF2aefwqm+euEQvqZyo5Bc9LXz+KLJhPasiEw/vhFpLrXDb0Upjc22fr5ZvlOvVaW8Hm0ZGTSxH3sbaLUCmAaTWS0Rs88FxwJYBEciLegYMedY3YPA1mu57puT/rlxKgw/o3MkZMXl2j043GH0z+lpAzd3PJP1Dx77pqRlwn1pU2uwWdpM5WmUS4GMRrxOLjnAalxat7zCCh7t2THjRgqDZ0nyY1dywW2dybw6w7fJhtTj4rVZe/ddAn37vZ8kAAIw1+q5vFzDgxXM6P3t+f4WhFxVN1av7PiJ8viVgufb8ZAZpGpxkXDOal++eDJu74uPPd2wN9BAtf7+5xA61DJOmmZ9TySuzNAtNl75BQyd7y2veIL3GAoCar7p/XXUFOuo88IQJnT8bvzm7UfPjI0956SP5w0e8GBy31zIAqA2O2KDzrw+EZ9i4V0jTXQ2rjPwds1TA7IPkfJlO1titjftZ9YuPtZrqTrPqF18fe/reF5pP32dq60WH/St8z6UXmrO+3pM7ov0Tk58rAICy259bfcAHHwzz2/dAii/l232/B9URY7/nRLznyiXbI4jcBUTXoVTVvlB44YS3AaB14tVIf/32aocW/OlhMLNoO/WACmPpgiHpL97br/3ey89vveSo51vO2Ped8K0Xvmx+/8n9nIieK8Nt4+3lC45xQk37cSJeC0fmA/CDWXel7ZTO5wxFBRWVTwuccnkrAHBTr1ay7xXwCSs/D5jivmAWHTV6TynEDQCOAJDXoxM5NsjjY628+gu9dsjHwMblz3QLoYKUjASfY4OEkHrfAR/6x+x5T9mlN39csO8hFp3+ZzTfdulqzXJ5tzZUSo+/dQ1R+4c5anT2D3vY7c2/cTraNVJE1x7a7DWB2cT8snSMuuGv13e+jfnADeoKKv83Awzgi5uPAAAMnLwgTcSvAvwB3HjLLiFUDWCppmdO27f1kTt+DQCLjhvbO/LGnDHAdW/MM2TkK77+Q26ruv3JOQAQus8Ne1jf50FE4A/cl0HwzCtm6VX9X6e8AspKFa5+sACUVWoJ2G4SsRas+NI/atyLRSec3QYA7RMndjoNetyPxx5D+51uLYHgBdebnmDl+1px2SekezJkOUcjRQFbVoFMp/c3I601AHp834tOuQDygymwVswuMuORX5oNy/ZwZZfVtS+Vza1RVVstCk729hnwSPWEvy0EgGn/vhF8wgmgmz5ar/F2jvumm8DjT8Anz10GAKi+6W/L1Jr+/1SKy6ZCCGstY5PITaBNp+G0Nh5gRSMjkqYhACD04IS1zt8jWLYbA97jGk/CDTHcGpHZ8VYKStp8Q3Z+Im/MnrdVnnr2e5W3TuyMZeeJLvmkl17q0SnpppuAm4D6S44DAAQvuCamVvV5V68d8Lbw56Vh59jcJnITjx0bdntLn+g3Hw6KvP9itzlkqyLrCIq+/ZIm6+v2slobD3GiEeGGUuY4PpP7JQoKZytFJXf5a/pNLfz9dUkACN16+cpxrCeyj7ntD2cDAKpueTydP2rMO2px6RTy+BKQa9fbIEUFHAd2ONzXbms5Ov7jx/lAz7+bP2UYs2b6rbaWAGzLdYzlCBciIigF+QmtT//JhSee3QBkcvE2QtY227bpmXtQQ4Syi+9xyi67K5l//PmGGLUnh557sHdskTUgtCGjJ1EgLwHHWjmxKCNplk3aIYFMUKvGZrpIJmNDZEdoV6eh7tfprz+8NXT92a80nbXP+/G3n32h/f4//iH51rPHtl5x7MGR684ayMwKAOi7uVuqvsNPr/OM3vtqpapvCyfjXbLt7R7SATFDKa6Y7P/F+EfUiv5RACg77x74LrgNvGKGHr7t/GHpL/57cPQ/j50YuvF3d1tsvN1+xa/fCd972b+Nr96/3a5fcqwTDu3BsegomUpUsm15Xb1AobjKA5SRKlPW0rhmIwW1vHqBWlr5HhHFAIAqB22hm7Fh4F13BWXeKXxqgdJ26O7agiNH7+2AJhDoVwB5enYiNyZQr6hZ4ant/07RkeMbgNz5M5sE2Rc/M9iRrFXXLvQPH/1w+e/+8DEAhB6/CwBQcd0D3Z1l47qwm6umkGr+Pt9sXL6vFWrZpdPY6erF4XpHUmA8o9jOl8PenmcDmZwNALRhNpnbFsDeN7zVea4hk39YQuAPwBzqrh0DIE0nJxHtY7XUHcHM6qBXpvVOvKxjg4Uw1co+3wR23vXaiuvvX0hEaJxwHoJX3LbBp6WDb0L4+YcAAEp+wUKtqk89210U1soWEM0QBuEN1Hv6Dvyvf5ex9QDQ/uRfUHLehimKlFxzF7661SVlJDwREcj/US0pBTv22kYQs5tHYBqQ6WQFG+kCt3vUY8Mj1LBYGB3to5zWxsOdSPvKtWpNuC9hVvMLZmtFwX9XTXhwNgDMueZkjP3tjT02LLsCvfQS9j/1fjRc7Uqn1t789x/VQP4jujXYAAAgAElEQVSrwuNvIVcSa/UGQgCKgB0Oldvx6Bi7rbHA/s+jCF6yoQZBRv2nx1M2u4uwlRl4UgLSgRLIb/MOGvlE/l4H3VtyxmXzaPAeElhp1K4vWc2iz4OvIPL8kwCA0uPPalILS15UC4sXdn4f1gQDpOmwQy3D03Nm7ZueNifQ02tl135z8cKA2dL4K7u1eSdXFrYLdSPHgeILtKilFc/r1bUflFxyYwoA2u76A4J/3sCt01VQeveTaJlwAQCg8Kyr2n1Vff+leP1fQwhec+ycyUPhZDzPCTX9PM2pfjtyCHoGu3G5cOJhsGNxbtvU1fgThcVh8gTqACD2wsTOXLyNReXpucONNqjA3AZAVbXAQnXgiLetmd+esGY1tU6sWRRDIYAVMFiBZRVByiIQ4DTX95VNyw9Mv/eqBd3DMli5MHzjOd9F/n7zUuvHz+MkneXeEXvOyjv7mvejzz9wffLNZx+S8ZgGrcfEfftAxuOlVPX91n/ICbcEDjtxQfTeqwZa4bYx2sARlTBT+e0T/zrIrl+0V+rL9ytBpEFRPSDywZEA5Mpnko1xW1OGbB3XJyKI4rKvtHH7zeu1ca6OnuyF9wiLjh6LQZOngb5zQyIaD9jZtyAixkG3fgPQkQAGAeiZlFXmWZCqwTdq7LPB/qOnAEDbi0+g9KRejNdzQ5Sg5hdanoEjnskbMeZdAGh96j4EM7GFvY3ol5PV9PSZO8tkYm+ZTPZE19wh8G0s5NOOHYkCwJeX/RxD7n9vk/VpyNsLMfnf5+Ho304EgDkA5gKoQHc1U4QCaRqq3REZGnr+4aPCodmTi4MjN20IXGarWPF4Empp5Q8lo0c0Au7OwMaQgSyKT3FVIxTIpXpp1WRj0dwLulSPYQZYgnQdSmFxi1rVZ7ZSWmwAQMnZV25UP/YYegaAtwDbchR/YIFSXDrLamkalVO9QAhAqLDDIcVYMs+f/e+eGh6yuQVsJne2W5v36dZgYQlonqTwF7xevOuYTwF3B3q4Z8gGjbErVN/zFD6acCwOvOlVaNW1M6SR/tIyUkdKx/astmsmBMCAE+uANFJjHcMYGK5rnoZMAbSfJJjBkqEECts9/Qc/l7//z/9SeMTJrQAQfv5hFJ9yIUrvfnKjL1N0SoZUFAedptuvXCD8eQ3C49mJbTu3RK2rOFToJGKjIJr9yKi79GhIrQ3U9uI/BtiR9rEyGXOLRnZVeEwICK9/sfDmT6m69q8hAGiacD5K/7h2mOeGIpv7kskH+HzxKQd/RULbhx1rdcdXVpnMsWG3t/bl2gH98cItc7Gd5An2JiRLBuQ6fBoEkGKQZTEA5J+8/Ui6qiRtw7vLvk9bs74/Aewgl9zZ2sh6MzL/djIpVpiRl63a6bSs2M1pXDYGju1A90iRV2gk5n03v+3aUxfYyxb4SfcZQPQnxgYAgEGKAuHxBewVS89uu/6Mi1KLZ42UoeYB6Wkf+0EgUjQFQtGgKLTSG0Q9KFyzDhCB00kowYoWpaTidf++v2oEAG5oAFVXb/zQugADccHc2Ped79Yr8TAXBk2ehqXH7OpxpDOCmSvjLI4A8SEAygAUr08oGts2SBA8o8Z9pdUMeF0cflQUQO+SAcA1chTF0fsPft9TVjbZ/4tjYgBQthnIAH/wAejgg+Esb/FYba0j7I72QWyZmSrJXbRxvZGLwPyFkjZbBr1bzwCw5yYkA1kc5ZIBVHVY3zcUeZ4lYFcAXccACwFybOJopNJYMOeg6lMufBOA40qqbhrPDQDXOygUdjrarbb/uCEFm4IMrAqbS0JUEJ1J69g5ZWYITUuKQOD7vEHDZ2plgzYJAcp6Rj07j7Sd2bN+pKYVnwM8qoujAUFgy1IhZQUvX+yl2oE9Cmxve+VRyI5opVzaMs6OtLn68bn8BVn5xryCFUp+wdeBU67qNOg2tvJsLhyAXQC8Cn+/AUuspvpPIMQ+sLlqLY88CcBxIJPxvWUqvhM71nT8xAkBKWSpRcUfF+x7yMNZMhCZ9A8UjT9nXa3XC7FJTyJ//NmAN5AUBUWLRaDAsttbNVLWFkIgoYCTcUDaAcUf6JGTKEtO26e+7nVM4yCOd/Rjx3FlRtcCgW0Twh9oFcHSt7WqquUAsOLmC1F5w8MbPda1+nbf5aAr3B0Hpab2M6xY/gsnEhrLLJXVdDPccD44kbDXSRu7t0W1LwC0bvIObW/oXIK68o7DTewnaKSo7P64/ey+qNqhxzB/9eFX+vDR/zVmfP0rCuTlZsE9Aq1eUp3IreiSqeYp49EAou172HXzdwMYpHuVnAoB2zsy2/5W/eKh5qLZgwEQqaqAUAR5fGsct4khM7sDgcIflcr+M7PqA71JBgCAGLWSxAkLjho9X7rXXO/BEQAhwZJYmLZTC8LPAAqCuD+I1ikrutq5iCDTaUAQ9D4DFvt33vWu4mrfDADg118H/boXk1Olq0Sh5BdFfMN2nliyf9VswE20LDrlgt67bgZ08MEAADsaK3AS0T1kMrbubDdGTDCmEMt5g96ZKwFg1gkjQS/1LDFwvfqX+Tf/49nWgqNHf8ygjwE6DN3VkSCCNNMFVqhpXHTy8wMAzN+kZAArPd8ymVJoaV2vvAFKW02j2Yl3CF8A0ki5xDGXQJartx4T/rzFnv1/tclf9IH9juSO155pMZYuqMeqWverrUnu15hZ6lDE0MTH7wQB9Ki6N8eSxKY1xo6078ZGugsy6lYChaCo8AemeKv7d0po8aQTQOM3LlQoF7Iko/CkixLL/3DaTOH1h9m2q1xn2SrPIeOFldGOoFNYUpW9L/zgg6BLNs/2/lYFN4RMQlEbCo85ZSEALDp+7CYnAwBcMgBAqx4SlUb6E9LqDmTHHkFrcDYA7u5hOgm2LJVZEgDEJj2I/PG5nxFPmND5PbfbWjx2JLSXHe/IJMznuoBbQErx+hboBUXvVV5+ewhX3IGaXiADADrJAAAEaodNi7U0zmCWowBlNS13AsAEsGUpdjy2Dzye57CDEKwbzACJTESvk8MGcz3hTjRawobRB8CcBer2QQYAQBARWFfC+rj9XiDFrfK3SbFquJEQgKoL8nhV8vhUUK407p8CKLusKOT1auT1qlA10Rnnv2aI1ia7LIEtA5RfFBXFwecLzr5qHgDwJ59s+mutffHBIPyeQbcS4/YN+QPGbZJwO5O4A4Q/guiXIBq3vmQADEjDAAjQavrOCey0+80lp178GmoWpAH0Lhkgd1dC6HrSM2j4u0U7DXmPhp3qANgsZCALZiaKR6plPDpMplLILa+2GuIgnqWoFM7+x6heIANZZJWHTKW1niQ9B3C02wYkwLajyGhH//SyhWOdfz21yT0NnaaASoDdS87gGUvYikdsEchz1wDZhXNGCCZVSxMjRkQSwGpKFRuD0HMPAgCsSJhZsiX8+d2Hq0vpgZQDrUR7cU/Oz5MmwemIEMfju8j20LCuT84gQSCPtx1CfFJ25a1uAl8vkYE1ofgKG5XCoiVu+MWaycUAFBV2NAx27KpCvcTLX/FPkwwA7roGgFgqzKwCwMCXei6BvCEInnhaSvF7pkMoGRKaO+eGAbBtFagetZyZuyQDgEsIGYB85p8K2OrnRNqGScPIyHvmqjnggPx+iPzCmWpe0eLN6SkOXvSnBpaynlTVXrNrjIwDg1iR0fbR3B5av3fkTxUBP5Gikmv3dzGfmOF0hALpFYuOTf/3lcqhjrtrtT1AAIBn7P6O6it6Sx+911scj/aOMboaNlk4+baNbILg5roXjgMSAkqw4lNtl30+69wd2H//3r82wQOiChANBNEAEPXfgD8DQDSAgL4gKsaG3DxmwHGjlrQ+/eYFdt79fk9pxdMKEdPAG8EfPLVJhtslJAPMrBQGl+WN2WOiEhqaAACe8mDvXncNxN59WbetVH8nGimWptFtKBqDQeAGBoVknDdLWETl/2YAAEa92mBJxlcAfQNmo8sGQgAsIVOxPNkRHmYGi3ucQLhV4YB7GQQWusd9H+WMWZYgVQWpuk3S6SwmuKlCaLIJbMa8meBUgpVAAMglwQlkv4FCSifPSCZ7RMJo/HgU5VfrTjQ82ElEfV2WCJEOSFGg5hW2KIGCppXte5cM8CRXukwU5reR0KaBkSOx3XXayFQSsJ2BZnlBTaz5uR0vtZUvtc0SRiFtmSRVM0nVuiTP5JKCQgfawMSUV9YtNDFlAgx7hV8mU+OcZKzS3dHNMRYG2JEgiEVC83yp+rUI4CYSbw4QEQuvr014A0bOtcKVtSY7Fglaocau40F3oBP+skpHycuXpKiZ+7nmPc1EcBuWkp4347iOmd8c53z5SSC7a7VpZco3PwQvWeKGkAwfHtV33u0FESiIw9qRe7JdwnFA/rwO4Qv8u/DEC+Zv6e5sdmQ0q5kZev9Bi/LG7nu7Whh8LN3WaWuADj6rd/tgWxA+P7Tq2oWFx571IR0xUvKkST0uYrSpYDXUe2UqtROn0+XdlrsGQECcQB8T6NNB7/2YnnbWAZtV38TWGxsg+VkA9ejKnUyu0ginUpoTi9Y4tuEDNiL6cUvh3YtIUZR1KPUQiBlEQpLucXpriKrXy6QqcuXc6OLWu39LJtHjrsSdjiF2IjZA2nbXc48ZzBwhj/czrbJf3Xp1fiOQJRwavEkn3LYcjhMnJQdpyfbbMYs4maq023q/UPbWjC2he+REQ4AAhNfrhtflBIEYOrHMs1OxdcoaxhcQYq0dXicRHSTTKT8xVq8c3nlaAhQF0jRa7Fi4XtZW2AA2aSJxV+CT3bQeKiheAc3T5o59beOVSYBTCcDbM/Xtnzry99g7rpRXR6B7JDtO7glNAtBUWKGWssQPX/2p5ePJF8kpb+Tx61NpVWXCyD+6L5C4NUKlAQOQeP9leIftbof/9ufX9LH7HpX+7J0TKV/fBt+mO9AlMguGUlz+ft6vz/oY90wCf/s/0G6/3NI961VQJuyCHQvStpk0nfxj9/7EP3KXu0qqSj+ERwHtd+m6T7SJwJYFJVhep1XWTCUi5i8mgfbufX3hNWE1NXplPDGGpSxdp/QvQ2cggIxy09inPt4MPVwJX4dJVh5pBO6BRjF5pZUelWiorwDQsJ3kem3VyOFHWyfMpvq+nIyXkaDcORKZMxMjTpq+kKp8YQBon3gNoTerrrppglRy3p2s5Xsc8uoWJyAhObduGQHSlvmObRSxKbZCLdDNhw1KDNtIOE0rgHTKTR5GDr0KN3YGUjoF0kzX2u1tOoDU2geuhL7L7jDmTtMRC9cgbWiZGhhrn1hKCEWFEiho1QrLGkuPucRiZnQ8cCNxL8uptxOAFyawx180TyqN0x1wfzC8ueSBYZrw1tQO4ude+4hOPWabL0DaG8j6xPJPvizcdMdVs+36JTHHcXxQu0hbIwIpKlnh1ir+4YtLGzs6dlH7DXoewJSWh+4WhdVV0vOb01Zr0jrxNpSdd13vD2YjoAJA4GfHAwCKLrolHX/xkQfshTP3c0ItfeDz7yAF2wnYtqAUBeu0PgOf9+532FIA2zUZyKT4QRoG2LZYeHzwDhi6zL/LHk8o3sB/S2TpNPr5yZt9cWSWgKq2C59/MYDNSgaYGZ8SYX8ARssKnZPJ6mwxqG6/54Q0gTsAtrs+qPfg91SIGHMRgzzdWhxu7Q1FppP97Namys3Wwe0ZG2Ltd3e6rCJHKuV3olE9K9mY+9IE0jQhPN582Zoqbb7zojwrHPVv2h7lvnDjXRcl0rG4TxQUVyLc7oHT1VJBkEa61InFqqXRdUTbTwWbfYdA2t3sDKwESalCOn445jotddOMkpSyQKZStdI0VKaMY2nVNTL7UVVskZcX1cuqA023Xdqn5aYLVSJFQPQiaXUvz213XRw3klYpM9wwqJxrI4MtCyx5aEo2BwG09Ga/tlUQATxxIui886D27T9Nba6fY7e3lkBKtbMQ5JpthAAcJjsSqUrO/uEEta1x3Iobzj+ZOf5Gsmn5R/W3XdrireoHTiVZH9yPCw9dnSD0WuHTjUAn7TW+/RxEJGOvPPKDNnLcU84X714Px+6JNvkObO2QDkhRIYKV/y3600Pv47qHO6Untz+4nhtp22DbZKH7La2mpk7Jy/9GD1a8GehvvRw44vLOmLgt8aUkIsmJHqkzburrrvzBkSqbhk+aaaxT4hL4niW9I0zRfWJvLyGkhxxdVi9ncDOBKtGVI5KEmxCYSntkU33+Zu3kDvQI2TlIPl8BbENn00TuOjRu4TMwF1mtTcc7idhogCWYe1ZscGPAIAhKg5aTTMSHE1DcpceXCHBsnzSS+eRYP/n9qM19AxRFgyRr3Uwk6yHqBtlkdY7GCbZdKo10FUvOnVxFBEAAtgMnHhubqJv3R2I2mKESOJO20GsgN7FLpKVtBZ1UfGcI0UUJZZeES8PIi7HhW/uAHciCMgUdAyMOmua0tEy2GpfvYndEiokop9OCAdeZJh3IZEwzl3QMt5sbhqlllbubRaXfqPmFM+1w2/ckudlctGR5w6kHRFAzCIEBu3Lh+RfxmnbH1iBf2jnZPbvtAwDIP+736cSrTz/utDbvb8757iDyBnbk/27jYMeBUlz6pXePgx8jonDHTRdu22Qg6xHqTKTiVfarCaSqEIH8NiW/aIVWVvGDXt33I5Hvf6v0zD+0AMCsyr0wsvEKEI3fAgydQBAKm4ktVn+DmanxtstKjI52L5sGyNO9jUVMcwhy2pCp35vzDx+LoVOmbaaeuhj5bouzcL+aT0jn7wAeDlDuFxu5UicyFQfn5e9YtbZS8PzFoumVh/syKF86FoTHk2OHijKKXJbfam3YjW1nN/e/N9NjzfSHVBWk624Niq530ZgE1ieFYrvF1nsHiAFicDe5UpncESfSQDKdLIF0SjtfLF1UDWcpVTvcNopbmzJB/b3R9y7g5hGBNA1QtS7nJxGBhTC9qwgQ7EButL/4JHzjdkpGJ7842WxafqCcN/1wti0VnFv5kbMypZmidWykyVg0d6ipe4YqRaWmUlA0Wy0oWiq83umypOIboaqNtjAauMNupUJ1tW3Hpt23vPN9NfbLoRAoGIT/mNOXO4tn3GqvWDSak4nin2StgO0FlgXh9UfUfsNeyT/pkmk4+VIU3PAQMKF3dJK7BgOOdHXFN7Q9CdebLYQbekMAMTMRSWiaJFVNEImY8AeaPQOGvlt0yHFv+/b+2XdElMieZcXtF6LmTw8DtCW36hisbDnrwX7rZV2oah9pW67yBIluQ4YICAgmHcBmJwN8IEAfgfHOtNb5R41ZAkYchG4IAUMmE1CDZTsWrc2I9bGDnM/f98h0qhq2E6CsXmWXJxYg3QvybCF+l/1edB9SB8E7/Gbbw/iZgfjEZjWVFAWw7CII4VaV7wpEIE3vomjZZgBn/uo2tJtBxII3G5vedlFykqsWVHD0SQvbn3nwYScSGm411w9l03KdAt3dQiJA06HoHrB04IRbdae1cYzl9Y4ReYXHkM/foGn6MqN52TtND/3h/ba/Tqj3VfRr8x96WJKCVU7VtyvnGU+Y0CuFF9eF1QgBBYOInTIORMTp7z77xk4mH0t99e4fyXHQVRzVDmzFkBIggigsea/gvD++SEQy/eo/t8y2lGTJtmWzZdmA3ABPH4MUDfAFILx+JkV1ICgOoEXo3phaVpXWqmq/Uatr31CKSufj88/jvnkNNu2T0Wj/9HXQfr92ycDWgC3oSrOZBRP5AWQrsKyryRbrLX20ymeChzlnaudKMAPMKnl8Ze0fvRwoOfD4RLfH78AmwfpMkA6R0sCsIVMoqmcX2Bp9zxnPMYMkBK/xOv3JYWt8QuuNuedCJFmwkfSxtPXsTtU6sTXOz2yKu5TuboKibIWd3PrAb0wEHXUelGDhJ3l7HnRD7Mv3brQa6gexZWqkad2IIGTaZ3cNdA+gu7ufMtYBjkaqnfaWShLqOJFfcKVW0We6Fe/4d/wfM6c13nbZQs/AEbGSk85LAptOQnp9sdYKlvfcd8DzBO+u+0Zjzz800W6u39laPOtwUnzYPnwAPxEwA44NUVQ6y3/I+Il6n+ErAMB77JlboC8SwusN6YNHfq/XDlomFAHJznowTFeJxImGYTUuZ9hW2lM7pEULls9Ti0vnJudNT1AyyXn+vI688b9bSzOcZ80CjRq1KUe0TcNsadBZog+k9G5L32nJPXk9MwBWWNqFHIr4AOwgBJsB6zOLyNAziQQ9aMa8SrHMrWmuurIkbFuAqkVEXkGz8Hh/0gbX1vR0NhhFnaViVg6nW+c7uyGsvCU0ltaBbGitECBFbfewsmMt7AHoqPMQevo+FB5xRir+1AuvY++fJxI/fneJuWTenjIRLyBNR48KyK76OyFAzIDtCMmWR5qGx4mE9zF9vqFKYUlU8ed9AtXzTestl38IVasvu/buWLYpfzABdPDmIQhrEQIiAi9aBBo0CPmnXLQkfP8f/8KJjuFOy4qB5PVtlUR4B3LAsQHdE9IHj3oif/z5/wMA5iUgGrB5+8FuqJBSWLLQO2Snx/PG7PedzaZkM61QjycTQVMVGM3LEU8m2Iq1256q2kTx766IZKu0roro0w+h4IyLVrbeQQZWA4uEwuzkoUcyntseGCB2HJ9MWz9tl+1mxPq8FthjuYk/3INmBAdCMQmQ7Ho8tw6ri8BwHFKKSlS1vPJLT1n5l2pB0U/67bgVmsTrD1uCSAERdZr4XT9UBkAMUkwSbGfTTjZLP9cNBjOR0FirrGlWCou+8Bzg3SKiENsigmdcgdAj9yHvrJPTAN5sm/R4s1ZSeoIxb9axVkeoL9m2JpmJhOgU5eCuyMEaxIEAN9/AMoSdTpQ78Vi54vX2tTvCP1f8/mPV0oop4cf/OtlwjBWV511j0ME3bTbxk5wvTBo0CPHJ/0Te0Wei6NI7v+y4+9LHUtHwLWwa2o58gm0A0gFIWEp5zSvFNzz2OCb8Azzr2y1DBpgBVQXbTsxcNHuh/8Lrlmyak78GnHMlYk8+iPyzVy/qtSoZ2IG1QSAm9Mgc21ZBYBDJbjIId2CLgWw9W8226+cjJSCEVAtK5qslZe+CZQhgz1bjkHJ3B0gpKYOvT/93is+8YgERofnmi1Bxw0Nbunc7sKHwuAujZCbqjrNmvO9KQVFYKQ5+LIQyg6UUcG2qrWSWOgopXlOrHTRXzy/6ggacLXnKg5u9COa2iuDvr0DouQcRPPUSlI7/3TfpD99YErLkDxRp+xVHw/vYsUgfmUp6pGVCCAIUreeh0EQQHq+7n23bcOJR3Y6E+4q8gr6Omd7FiXbsrlb2ecX47NX3PfseG5k+u3ers2fRpQct7+gzEb3/GhBRMjHlX0/ZzSuGmQt+PAvS2SFFujWDGXAcKOU1Xxec8Yf7iSiWeP5voFG7bZn+kKv6I9NJr9FQV7Lw+F20wS/PyFFBZsOwJhnYgXVDELm1O7ffHDMGkSNkrxXx3YE1sD4zScuzOSUErQwZWvMxcUYqWbGUouA3Vdf/9WatrLptU/W1V3DetfjxlN1Qfv3fgJ8wIdjmv3BzS0B2GiRshyDQ5YhYgkhAKShq8o0c80zFBde/uln7uQFof/IvO8jAeiJ4qnu/wk/fD+9BR7UBeMH+5vP329595SijecUeMhYZbcc6+sEwS9g2VXYdGSBFwbpWxWw1elIUQA2AmMGWCatuSYXt8Z7sMVI7hyEHRic99a+C8WfVh578K4JnX96r4+02ZCD/0jsAAIHDT2xRa/o9oJRXf+TGy22oUswO9DocGyK/eI5/z5/f5dvrZ3MAIHDKxVu2T5IBQRAeH3t91Vu2LzsAJl0yiThAXdRm37ZBAJNQDI/Hs0NmbytEXixqkFDboShpzsTirwUiuIlDtifx6TuBzd7JDcBOg4/Y4jriWxLbw8jpgLvBWpWjeH0pqGranYe5JEcFQIJlKintxnqxWs7BVoqSs6/c0l3YZlF8xmUAgPcPCUPdfZ+mymv/8o+iw397beH+v5rgHz7673rtwDfUwuBs4c9rEJoG2DbYMsG2BXbsVZSqupgmWXKgaSCvF8wSxpL5O6fmzvhzYuGPF0Tf+Fd58OzLEX7h7706zm4JAREh/t4LAP6fvfuOj6M4+wD+e2bLNenUi3vBBheq6R0CgQQwDs30YlOc0EJPCHljnBBIIAFiqqmB4ARMhwAxNQVTDNgU427LclHXSdfvtszz/rGSkG3JloVkWTDfz8dWu7t99m5vb57ZmWeAvGv+/IVvr0Pv1PJLVsDusQ5epQexY4MCoUpzjwNuy73k168CXinZPrPRyZQgiJDL6tjpa1qozIZADYisfjbwt6uRukI3ms384nSvRqO02aa08rGqLDvOCkhu7nhRvNaXmQ2WstyJxgu+fYS9r68qg+wo+teppHPW0DIXPl8Smh5vmWHcwa28lcc4m9ZlrFkNmfieOPLGu9u+zzvmpIaAL/S2vtNOfwkfetwvcg879trQXgfeaQ4Z+aZWULxEC+XWiEDQIRJeUmBZgGNtuYwtAIBayqtrsKrW5aWXL5qaWv7VxW7lEn/BWZci8eQdvbZ/W510l3PUWUi9/ow32Zj59aZbLx8ov/zwd5xKFKOvau/2M1uemNRDbAtCN5uN0bvdX3DD3X/DL/4C/vAdUFFRb2+5i6ilQp/S18z8cockNZEgrwe9Cy9KX/V/tW9kELELpi1HSwIQ5MhUst449mRVVWMH01pfe80ep0Th2llh+ry1STpb9IdlGJlkXh+EqnRDfz6/t64US/EYC9MXhyaixFzCQNsaJ+1uDXZdgtD8wh/0SjgD7o6w2qzSe1qr/UQfuRN5F12DwJkX2wCaATTbzCujT9/7kVE2dK4bbyqX8cieTjRyuBNpHMhWdqBMJfI4m/HDdQiseasfd3qsEKDrIJawa9aXZUzfOU1vvLSME68/TznH9drbrEtVOILHnY706/8AETkcSc5uvPWCwdaqRddyKuFX8wm6pqvpeCEAACAASURBVFdPlCxBhmn5dtvvr/nnX/0gESHxwqOgA4/qza0q/ZR+1FE25r1STbqRbvug28KHGBO4KxUiewNtFBtJbOmt1LruRiDEdkONtV0CVLZJWy+6462QzZIBxwW0TY+vlikG0g050UhJ0ytPGwUnnqEuLyq9prUhb4YK4UZjURJ6E4gkuIORFIzWcqN50LXByc/eDgKIf4fnZSnt5F10Tdv3dXPuQ+nky2AQMVqSAwCL4m8+90n8i/lvktALRCh3vJtK7O82N+7uRptGyWQsxxtKveXFzsj0gTNp2LVVo1MrF//U92bZ5wBW9tZ+dbksX+C4M/HJsQAVhuKJx//0MDtOqWyqm8hSEoSQ/bproF9jgpSONnDE3IKbZ91KpMdiD85AzskX9nVgyg6mtXeWiHjtVWc0QYisMMyWVZ+3mNi7kmABwPKJe2DnV7/YPgEDXjWXw/YQq8M80gXGwVtQrfObgyD8AYKuKo7uyIz8Qls6NiOVRsdjtFtWnbYsv2tlC4UlTQAqIVB6nVY0gKm+OiIMXyVp2h7sOmZnw4bgyjBbzlC5ekUBgLhKB75/SidfttHP8b/PQu5Z05B7zKlRAF8CAEeXz296Ze672aq1OzuR+j3caORop6HuUDcRI+gaSHT8ecXMIMOEtC3Nrlq3e3rD+iOwIyQEALDP5a8CcyciZ8p1lfGn/nKrU7n8RbYyBmv6d3JyYr/AUhDI8R9/7iIivT754iMInXRRX0el7IBoxgzwrFmgadMAkCTdcMj0QaaSoC1c6WPwODAfvGLi7m+NfvWLzPaL2FPDfs2l7AEA9gTg7/yW3splwh+wzPJBie0Vn7LtzJLyJjuZTDqoBXe0uAAR2HXA2bQP0i1GwPBDLTKnbAdGbSXLWENKsrOBTJ8jHNvkTa+iEnnDqF1bc53sADuWKOIFn6+nCXt+7yquqJbfxnLPmtb2/UtgTGIC0c5pAEuZeRl//sF/6ue9875VuepUp7F2klW7YRA7FkgzvGNq0wcUAiRdyGQsZNdVHQTgkd6KfZsSApo4EenXZiNw/NnIPefnawCs6ZWolG03/WFEZ89UyYCyRV4yAJjF5bYTjVQ7kQawdEFkdjJ5DiDGrgw61CX6AEBm3bHjMGTu4u0Wc3kq4MYLMgzQlictsQQzuRQIVJoDB1cBAE8/HDTjP9slTqXrtIKSVVptdS2Ajo87IoAlpJXNk+nMWCSaCgA0bq8FepTvr8T6pXAdyyHdbCRfwJXplDc8qP1VVIKXtGbT4FSizE1nymGnFwHo/wkBt/t/C1qeAtmyhtt2WzyrP/GSgW9+Jm9YUZSZ/x2f+8rS+Kf/XgWhTbVr149n1wF0o/MHcx2fG2varTfj3eaVSgPHn91WP1XZcfCKFcg7W9UYVrrGHDwkpYXDn5GmNcJ1t3ZzH4GLDdfNA4Ahcxdvl14hPs37umxI0iAW+WDacgeGNwM5o/kDX2tlA2oBqGRgR2X6N4hgzmqhG51W3WAhwI7jd+PN47MNdQMBqAaH0uvyAkMQLBmWMQpKVlAgEGNwB20e7wqBtG24yeRQp7lxTLKp2g94DeN+rysrgjMIzELXDAF4783t0jbsR+OyNp0ewI9Pb/k9cfhHk6plTsGs4B4H/NksH7ycNI1ZdvJZLAhMQpPpZFlvxrvNCQEANYt+B0SjR/d1CEo/YgwYniYz8DmZvhrarILGJohMQOwjhbZPxTHjA8D2OSdTy+KMmpMZwcSng1DW6aZbJxT7ApYWyl9NppHaDiEq3RCd8whSVRWWyA2vETn5Ce/Y2/xlJaEBrgs3Gil3opHxzI4qa6f0Orr85wiPOjil+UJf6YFQNZFoWXtp42OUW5ICzqbL3FjzPlZ9TR7wHUha/cCW1mRrxYBg5nzKycttXYeht9uGRC4Ym78W/QVN8YoqNDz6KABgyFW/SZZe/uu/+cfs/qyeX1wP6XZSi9GrSCStTK9W8elWQqAoSv+Wc8xJNhnmWi2cHyWf36uTvGVFAOcJcrfrmXjFj8f5mfR9wBgHwOz0hiwBoUGE8pKUl1ehQ6o1CHZQeZMvgllQCuELLtPyC1smyDE2+yAkArOEm4znuYn4/tGXZg8BviM9sEoP2XLhsW3Fs2YBAOioAyTA1XpeYaUIBCRkJ9vQdMh0Ek4sMtJJREax5H5fdlGSAegGkyYA6uB9CaCtQe7KIulaRdbc1zWu7/2rAxyNgW0bEP0zIWhVfKFX9OVFLAIROaGdd3tByy/4CkRup8caqNcnbKiEQFG+h4iIhc9fLXJylgqfn+FsLSHgPIAm2CJQytthwNDKE/cCAOiaVgbwBSDK33J4DBLkipxQRWDA0IWho89QZUd3YOHSQvaH/J/ouflfkOlrKeG4+e1ICMCyg06kbv9sxbIxwHYcmqD0A4Se7C2madPQ+NRT3vfFBWkK530iAjmN3hXITW9MgBCQjgOZjI91Iw1HJ175Rz7gVZrpr7RwGWs5eVKYpiRg86vHbROsJaSVLWMrO5g3fKBj7hG9Hlto3N6s5xeArewWy3X2FydhVwBAzglnLhCBnJWkm9K7GtU3VEKgKN9TekFJTAuFv6RQTq3XQbvFRlaIiY6WOspb1yRYOWnXXott1CsLUXHihBxLaCeAaE8AW+55kxKkm0ktv2hJeL+j1vVaYEqP8J90CYSu1Wu54U+1gmKXrU7yN6GBpQu3sW6Y01h3bHLem+UAsGHiXtsz3B1O/28K9ZSefyaKzjkHAFCw2wFZTTff0fIKKskwOr2KKjQNbjyWZ9dVH57dsGoksHGlmf7GHFDEZlGJIwJBCSJ0tFozaTrguJCpRAgSYfgCArsP7bWY+D1v7H3wiOPT5vAxlozHeSufV/0Cc9ucAsDnayTd2EIJf+71N75KCBTle4aneyeh/LGj0mZxyadauGAxDKNlnGwnZyMiALwTIM9cceKuo9adPZZGvbwIK348qsfjW3fsOACAw7w7MU4HsNWrA0zEIq+wJjBuwr+QHJwFvtlPZceUdf1ShMKfGaXln0C0NDw2ReSNnU0mAnZD/Y8S8947kplp8D8/R3zOzO0Wa2uDpO3nWX3TA0wEZpa8WRlMpcfpe+4vKRBcrReUfCZy8oBOeqVJ04FsBlZt1a5WQ/1PYi/MLgSAD+ZcvV2Ht/HMjd8P3T3/+cr3tvWywbXkCzR11gIlIcDShUzEfK50RkgzbGK3G7q1va3hWdPbVgjmTHxnN5McwmDx3Tj+b8b68bkAACKxhfa+N3SLenl9nW4lBOmF7/V0HEoP4KXv93UISj/Qulos7XWU6x86+mu9oGSeFs4HXLfjRtk39ySQuJJZvzjdhNI1+wKj3+j5NVJaqxgxeC8AY7C1qwOuAzJ9jjlw6MKiM3/6Mo3TJdBuVVxlh1SUSzIU8q/QC0vninAhAAl0UGWDNA0MhtVQvVO2du1JzXMe2J0zn4rcydunqhq/5zVImM8ifnqWV1Fl2jTU/237JwXMIGpbOfe70CDaMcWeuBcAoA0amNAKC9/U84sWAeQVL9ikZ5pBYCHgxqP52Zq1p6bWLjmIG2uNgybftV0mGLcmHXTlleA/PKAxneT9PGMG+PHHt/nx8n/2M9s3dNhyMvQVEKLDLiJuTdQz6bBsqj8m2dBcnPh4rTfCqAc7YviKK0DTZoCfPI2anpk1PvL6s1PSn8/fXQRC34mEgIgw+Os4mFmT2Wwx23bH+yW9ucZkBnt1KGy30o3AXkciu+7rHMTjg+BIExD9v/ZufyU0Mgzdonyxlsr22O6LRin9U3LOfQhNvgy+nCFJX/nQj53mhgXZaOOErtWbw2lE5sdOye6vAF86y07YG7v887MeiWvFj/fE6Dc+x6rjdxsLwmEA5W7tPjKbYbO4fI1v1C5ziUgCqiZ2f0CnXYbk8482Gcnkf82yAcszyehoSEneqp3tmiFEXsWhVIrsmg0nJL9eVCnCpbcBiDQ88icUX3Rdr8XY8OifQUdeCwBoev6oQcJ1y5uee6o6/5SzNxARah+7E2VTr+m17XeEQSYcV4Ob3a7b/T4Jn385AKDwxAuspll/+tQpKPrCrgvvKtNJkLFprXgGaQbYseHUVo1wCoovb3z96Tpm/oSIOPnC3xA6+dxeiTPy5Ky28xx//EZO88o1Y/DCiXEOXF5BPzrKoilTEJkzC4WTt20IU96+R9bG5r1dQbqWpYz0bTZXgxmkG4BkzVq/7kCzbOgu/kXrKwC4PdURw9NPA824BwDQLI4Ym1jw4c3WulU/lumEj4zO60v0R/HX/j6W08mh7HaSEIBBki3NH1zWm3F0+/pD6vknDs9+/N7tbjSyE/n8akn5vuI6EIGc6rzzrjsDwIK+DkfpH0Ity60bhx1kJ/8z94PshpWvueGCCW60Gd5yv1u6eEgjWOB4ydonANa1JgNfnzYO45/t/oJlK4/fDaNe+xxVKEdS009g8GG0xZWJ0VJxQnBw9/0XFJ939Su44Brwe++Bjjyy23EovY+fvAN03vVwCwqlyKSXmOWDn3fqqm5wok0a2AVok+Ov5Xh0miMBWrf6/HQoJxb75zP3hk84valu1m0onXZjj8bXOPsBFJ39MxRfeC2iLz01JPn1p+fF/jv3hzIRK9XziyqzdZVz6p997OmS06amGx/7E4qmfoukJCAJGQhIJnRcgbUNgSSDaxy4GeP9xu5v8zvDRW+XXuH8vHqtuPRdo3nA4dk1KwZvtkgZABBAugbOpIzM8kVHQNOvb5794G+ZeRERcfyFR5B7cs8tGhqf8xhyJ09F4XnTkHr736H4ynmnrnv6yZNlKjmUGP700JFPN/xt5r2BXcY0hvY7puv72nI1DIWltpZXGhVNkbRMJnwdHpdCANKGG200rca6K6JCLK29/45VZZde/633r+Ge6aArvMRiw7XnHhH/7H//Z61fc6BMJv2kG706XK7mnukov6LjpKbhkT+j+KJre2xbdY/9EaVTf4HM2ooDOJUYzcwaiU4uiPt8tpaTv6bHNt6BbicE5LLGUgbB0gcpfUC78qkEbO3E1vb39rfr7D4dPW77r+jkfp3dd0u2dvuOtrstcW/t7x09H1uK23XB7IZsbN9ykMp3R+jwY5tq7r35FSfafKAbbT4KjkXk83c+Z8s7JicJcp1Vx+91ZzZgVYx77muru8nA8uP2ws6vL8So177C6uPGl8U1YxqBzydQ6RbvyAy2LdaLypf7Ro9/ngQ1AlDJQD9A53mNhvAPTmKrZlVt5Pmn5uiDRx4rk19OkJYF4Q+CN622IQTgOHDqqkrShJ8yu2ic89B9RZMviQBA7f2/R9mlN3U7Jp41q20l76Kzf4bmV/5emq1c+ePovLcmWRvWHCoTsWLOZuHU14yVdnZAwEqvTrz53Ps5x5zqRv86E3kXdG8Ik4+LpR20Uo4RyXplHrecEZCu54mdbIFTHOCFLezP9OlY2PQxJsz810a/b5w5HUVXfleG02noraFT/PjjoClTUDD5onT874+85TRH9hCNtVfKRByCyJvw3v4kSQIQDJmM+zLLPj8BLAlP3XOX/eFrHxsHHu8AQMOjf0Txhb/odkzNTz6M/PMuRu7kqXD++7a/eemC/Zr+++wp1oaKHzn11SPZdXW2LbjZ9GUimOMkE4k/AHD51VmgiVu/StA6Vh8Lv3L8I3b6xK5b/zlDHEGdfRgIDZAS2RWLj9YCgTNL/HQ3gETjzCtQdOU927x/0TunI++aGSi+YgaSzz0UbF769aTMyiWXyljTfpzNmBDe895bSWBrcl/7yB/2sJZ+fW62au0gc9DwqsDo8W/5Bg6bGz7hdK6553cov+L/vv22npqJonOuRPzfLxc3v/H8UU5z4yDwJksbA4B0wUzQ/MGUVlbWq52+3U4IWBNMmsbQdUDXt1ahROlNmm4bpKthW8o2q5tzH0onX4ayy6Z/Xn3btX+V6eQudvW6Iew43mS5zhAVMeN8V3CBkTEXr/nR2EdtMtaDHfZrGoa89tVWt930g8GIB/Mx9J8LsfxHexWywcc6REcTMBFAyRbvzBJwHGjhfBkcs9tzOSXlc7dx15U+xsxYtF8AZvlOMvLy35ZwJnufbKydYVetG8yODWib95QJQwdbFuzqdQPhuJfLVDpYe98tr0PXPy2b9st0/X03Y3Xte9j/t11foZqZkZ71Z9C0aeA5b2gNy98uswUmJL/46EfWmhXH2zXrh7PjeA0RTYCzaVhrVu6h5YSv0QO5idSzjy8Mnjal2+ffcEGRG9OdDXZdVR0YJd5g4Q4auUSAa5tOc+RMKzLsM3deeQW20DJqHbpRc+NPw1Y6OpLhpooOOHpNzhmXqJK8XUBTpoCffBJEhFScN5jNdc9wKrF3duWSg6VtgYwOrqIKDSABJxLxp5d8cYq07Bwr2vxAw6O3v+821UUytWuZP7gRdNBt2xRL5q/3IVKxGPnnXYzo3x4rsO3o6MZP3j08vXb1T+x1q/eW8agPmg5o3gJWTu2GkvTyRRflTDhopfPSA6/RxGmJbdr3ww6WzPxx6svPPtRCuQfLRNQAi82PSyEAIeA01WuZNSumNuhjmxr+csXs+PyaZs5OAPm63n6tu/QS5F0zA8n7/uBPRmp3bl4w/8d2fc35bqRhF1hZAcNo6YxyW+LouUSwtTOgaOp1aH5m1p7xL+b/0t6w5iTOpk17QwXYtg6x1laMq5n525fzd9ttVe1dt6L06l9tFAEzd7owW0c1AIrOuRKxd5/LTc7/8JLsuspD3VTCR/qmV54I7Log3ZR6UUmlf+jwrp/YuuHbT1nubN0KZftQz73yLZROvgzNs+8HETnRt178D4AXZTJxntvcmO99uG2pt5J8AE5jYti6X2MpXyMSURdUB6Bx5bG7khkQCNXHuWheBZpPDqMhPZIo14+Rcz5Cje4PSFD5yol7+l3wQUR0I4CRWw2a2ZvcZ5ocGLXrf4Pjdn/OOOgHscQLTyLn5PN66JlRelvrh2fdo39C4aRzs/UP3va8OWz0BDeTucSN1BskNm+AMANk+MCuDat2famTil3vS8eO8A0c/mTjvbe8z8Qbdh51UnPjwz+UhZfdBLK2ULfjgdmoK48A//6fcIhzqm+8aEDN16+PlsRHWFVrJzl1VaPcRBRk+EA+f1vMrOmA4yC7YvGJmj9YpUH8MTX74crg2Rd362zsu266rc95ZDGWfrWGiMZ3tsYCCQ2QbGRXLj4pmV84z9D1vzJzY2eNkMY7rzKdZHaXbDRxjJOIHSVMX22muekRZv6AiLjx+adQdMo53Qn5e4PO884nwVySmQ//+3lTIvqQG48NsavWDWXXBmmbzieAt2J6IAiZiCHz9afHyuaGncwhI2e7zXVvamXla6zmcEP0X/+wxYplnHvFzVvcfvOzM5FXQ5QQ8EOIwsorJg9Nrv3qcKep4Thr3ep93WjEDwZEINgy+8sb2y8zadjVlcPTS3NucqNDV7qJpgVaTkGXjk/m6SCaASLK1Nz560+caGSNG2seTeQCnXQSCZ8fVuXKEQS6xh08LOAbFn5RvrxHZfOv9nei9RUY9vC/OrwfM6P+8f9D6dRbIH0UWnf55KHNdWv2cxrrT7XWVx4lU4kAGSZgmi3n/Z4vvdl+vlmmalm48ZH7Ls4s/WqSG200hT8IJxGHXbthP6Ns0J4Bnzk+sXL5bMBdgntn1uLyK9s6Aoio0/kaH3Vw5S86+4HC1OcLTkp9Nf8yGW0aSCCQ0De+6sQSkBJaOBzxDd/5tbyJ5+6YcwgURfluyD/7UjT87R7k/fCk9fVP3nuvUbVuuEwnTmTH8SaObRWBCb9kTVwN0DILeH75CXvMYWbDkSQSucGGhr1LG5udwpAUGKylMu6KE/cEGHsBOAvAAQQKYivzBdq4LiCENMuHrg7tMeFX+adP+yLy17tUMtBPlV7ojb8PT50Sjz8952HOZoen0qnjOZtGR+OFGQxoOkhokImElv564QFWxYoDfENHLTQHDfuHTCTfcZx0c3T6rxqb/DdnhGGwgObV1JMM6Tpg1xVN0UUBzqKocX1ToWNl9rYd6yxnXcV+brzZlJZXn0ELhryKKi2f0W3lPg0dblMDrJr1p4lA8GPLyTwFYKvLfW+q8amZICJ2mypXxP43dw18PiCdApg67I1lMGSkHpllX14ri8tE9YxLn2i+87dRd+GHbnbxVwhOOBDahP11J9oUTieTe7uxxC+stasPcxrrSQRDbtofSANYAiCikoGu4TlzsDiyAP4DD0s1vzD7FbaygzmdvMJpqCn3hgl1MOabCOQPALaFbOXKUXZD7XS9uPRSLb/4mdiK9GtSfrmaMnZz06yr4pQsdjVNgEmAwIDrwjU0cnUY2VVr82tJFIEDO7HrTpTp5HGpBfNK3VTCu5Ckm/imElDL/8wgwwRsB9mKpaPtmvUjM5dOWgSgS7PQiWa0NZLDEw5631pX8ZLw+aZJKxvedOpEG00D+QKwNqwZyYnYHcbQkT+sXSBuJSey3txpbGPyrkOSqXfe4OyG1WDHReCYiQifcTGann7Q5yxZk7v2vKPzbZHcz2X3Umv54v3deNRbW8YfaH0VAJYgfygDTWRkNu0jVwZ6Yi5B++IT8Zee/7FVueJgmYibIpjrvY6aAWIXTqTOTH703tRs2aDjA6PH/T2iyTnNv756kRg2ImsesL/r321/2dnk7QNByDYeSe4bh2puU46wiwoGJVYvuSC96JOrZKw5DCEAbZMhaADgOCCfTxplQxbk7Lnv43w/gy7tvdHhKiFQFAXF514BACg57/IVdY/+6TbpWGF7/Zoj2LYgDGPrtYcIOgE6mPYEeBcIuppB5DDZrmG8nx1U/hyxNpoFfu4Sk7d0AAwwgiDqStYBIoK0s4BkNssGLs3d5/BrnWzicwAovODqb/kMKN3VUxfvfWa5TD/9tyVyyIh73UwybK1aeijbljckVWibD0sleBVfpIRMp5Fe8fXu2cqVO1MofINeUlqbDIU/hmt8RbpWL0A2iJglC2bHZKYStq3dZH1s31R9bbmbjJvsWEG4UgOzN1yOyDvueaNNgpnBjgPoOkQwvARGsAJ6sFtDhorO8eYdiPyhKaO4bK1MxGJ2Mhkm6mDiaksE5A/ArlpX7kTqp/uGjDwtpfufcgqDK7KluSzDhq2lGna169efYq2v3EtmEn64LgmfD9LOaE4y9sOmOY/Ob35n7tP5Rx2bqb/z/1Byze+6E3oHkX03tW8w5p98dnP8mVmzOZMpk9ns+U6sKY9M0fFQEWZAM0CaBplNw6leX+LUVl8ogqFzjKLimJ5f+rlt658S1a8XJJIsSBJDg5S6S5xD4FFuPHag3VA72o1F/XAsHzu26R2fRtsaHZvFSwTpOiAhIHLzE3pJccPQ5dimwi+t+xw84rj6xr/d9z92shOzKxeH2bG8JKSj+2gCIB1uMg65/OsfsBD76MVlMV+++3rMrnknW5qbsKywzq5klimJz+cZbjI61s5mj3PszHh35WIfgUPcWvpa00AEsCvBrgPhDyIwZve/UjhvXebL+ec4DfVjyDA2H3PfTcmXnxrR+L9/nelEI+Oga+KbqaJeJwDpfjBL2LUbypym+p/qeUVnGwOH/EuP1f4z+5+5a+oe/H2ltXxZTIR8zJrPu5/rgnQdWigXTY+gjDR3hHTrD7BWLJhkVa3ZlVPJnNZhV5uREmxb8A0cWukbOeaZnKN+Ugn0bgU9lRAoigIAiL34BMInnY+SY0/9FLZ1a4pZWhsqD+Vs1iDDAHdW/aA9ggAoBCDU8jOYaRJY7M3gIBEVezMj227fNcyQdhYsXWkO2emr3D0O/k3hyFPfpKOGym87UU/5dnpi1ChPnw6aMQOBM8614rMffk8OG20QEWVXLztEplNew3+z44+840fTAJZg19XcVCJE6VRIJqLFtq6NZNKOI4gMtVtggwmCAB9LN49tOyCzWbRWNiKheR/OHTW0GGDpQNo2hC/g+kfv+d/gLrveLYYMXMBled9qDhcRceSROz+w62s+I00cDilFhz3P3o3BRIRsJpRdu3pfu7ZqsHSsuNRNZCtXu9iwLl9m0wM4k/HqUWgaSNcgbIZTVzMq/v6bJ4d233s+gMU9lQwAXavZ0Z+1TszNPX1aZeSxmQ9I1zF49ZIzZKypALrR0qjb5BkgAPASBpYu2LEDnM0E3GQ8X1RXDYQuDiTS0mA43gEGAoHArLOUuew6eWxbXjU1EiAhAEGbV+EC2hJm6S2gJo0Bw9YGdtn1jyKT/IJevUfyaaeBnn226/vbUq2t8JxL/y3tzKNW1dqrOdY8EFpnVX5aJlp7DVkd4EKnvqbQjTadR4RjpG25bPqJmGGtq2C7vlbAccIymy6B6wh2HW/3yfsHISAdG3Al6/mFUisqfUbkFd6u5YaHaf7QuS7qurwvW5O67QZ/bMWi0+3q9YfKeKzl8659ZwB5VxhZtHRApAK2lQ240cbTRW7eISJcGNFzw0vZdVa6SScGLcsAwFIyEQm27VKZzezhNDcOlbGmUplOFkvbprbzzcbPorfom5WFXlSaMkfvOtu364HPAi1zHXqxnLZKCBRFAQCETzofTY/fBRo83GHmt+sf+WOM/MGf2xvWHOem4nkkpTeGdFt7ZAgGQCO6FxW3LZgmDB8bg4d96B+z5+3FV9z0CnBTWyUQpX+jGd4whUUL5iD37IuzvOz91+vf0ixo+tVW5crD3eYmPzS3wyFE3gMIkN7SIGMXMpUAXCcA5kCnxbLIu0xPugloxpYLY0gX0nEBAvTC4qhvyE4vBEbs9HjRXkfMo333kwDQ8PKjKJ50Ybefg4ILr/44PWPVy26kfqwTqS/vqLHQFrvmVVqRmSTcePMA0o0B5PPDiUfBju3NezCMtp5rBgDDgEzEYVWtPUwL502N3H/rnYWX/qqq2wF3YPtPadt+W6SJ0xB74l6Ez78chVOvXNo0+/47yTQS1poVZzuNbE1zCgAAHnZJREFU9QPZsiF0HdzRayYIgP7NRR/bhptJ62BZ0tGcEQK841xogGGATN+Wg2MGOy7ALmuBoDQGj1jg33n8Pf4RI+bknXB+tmb6T0EzHty2/T3ySKTefwtEFLeXfz07veizAZlVS6dwNltAutbxUCkA7Xu8pZ0BkrEcZowi0wcyTRAYbjwKbqgBhAby+UG63jIf45thT5xJg4RgvaRsvTl45LNaKO/hAdffVlHzuysHkM/nwtB7LANNlIdcEadVRlHZQk6n93eTsRC5krDpmhNE3jlD0wDpwk3GfU4iNlJE6kbavsA+pPuiJCjdcmN4OysF21YuSzcos2nAtkGGAWGY4PYVK70dh3QdgMF6YVkitOveD+SMHvNQ7hFHxRv+8SjozO6fX7pCJQRKD9rkxKYqT/U7BVOuRv3f7gIRMYCPG/4683fpQDBirV890Y02D4FrE4S+lXUKeoLXsPOqzejQ8vPrjLKBnwXHTrizZNov3ga+q4uPfX/fM62vZcODt4B2OcRl5jcbH787Rj7/tOyqZT90Y5EB7Drk9ZJ2drWKveTA9Lc1FtoaV2034c2/7+xcxQy4DpgZIhjM6kUlK/1Dd3o1MHLnB/PPvqIS+A3mX3UA9j3oGtCk7h2LzIzqW64HEdmRp2fNdePRg2UqMYmtrAnaUs118hr+pr/lMg2D/AEQBb1J95tvCdAIJJ08GWs+xMpp/DuAHk0Itr/tW9UkfP7liD5yJ/IuugYFZ1+6MvrCo39K6EaT8K2ZbDfUjJGZlJ9YtFTI2kJr1TBApjf0ZvPjs+2/jb/vEAOO43WY+PxMofBa35BhnwZ22fWx4qnXvd56q/JtTAZaBQ/5IRbedBKMncdXR566+1527Dx7w9pT3FQin5g7nWTcijQDCJpeYiq9CbKMluM0EPQuirSVF27ZT9fxrjaZfkcvLl3o32nMbN/wPR8vOmdKDABIWpL8gSYIncFyizV6u9IGWRAASqdMt9PMLxj/eKgu8dUnZ1lrVhzjJqJDYWWFV72pg/ON0ECBHBBLwHUg4zGAOQ8s8za+XNYytEsIb26H6fMSuHa7DMB7bhwbZJowisorzVFjns4/8Mg7Aj84MdL0xN0o6OVkAFAJgfJttI5hbP+v09uBiYhZ0He7xUNd/nTaYZ+HknO98fjVt/+Sii+4ckn6/TemR+a+stqqXnua29yws0ynC72ypC1DKxjfvP7dSgLbdZO0TNpkxwIxQ/gCSS1cUOEbMuLl3AmHPxw+5ZxKAKi795YeTwa4a68JA8TorePYnw8gvQ132B7vpy49LT0WR/FPf42GR+9uTUo/TL71woZoMLQsU7HsFNkUGSuzmSC7jtfIoI6H92z2anY1vLYEQYIlgzQBMs2sCOZEzJIBn/rH7vlkybRfvkJEFgBEHvszCqdeC9zd/WOx/fjzwjOmLa25/7bHOZ0cYm+oPEB6C+9tOQHfNMHZbF+9qlzsOiDddLWC4gotv+gd0oM9N+aiz3QwTKeX5V10DZgZNbdcibyTL6xLfj1/ZmreuytSi784y66uPEimU2VwW0pjdnp8ouPEtCvYS4LYld7wGl0Hmb56o2zQEnPwyFdzd9tvds4Jk6sBoP6hP6Dkkl9+i70F9jz6SuD3L6LwnKsqUq/+47bGd1+NWVWVk91kYhBc55vkfEv7udH+UdvveNPbMANCg+YPRLSi0vn+kePuK7/+1n8SESYCeBWAXjQgYdvcSMwtD9tJmV4wIze81f3bK8VYc80UBIhcAP9JfvKfJdF3Xl6arVhxmltXPUo6TgkcxzvMhNaawbVsoiWZ0fSuFeDY9Llg7zGYJYgZ5PenjNJBXwd32/fp0smX3k9lxZnm2fcj/+xLt/7YPUAlBEr32RmCkzVhZcG21dIe3PgkRwywLkGaprEQwhb8nR1myoLIGx6zVQb6wXtvwA1/YAAIHPLjRr7j8nubdpv0v/TSr07KLP3yWDeZGEbMRexYgCBv8U605gbtPgS3+iHR/gTZ8kGh6SBdj2v+QJ2x09j3giPHPi1Nd174lHMyAPDi9Ueg9PJf9+i+EiSBYHYyk7M9AwzDMnvp5Ts4D6iq7srlFwLBYOrV44jgrfy0ZQwBwPTmj/SM4guvwsqxJkYtsRD64clruXrd3U1vvTg/vXzxGdl1qw90opHBsK08yNZxxy3htn3dQidF+8ZHW+LQvkcWABGEYcRFKLfZKB88PzBq3FsUyHm7qOrdNeQ1HMCvzwQd173FyDpSNWl/DHz5Y5Qdfto7DQF/btJ59xq7vnpPzmZ83htMtCXMW9432bYPbfup6a7wBxr0vMLPA2P2eLTs7J/+iwYOj3cpMCnR1UY3db1D5FvpxnyFTV7gb6d9Ehcav1+SmZ9L/OuFhfEvPjwju2rJT9ymhmEymymC63rviU17i9v+bfTHdtG2vI7cQTcFs9fbrGlZMn1NelFZpX/k6FeCo8a9k5vhReKEyUkAWFzzLkrKf/Dt9/XII8F3Xg265i4EJ565KvPpB7c0vf18TXrJV+e4TfUj2HVzAC+m1itVXX7/tY7TZ+l9buh6VCsqXe4bMvx1M7dgTvHCxDIiAng5XqWdAQBmqKTBDkZXMUtq64zanGBiHV0otbrphPDQvofXReY8+UBoj/3nxT99/0fW6uWnuNFICVtWCVxH/+Y1a/cZ1/4xtvS+bHk9ueVzj0CAroNASRHMjfiG7/xuzp4Hz8o/fconRORUTdp/uyUDQD9olCg7LnZZsGQfS9cFu8xSMre/hMfe1UFiqTNLYpa6w10qKNMvuQSNGK0DITsrQSgAEmDqF+89nnkF6Mp7QNffazHzp76Xn6iwRo17OrVy8SSrYsVEN95UQkIUu+mUKR1HI0BjAqh14ltHK7K0fSBIsJQgKSU0XVIgkCUhIgxKhfbY963wwce8KALhJYHQIbW0G7WNgfjJvpcC+HcP76hDBPbD65V20HHLwfsUIJhWVuudxLbqAwIXCQB2W2HxzuIANAYbvZVhu6739vU+99jupAlG7L3ABvVgQgAAOy3Ogls2TwOGpPkfj/1b33XCksDocaMza5Yfn11XcYwbay5lx8qDZZnsOhoDBGqt+tIu0dzoafQaYiwBsOt9MBNJMn0umWaShJYQodw6Y9DwD3yDR7zlLx/8pT8crjOOnJhqfQR+fHqPJgMAMOClj1Dzu2tB40dZvPA/rzhV6xpEMHSB01h3iBuPlbCdDbDrahCaN7l008Zky/ocLF0QIMkwXZhmFiwbjNJBS3IO+9FLuXsf/E7Dn36zjgYOtwCAn7yjbdXozuj5xXAJGrbeXtAYMNHJgdKTWjfAEoKZ9C5s0QTY6OnuKJ4zHTR5RmujclXd3b+9V9/3kDdkPHaYtXrF8XZT3Wi2rAK2MkF2HQHpCibvio93RuvsGG15fMktjWVi0g0J05eBpkW1YE5GLxu4wDdgyL9I930qNFoTPnVqlNo9EWMf+E+P7Sddcxdq7rgD5ddfD/8+B0Xif3/sAfLnzLer1pySXbv6B3DtQWxZAWlndZIsWGjeBP3Nnu+WKwOu9C6mk3DI8DmkaSkyfev00oH/NAcOfsXIzVlR/LPpTW33unl220PlTrm0pv6BW9/RwgWnuslYGRyptbyJWzuXBLxz+FYmXmyu9fUsnHxeJsP8ifPFh8sDR0581YnW759ZvuREu75qLFwnj7PZHHYcAZYat1wJaput02G22vLXlisBIJKkGzaZvqiWG46bA4a+49tpzD+1orIF+ZPO2dCapAx46aMtDBnsef2iUaLsmPyjd01KK/OGVlQcZNthYZj8zXjAtlMckaaZwhf4jHyBOmh+Cbzdd0H3IgHEGPw+mOtarodudoZnZh/Ai0U/GbtLLcvPNz3eNq+gAUBDZNZvq5BNz2Xf6HKONp0g7ewgtrK5MmuVs5UtYytjsuOA3da29TcnNRKaN+HR53NINyPCMKvI50uS379W5BW8azfUVuoFRWtyjjx+XftYeOZM0JVX9tK8AZEBaL7X280BL1tpv3EGvAZPMzO+CmblNtec75J/GowTaAPA/wazALPcbDgBtxSpJ6wXTBV87N2guVf1fCwCLiBXgfl9ABlvpt9msWgEdghYCObmntx8+567pgduA5051YX3vqlqfOHJZVr5oNdkpGFnJ9p4uBuJDJLZdJiJB8BywjKb1jibJnbcln35ZjgbaTqEP8Dk87uk6UmA64i0mAjnJ/SCoq+03PAn5Pev1wPhyqKLrl3fPqbWSaU0ZUZP7upG+xt59A7QXodnALy7/qZLKvz5RQfZDfWH27Xrx4lgaAjb2SLOZDR27JZTjHemJSFAwRCLQDAG21kjHTtqDBi6ljR6w8grXBYYOqrCt8tuKQD4+o5LMS5RstVkAAAop4AoC8FEWXTY0dE2jt8l74rS9hsO6XVAOS0905nNW2PsvV8IEiCdtlo/edvQZO84qLvvPpRedhlKr/pNFMCC2Jz7Vpi5he9asegop7n2UCdSvyenMz523VJmWcTZtE9m0gTbJm9tC3xzRYcIwvSB/AGXTDNLJBqJRAQ+f1oL56/WC4o/0AtLKoxQblX+6BGr6YDjW9YXuMnb45ZVd1tXqu4p5ddfD54+HcuGArlnTY0D+HfdfTevghl4npzsidbaNaOEa5VSMGcoZ1L5Mp0mli7aJz0kNJBpgPyBLGlGNWdS1RQMNRnlQ+bbDTUfsc9cPOCGO+pbt1l/169QcvWtbfvSWunJKCuaFxg/4Xeprz89UTY35wBwWsoAAcyCWaYIYgW28VhsfT0bXn4Ufu/zrhnAQvf155dF/MF5bmKXkW6k9kCnuWlPmYiHWDpFkFwurWyAM2mwnQW3XlHzOlK8U7Xh8845pj9DgmpIM2J6YXE1hUL/lYn4V1rJkJUlF163xoviXG9f58zpdOXj3qISAqXbgmN2jUjbmmFHh5rMLoTQNnvzSa+3WNN1swlB39pkif9blefbkemuUetq1n2SOJclEUhu/Hx4UykMMDeT4HWdPMwOqWDKN3X+a/94DQqn/aYBXnKAqpk3fe1zZKGbSgfgZIe4trOvU7uhzInHBFI2MzNIeG1JAoEMnUROmI3isia9qPQrkRNeikwmTbrWUHLV71Z6icdzAIDYG3MQ/rGXANCVPdsj215uyI1FCU8T8ZsE6F43TjvekCiNgCw0pzZO67u0yM+2oq+elet/dMEiZvyGiASDJMSm4+FBYAhmJA0SG3olGQAQCBh2KkH/tZnXQ0JCAyDaDfz1GjECBNZYNgUcsaFXAgFQ8LMbAQCt42mLTj6vBkANM/+v8ZE/z8saqwsA5FHQv4vTWDdWxmNhCArAhYB0GVrL0ARNEDuOS6CMyMmN6oWla8k0l8poU6OWV5AxR+68tvC0izdK1utm3Y7SaTcA8CaV9rbCC69H1fRrMXDGnzH49w9VAKio/sP1HyKdHmaO3XVnu2rtPk7Nhlw3ESVIZvKODyJNkF5YmvENG7UYqdRnqdXLY4GBwxtKb7h1FQDgN/eg4fG7UTzlKoy//v4ux2MmPpNpfZ+1YH4BzH6vFb7x24MBQcwumD7EdkwISKc4sjwPzC7AKdpskjGBAR3MCSIsIHhzP3pa6WWXAfAacR+/fzvCky+LA/gSwJfNsx/8KLlm8UgZjekilDeUncxuTl3NQJnNBEQgYMCV3qUA0XLhjwjEcGAaca2gcL2eW7gYtlXt2llbLyyrLb38/1YS0Uafo+2v9NC0jhfH6gmtDfO6+6aj9LIZKL3s5nUA1kUeu2uFU19broUHFuhDRoy3167Yy6pa6+e0TeQtleaNrNF1Erl5bA4YXAXd/Nheu2qdFgglB1/9++VUWtY2ear61hsx4Fe3oeTqWzfe/sRpaHj0j8g/eVqUmR+rvOjHC22O+BlwveePSUBCSHaZtTXo5rHYvlpY88N3QDvulBSArwB8FXvprx+lly8Zbkfq/PAFBwjC7lZ99TDOZgwyfQLMxK5kr3Sq99aE40hhGBmtqHQdkfYFbKteHzaqKf+oE5f4Ro/LtG7rxVNH4yeTfw+aPLlPCmZ0O/1ouvsXJ2Tnv/cXN9Y0knx+bNZzpGwfrgMK5VQWnHPdSf7jzli4vTbb9MzDKDj94m7dt27OfSidfFkPR9S3Vp98IEa+8OE23afu9utResMdvRRR7+Pp0/Fh3iocdM1T3/yOP6LmJ94fGP9iQdhpqBYyGgHZ0ut68DpvQLkhGMXl7B+1S7Lk+Em1NPqATPvHrbnzJpRf8/vtth/xx25F7tRfbfP9Ks4/HCOe6LnL8gxgADNqtrVXaF8GHzcZNKPrNca3pubXF6H8lke2+X7zHjgXB9WM7PHeyY40z74L+WdvvCCdNf/focj7/yqW0XiOXlbmJ91HyGYZrUVfTJM4EpFupD6L3FDSt+tB0cITz2ra9LHjc2Yid3LvJaBd1drwasWRWn/dQ3cNTC37IuDW1xC5LkNv6RU3/eQfuYcVnnxeTe6+h8baP07TXT9HwdV/6VYMzMCaUw7KdZAdTI6rkTeOpd0tCCyZAAHfoJGNg2e9UNNyNbHX8HSAZgCrLzrVEJnmQZxsznezabu1HOtGsVm2oNIBdnDkrhF/0eDGgitvcHsztrYYX38ddNxxG//u03V6bNkLxbEvF+XruubXh43U4TqA47QcowaBADfa5DiZRNIcOrK55IJrGzdNAOpn3Y6SliS1r9Xe8UuUXf+Htp958eeh2pf+Wp76+jO/3dxMuvAWWAAJIJRDRslAGRy/T3PRJTdUtz9OGu77PYovu6lL20w8fDdyLu5aR0hPVqNreOg2FF9y4zePzUyRfzxUklqysIB0w/APHynAgmC3rANnmGC4cKvWsZtKZcxhw5uLL/pF/abvjx1lLZ3uJwR3Xn+ilxBEhpPpx/a8Sqi0IsC1QcGc9eHzrvtJ6PizP+vriJTvr+bbfob8Gx/o1n35vcdBR07p4YiU74uq6dMx8NskIczgm2/eLolMd/All4Aeemjb7tMDa3S0Nry3+X4tw1Z6U8XUEzDisX9u8/3qb/81Sm64pRci2sp27/o9Sq7uWoN3U7Ouy8Ul+z26Q5dZbl1ccFtU/+kmDLhu+3X+9JSGP96A4l/c/q0eozvv6d7W7YQgOvOmSZlP37vPjTUNIp9P5QN9xXVA/tzqnPOunJhz7JkqIVAURVEURVG2SbfnEIjc8BpRUPwMdKOYTDOjEoI+Qey4mgjkRHw5odq+DkZRFEVRFEXpf7o/qbikZCkNGHa7Hk5qmmHKDgqqKNuB67ik+f2uPrQk0texKIqiKIqiKN8T0cdv6+sQlA7we3/v6xAURVEURVEURVEURVEURVEURVEURVEURVEURVEURVEURVEURVEURVEURVEUZXPM6/o6hD7DRwCsVnhWFEVRFEVR+lC3FybrScxMAEwAgdZf9WE4vY3g7V+GiLJ9HYyiKIqiKIry/db9dQh6kLNonj8x9/kLMp+9fz0ZegoQ392EwLE18gUSxpjdZwF4tK/DURRFURRFUb7fdoiEQBp5JJPJfBmpHQHDZOrgwgXjm671Tb8CnV/qaP933sLtOrvvprfvaLudPe7Gt2EQEdi2iQKhZj0Ry9mGUBRFURRFURSlV+wQCYE2YChTIOSSbgKGj0CbN69pK187Q5183xUd3b6j7Xb2uJvdhggAgUyfQ8G8xDaGoyiKoiiKoig9TvR1AACghcOuFgjUwR9gSLevw+k93Ha1wGXA6etwFEVRFEVRFGWHSAgA2DKdXKyXDvwa7nc5IZCArkOY/kaZjG7o63AURVEURVEUpc8TgsTf7wYRsT5sTKXIL1nKjo2Ohgx9J7AEQbhaXsnCgtN+/kVfh6MoiqIoiqIofZ4Q5Jx1FQAgMH7vrAiGKiEEIGUfR9VLpAQTsgj6l+p7TKjv63AURVEURVEUpc8Tglba+H1jWl7e23r54HWwMt/BqwTeBAIRCFbrA0Z8CQBcUdHXQSmKoiiKoijfcztEQpD934sgIkmhwi9EXtF8Zga+ayv4SgZISJFb+GH+VX+YCwA0YkRfR6UoiqIoiqJ8z+0QCYHv0JMAADlTr24QRWUva4WlzbAy2EEWUu4ZUoJMf41v3IS5aoViRVEURVEUZUexQyQEABD7x18gyGcH9j3iHX3gsLdYSq8qz3cBS4AgRUHx++Erfv8KADCv6OuoFEVRFEVRFGXHSQjCZ/4cABA89owqCuU+JvKL17Nt9XFUPcR1QMGclTknX/wgEcUarzgGRKP7OipFURRFURRF2XESAgDI/O+fAIDwlF99YIwc9wT5/A76e1LguoBmNutj9/p78JjT/gsAhTPn9nVUiqIoiqIoigJgB0sI/IeegIqhgDF0ZCx49GkPGkNGPQ0C4Drol/MJvFWXLX3wyOeK/++hO4nIza7+HPSdq6CkKIqiKIqi9Fc7VEIAAMMrvepCwSOOXx/YbZ/b9YHDXwMAuHZfhrXtvGRAaqUD/hU+/cLbiCiemPsMfCP37OvIFEVRFEVRFKXNDpcQEBF4/tsAgJwLb/rKt/uBv9VKB78DoOVKQT/gOoBkGINHvptz5KSb/IdMWr36xuuQc+zpfR2ZoiiKoiiKomxkh0sIAID2Oxrpuf8AAORdOmO+OXbvX2vlQ18HCDvynAIiAltZgDTWSga8FDzypF+Ezvr5IgAYsVeor8NTFEVRFEVRlM3s0IPZ43+/B7lnXeF9/9c/7pb59H83ORsqTmHb0mGa8PKZHWEBMwIggUwGFMxJ6gOHP2vueeAteVN/uQoAeMUK0GhVVUhRFEVRFEXZ8ezQCQEAJF+YhdDJ07zvn7l/aPqLD6c5a1edL5vqBkHTAU3v+72wLYAlROngCnPozg8Fjv7JE4FDjqv+z0TgsBNmgaZN6+MAFUVRFEVRFKVjfd2U7hKe/yJoP281Y2bOaf7dz453aiovdKoqf8iuA2gaQML7t12uGJC32JjrgB0bIpQLraDkRWPMhMfyr/7jO0SUjj50C/Iu+fV2iEVRFEVRFEVRuq9fJASt4s89jNxTLwYzU/rZ+8alF374E7tuw5kyUj8e0vUq++gmSGjgXljlmIQAO463HRKAENAHDJunFZe9ZOyy23Phs69ZAwDWp/+Fuc9hPb59RVEURVEURelp/SohAIDkE39G6PxrAQDMHIjcePYEaWcOkc3NZ8pkdAwn4z62LZBhArrhXT1g9v5tq9b1AqQE2xbg2KBACKQbligq/UTLK3reHL3Hu7kX/mIZEWUAgF98HHTSlB7bX0VRFEVRFEXpTf0uIQAAXvo+aMwhbT/LqtWB6F/+bxfOyR3nNlSfK1PJnTkVL5fJeFCm4iBNB7UmB0L7pqHf4YMDkA7gul4SAICCORCh3Dj5Ag2isPQjWNmXRXHRl4U3PbyaiLK9vLuKoiiKoiiK0mv6ZULQKn7jFOTe9njbz8ysN995/QDYbqGbjOzvrKs4Ri8uK3CT8RJOxYdyJp3HmSRkMgESLXMOCG1XEFi6IN2ECBeCgjmNWm7eOpayiTPpKr1s0FyRE/4SpYNr8y/8ZT0Rue1j4U8/Be2zz/Z+ChRFURRFURTlW+nXCUErnjUdNG3GRr+Lv/SoP/3uK3m+sXvpyKRKnLoN4+3qtbsQRIm5826GtDImHNvHgAYih4RmkT9gy1Q849bX1up5RUuMISOWOMl4k1uz3godclw0eMqFmy2CwHNOA01+drvtq6IoiqIoiqL0pO9EQtAeV1SARozY+HfMSD58q5n47D+m7s/VQyecDSdaLziVIHZdkGaA/AHWisvYjdTIzGfvO4EhO1s5l063N338mt2Bsi8YtKVhR4qiKIqiKIqi9D1+a863foy18BIKRVEURVEURVEURVEURVEURVEURVEURVEURVEURVEURVEURVEURVEURVEURVEURVEURVEURVEURVEURVEURVEURVEURVEURVEURVEURVEURVEURVEURVEURVEURVEURVEURVEURVEURVEURVEURVEURVEURVEURVEURVEURfn/9uCABAAAAEDQ/9f9CBUAAAAAAAAAAAAAAAAAAAAAAAAAAAAAAAAAAAAAAAAAAAAAAAAAAAAAAAAAAAAAAAAAAAAAAAAAAAAAAAAAAAAAAAAAAAAAAAAAAAAAAAAAAAAAAAAAAAAAAAAAAAAAAAAAAAAAAAAAAAAAAAAAAAAAAAAAAAAAAAAAAAAAAAAAAAAAAAAAAAAAAAAAAAAAAAAAAAAAAAAAAAAAAAAAAAAAAAAAAAAAAAAAAAAAAAAAAAAAAAAAAAAAAAAAAAAAAAAAAAAAAAAAAAAAAAAAAAAAAAAAAAAAAAAAAAAAAAAAAAAAAAAAAAAAAAAAAAAAAAAAAAAAAAAAAAAAAAAAAAAAAAAAAAAAAAAAAAAAAAAAAAAAAAAAAAAAAAAAAAAAAAAAgKsAS0ojfPcD52YAAAAASUVORK5CYII=;" parent="1" vertex="1">
          <mxGeometry x="319" y="782.63" width="102" height="53.37" as="geometry" />
        </mxCell>
        <mxCell id="-IuH-Xse1U2JRsALx-bR-79" value="" style="shape=image;verticalLabelPosition=bottom;labelBackgroundColor=default;verticalAlign=top;aspect=fixed;imageAspect=0;image=data:image/png,iVBORw0KGgoAAAANSUhEUgAAC1sAAALBCAMAAAAjq6rjAAABcVBMVEVHcExfX1/rXC3rXSzrXS3rXi3rXyzrXy3sYCzsYSzsYizsYyzsZCvsZCzsZSvsZivtZyvtaCvtaSztaiztayztbCztbSztbizubizubyzucCzucSzucizucyzudCvudSvvdirvdivvdyrveCnveSjveinveynvfCnwfSnwfinwfynwgCnwgSnwginxgynxhCnxhSjxhSnxhijxhyjxiCbxiSbyiSbyiibyiybyjCfyjSXyjiXyjyXzkCXzkSXzkifzkyfzlCfzlSf0lif0lyf0mCf0mSX0miX0myX1myX1nCX1nSX1niX1nyX2oCX2oSX2oiX2oyX2pCX3pST3piT3pyT3qCT3qST3qiT3qyT3rCT3rST2riT2ryT3ryT3sCT3sSP3siP4syX4tCX4tST4tSX4tiT4tyT4uCT4uST4uiT4uyT4vCT4vST4viT4vyT4wCT4wSL5wSL5wiL4wyL4xCL4xSL4xiL4xyH4yCH5ySEZEe93AAAAAXRSTlMAQObYZgAAM3dJREFUaN7s28uSHUcVQFGVeBkwErKs9gP4/9/EQ8IhRYhW5nmuNfXAXXkyK7e6733zhkve/sYqAADAibJW1wAAcCyt1TUAAJxKa3ENAABnylpdAwDAsbRW1wAAcKisxTUAAJxKa3UNAACn0lpcAwDAobQW1wAAcKas1TUAABxLa3ENAACH0lpcAwDAobQW1wAAcCit1TUAAJxKa3ENAACH0lpcAwDAmbIW1wAAcCqtxTUAABxKa3ENAACH0lpcAwDAobQW1wAAcCitxTUAABxKa3ENAACH0lpcAwDAqbYW1wAAcCatxTUAABxKa3ENAACH0lpcAwDA27fiGgAAKqW1uAYAQFqLawAAKNbW4hoAAGmtrQEAoFJai2sAAKS1uAYAgFppLa4BANDW2hoAAEqltbgGAEBai2sAAKiV1uIaAABtra0BAKBUWotrAACktbgGAABtDQAAE9NaXAMAIK3FNQAAaGsAAJiY1uIaAABtra0BAKBUWotrAACktbgGAABtDQAAE9NaXAMAoK21NQAAlEprcQ0AgLbW1gAAUCqtxTUAANpaWwMAQKm0FtcAAGhrbQ0AAKXSWlsDAKCtxTUAAJRKa20NAIC2FtcAAFAqrbU1AADaWlwDAIC2BgCAgWmtrQEA0NbiGgAASqW1tgYAQFtrawAAKNXW4hoAAGmtrQEAoFRbq2sAALS1wAYAgHppnZDYCh8AgNFtHVC4fn0OAMCetr4WuT6aAgDAwrY+Hbo+9w0AwOK0Pta6vlMJAIC2PpC7hb9NCQCAtu6T1+W+SAkAgLLu2NeVvkUJAICw7pvXJb5BCQCAsG7f19lfnwQAQFiPyOvU704CACCsx+R13jcnAQBQ1pPyOuVbkwAACOt5ef1WWwMAIKwPdHDs9yUBAFDWU+s67suSAAAI68l1HfVVSQAAlPVsb95qawAAhHWLL0kCAICyFtcAAAhrbQ0AgLLW1gAAKGvENQAAylpbAwCgrLU1AADKWlsDAKCsEdcAAChrbQ0AgLTW1gAAKGttDQCAskZcAwAgrbU1AADKWlsDAJARv8paWwMAcDh6lbW2BgDgZPBKa3ENAMDJ1lXW2hoAQFfH9Z0C1tYAALL6SOMJYG0NACCsj3Se/tXWAAC6+kTqqV9tDQAgrI/UnvgV1wAAwvpE7ylfbQ0AIKyPJJ/w1dYAAMIabQ0AgLDW1gAAKGu0NQCAsEZbAwAoa7Q1AADKGm0NACCt0dYAANoabQ0AoK3R1gAAaGu0NQCAtkZbAwBoa7Q1AIC2RlsDAKCt0dYAANoabQ0AoK3R1gAAaGttDQCAtkZbAwBoa7Q1AIC2RlsDAKCt0dYAANoaaQ0AoK3R1gAA2hptDQCAtq6bpdp6t+drWCYA0NbCuukq2/JVklpkA4C2VtXd19qWLxjVChsAtLWm7rjidnzhqlbYAKCtdXWrZbfj62e1vgYAba2re6y9Hd+kq/U1AGhrVV1+/e34Rl2trwFAWwvr2jOw5Xt1tb4GAG2tqwvPwZ7vF9byGgC0ta4uOgqbvmNYy2sA0NbCuuQ07PqeYS2vAUBbC+uCA7Htu4a1vAYAbS2sq83Etm8c1vIaALS1sq41Fvu+dVjLawDQ1sK60mRs/O5lra4BQFsL6zKzsfO7h7W6BgBtrazLjMfW71/W8hoAtLWyLjIge39CWatrANDWyrrEjGz+CWGtrgFAWyvrElOy+2eUtboGAG2trAvMyfYfUtbqGgDEtbLOH5TtP6Ws5TUAaGtlnT4q+39OWatrANDWyjp3WPb/pLIW1wCgrZV16rgcgEllra4BQFsr69SBOQGjylpdA4C2ltaZI3MEZpW1ugYAba2sE4fmDExLa3UNANpaWqeNzSGYVtbqGgC0tbLOmpuyHsm7DQDEtVjMGJyyVtcAgLbenopWTFqrawDQ1sq62vCUtbgGB99xA7T1+kq0atLadQ8VjrzVBUa2tflZOGXtwoeE826JgYltbYKWTlm78iHjsFtnYGBbG6HFk9bufMg46lYamBfXZmj5pLVrH3IOusUGxrW1IVpAZe3eh5xzbrmBaW1tjNZQWrv6IeuUW3FgWFub4oE5unPFNTjlzhegraX1oUm6dNU1OOQOF7A+rk1QXEtr9z8kHnHrDkxqawMU18paAEDiEbfwwKS2Nr+Dw3Tvqmtwwp0rYHNbG5+4ltYiAFJPuLUHxrS14Z2ep3tXXIMT7lABS+Pa6I7P08WrrsEBd6SAnW1tcuJaWisBkNaAtpbW4lpaawEYcb4NABjS1uZ2Z6ZuXnENDrjTBGxra1MT19JaD8AbZwkQ19K69lBdveIanG9HCVjV1kYmrqW1IgBpDWhrad1grq5ecQ2Ot3MErGlrA7s8WHevuAbH2ykCtsS1cYlrZa0LwBkCtLW07jJaV6+4BufbEQI2tLVhRczW1Suuwfl2gIAFcW1UMcN19YprcL6dH2B8W5tU0HRdveIanG+nB9DWiOu6aV30B3NAcL4dHmBpWxtU2HxdvTE3rz6Axv90NgqgeVwbk7hucvXO/nFBWjs5wIS2NiVx3eDq7dkLTgjOt3MDbGtrQ4qdsKs346IVCSCtAXEtrcX1+qu3fTo4ITjfDg2wqa1NKHzErt68K1YngLQGtLW0FtcLr94xCeGA4Hw7MsCeuDafhBm7epMvV50A2hrQ1tJaXC+5eUc9j8OBA+7MAHva2nTEdbWbd9gzORo44A4NsCeuzSZrym7eEreqSgBpDWhraS2uh169A5/MucABd2gAbc39Obt5y9yoKgFpra0BcS2tu4/ZzVvnPhUJSGtpDWhrad17zm7eUtepSEBba2tAW0trcT3i4h36mA4ETrhjAyyKa1NJHrSLt9pdKhKQ1toa0NbSWly3vnjnPqzTgCPu2AB74tpI8ift4i14kWoEpLW2Bjr4YzEmUmHU6y/eyU/sJKCtHRxAWxM66+X37uhndg6Q1g4OcNUfSjGPErOW1nMf2zFAWjs4wJ62Ng5xnX3vDn9yhwBt7eAAi+LaNLR17r07vTmcAaS1kwPc9qc6DKPMsKX1yKd3AtDWjg6wKK6Nos6wV16747vD/kdaOzqAtkZcS+sza2D7o60dHWBRW5tEpXGvu3YXtIfNj7R2DoBFcW0O2lpa31wHe5/lbW1hgTB/KcEcao171a27oT/sfDa3tUUF9sW1KRQbt7SeVSD2PXvT2pIC4f5cgClUm/eetl7RILY9W9vaggI749oMtHVSWu+oELuepWltPYGlbW0E9eYtrQd1iD3Pzra2mkCa75KZQMF5r2jrHSVix7OzrS0msLatDaDiwKX1lBSx31mZ1tYSWBzX1r/kvMen9ZYYsd/Z2NaWEsj110yWv+bApfWMHLHbWdjWFhLYHNcWv+jAh7f1lh6x15HWANp61sp2Hbi0HlAk3m0sbGvrCKyO62lr9sX/3G/g0rp/k3izsbCtLSOgrRetVqdnGNzWa6LEmw1pDZDkbzk2rlObJ5HW3bPEe419bW0VgeVxvXWFtHViW68JE2819rW1RQTq+HuG1atT/plmpvWeMvFSQ1oDbIvr7QsjrqX1taXySmNfW1tDYHtbW5XUNdjY1ovixCsNbQ2Q6x/hrEjuMvSYj7R+1Wp5obGvrS0hsD2urUbyUvSYkLR+zXp5nSGtAbT14rXIWY0OE5LWr1kxbzO0NcC6oLQO+QtSf0Q+EfKaNfMuY2FbW0FgfVRahPw1qT8jaQ3a2gEH2vo+kCWosCzVhyStQVs74YC47trW31dQ6ZEHtbXDDdIaIN67KJufvdLi1B6TtAZt7YgD2rplW78rpcpzT2lrJxtGt7X1A9bHtbKuskKV5yStQVs744C2btjW7yoS19IatLUzDmjrdmn9rqgKjz8hrd27oK0BsrwPse+JC69T1UlJa9DWDjkgrZul9fvistdgQFs71SCtAbS1tA5brJqzktagrZ1yQFu3auv3LeSuQ/e2dqZBWwNIa2kdumAFh+XX1qCtnXKgvX+G2PSsPZas4LCkNWhrxxzQ1tJaXEtrQFsDxPWmtK63bEPb2pEGbQ2Q6EOINQ/aad2qjUtbg7Z20AFtLa27Ll2xeUlr0NYOOiCtm7T1hw/iunhcS2vQ1k46oK1bpPWHzpa0tbQGbe2oA9q6RVt/aC5+YbQ1oK0B/n8/hFjxkB0XsNDEpDVoa2cd0NbSWlzXaWvnGbQ1QK6PERY8YtdFLDMzv7YGbe2wA9q6QVt//CiuX7E8HdvacQZtDSCtlXXmOmprQFsDaOt9aX1pJWsMTVqDtnbcAW1dva0/fhTXr12jdm3tNIO2Bsj2Y4DZTxcsbpW6pbW7FrQ1wIa0/nH20/WP6yFt7TSDtgbQ1tI6fTkLjM2vrUFbO/CAtpbWk+O6WVs7zDPSKfXfZ8W204Id78QfWy1vm6sLbHG8sKrlp7SuvqT5g5PW2vrVg3xuaLRo2top8iqMWmJLZYN+jU8RBj9ampDF6pTWXnkb2/q5Rml64t7L491zcY0tmg1aIECldf1V7d/WXnLb2vq5qldlNj4FzvzNDe4FdHGNLZ4NurCtP30S19+8Xtqaom393Nbvlmp6FJz52xvCS8g/Zm3QkQWqrRusa+7kHE/v4K8f5ROgbVif+PFD/5cOfcT+7rMfvuV/mrPI3ukrN+jWtv70SVx/+4ppa6q19ROj8zX1zY+grWd1S6v9ENHWo774bIOWbOuXABnzf9nh+pK1Oa8adkdbP6PSuupjaOtx3dJnP1xv61lffh61P1tt0J1t/fIirju1tReb1/FXzPKJM+Geev2TaOuR4dJjP1xu61lff563P/ts0AINKq37xrVfW1OlrZ9JaV37Ybq09ZyP3NfeEGPaetaesUGXt7W01tZ+ba2tv3GYo7KqeiZq69iXiv0Q0tbz/kVmg2prbd0zrv3amgptPSmrGoSito58q9R/uhFtPfPvHWP3Z/0NurCtX17EtbZmTltPqqoWqaitw94qLZ5vQFvP/TSRDVqxrX8KEL4Xftrm5tL1OL4CdnJbD6qqLrWorYNeK/ZDTFsP/jyRDaqtpXX5JU6anheZtv7iOAdFVZ9e1NYhrxX7IaatR3+iyAbV1kPaumLRX1w7v7Yms63nXIudilFbB7xX7IeYtp79mSIbVFsPSOu6vzTv/Ytrba2tPz/POZdir2bU1tffK/ZDTFtP/1SRDVqyraX1ncfoG9cp8/PXN239+XmOuRG7VaO2vvxesR+C2nr6x4ps0Jpt/XOA4C1R5gl+DnZr+fzamqS2HnMh9stGbX31xdLuWbu29fwPFtmg2rppWpdf38PrrK0p0tZTbsOO4aitL75YGj5tz7be8NGiPRu0V1v/cl/spqj3w/8S5tIKSmtS2nrKXfh0TEdtfe3NYj9EtfWGzxbZoNq6YVs3WuVzP6+2pkRbD7kJn8q0dfybpeeGaNjWOz5dtGt/FtugydHXNa3bLfShn7lfW4vXgW095B58qtPWsa+WrhuiX1vv+HjRug3apa1/DRC6MQr/1L92Wez4AWprbf27kQ65Bp9HS2nrVvvhmdHWSz5fZIMubmtp3e1fMuET9JEQbT3yEuz8vNr6wqul8YZo1tZrPmG0cYNq6/i2Lv8za2u/ttbWW9q69QNr6+PvltYnoFdbr/mIkQ2qrTu19ZvOK37+Z9TWbGrrjQ+tre+/W+yHqLZ+Vuyn1W/p8m097OPWPX7g+gsevCA+EqKt591/3X9Xr63Pvlue5huiUVuv+KPY9j8u1tigX/avAIG7o8mPW37Fg5dEWmvraZff04+2vvlysR/C2nrHn8W2p3WNDZra1r3SutE/Am4+hLZGW+9K698/uLY++HJ5+m+INm295O9i28s694Wlrev+sJ1+ca2t0dYLikBbX3q5TNgQ2npwXNug2npKWheP69h1kdbaWlpXe3htfeztYj9o68p3lheWtr77MNE7uk9c+7U12npFD2jr428X+0Fbl760bNAL/h0gbIe0+UEj1v/sT6at2fL23l4D2tpfMT67Ak7T0Lj2wtLW49K6cFz3aWvhqq0LXXpzbn1t7a8Y/7sE2npmXNug2vrus2Tt7BZxra3R1ltaQFuLw8+sgeWbGNePDdq2raV10gzatLWPhGhrab38qrIfym8IbT2wrm1QbX35UTK3d82V79LWulVbl7nvRt362tp+SNsP2tp7ucUG/aL/3Be0STr8jP9l3160NjuKMgDvvhHFGcOMJAgBJERzQCGeOIdkouLZ+78HXS6XhsViOcz/7e56q566gExX9bu7n73/L7u34XFrYms14wx3Uf3vHNhaII7lYYStl2M5PqAHaZ1g6/P0qDh6tlZsPZYBbC0QB/Mww9bLqZwe0N9Wv7ehNsWk/goP7MTDlsTWasQp7qL6v1Gw9dMSIQ9sXfr6ElC27k/rirjeNSS0ZmuSmm6FfomQBbYufYEJJ1vf20kZfrA1W7M1SbG1huRhzhidyC3H//v3156gVF/fsd141HrYWg04yd1UKPqYhiSBrStfYZLJ1jc3UgogbI3WbE2GbB3fkCCwdeVLTDDZehKtq+GardWss9xNZYQPaUgO2LryLSaXbH1zH+UIUhbXbK3Y2k3F1gLB1um2Fku2Hmfrq6ityz7n1MrWaM3WpRqSAraufI1J5f2j/4MNtSMrldd2fk8esRi2VmztpmJrgWDrcFwLZQ9bV/ZoTYWU2oINg0Jrtk4+Zt1ObC0QbJ2Da6HcMPiv3F87slJ4aSV2pbG6oJWt0ZqtCzUkAmxd+iqTSba+uY26DmFrtmbrjFPW3cTWAsHWObYWyR1z/wpbwzVbKyc6WrP1QxoSALYufZdJ5IaxP9tSO+JSdmFl9qYtuqCVrdmaras0ZP/ZuvRlJpD3T/3Zsza27kdrtkZrtg44ZN1MbC0PbB1ja3m8ferPnrE1XLO1Ymu0ZusHNWT32br0dSaOtw+9Fa2vhrR++BaxtWLrB2fJvcTWAsHWMbiWxrtn/uzZ+M/WARiZgmu2Zmu0dlU1aMjmszVbD575s2dsnWDri63Zmq3rHrFuJbYWCLbOwbUw3jvyZ2ydQespH67Zmq3dVK6q+IZsPVuXPrJk8daJP99dG27tkouqt1kd0YWsbH0qGS4ltpYHto45uETx1ok/b2jr521tPQPXbM3Waa52U7G1QDS39aGVOLASbf38OVsn0frBO+YnIc6rc0dRK1if3Pnq6Rtq6wrLY+v7l8zW3RL6iOH+4Ym6/5aruKZzvcW1zdZsnQbrAxufE8OZthaIJrY+v6QuV1VKQkNlXdLWSX9J749rtmbrMFhv3viwMB4Y6ahfPKX9SKXjo3brssYE9OoRULTOtPXF1mzN1tWiUHbYbN37IBiUh7nPWvRFlZfQTFn7bO3DNVuzderfUc9ue2gmJ9paINJtXWptsRdVZEJDac3WPlzf+FzN+lMwW1fJQfUDn637HQOxgeg93IzzbEnoTet+61zdf67VW9HhBsOaZ2u2zpL1VZ4jR5PJ1gKRZet66xv2LSA3oG+xNVuzNVu3tHW/TQ/P5jxbC0SyrSsOdmZAr7SAvvVWa1u3p/VDd5Ct2bqXrdttenw8x9laHpJtXXOuSbdUekLfeLFfPVu3H2zlFnS+xaz22ZqtowKQck2dCihbC0SMrauOdea7X1ZAv8rW6bR+6CayNVv3sXWzLe8R0Wm2FohYWxce69R3v5yAvjhdt59s1dZToMesAbA1WydtfxakDoR0mK1XXCDY+pYBV13bktAbunjxgq072Ppia7Zma7SOiClby0OErUtPdfC73+6EhtK6mq0zac3WbM3WJfY+8Z4KuKpybZ2ZhysgD4ETrri+JaGP7+QFW3exdWdcszVb52x95j1V/arKtfUSiExblx/qcFqXDuiLEbaeQevGtk4EFlsfHxVal80qW8tDeVsHDNWJVTWgL2vU3eOvtZoqfQbNgK3ZOmfjc++pwldVsK2XQETaOmGmAropoaG0Zutyti42BLZma7SefFWxtTw0mnGtVTqxHt7PS7ZuReu+H67Zmq0HU6phXgfZeglEoK1TRorWFQP6kq3Zmq3Zmq3ROsVSAnGikXm2jhmpd789CQ2lNVvDNVuzdbm/lQ6ldbmrKtrW8sDWpXHtxHp0Ty/Zmq3Zmq172rrNZjfNLFsLRGFbB00UrasF9CVbN6T1A/eVrdk619Zo3dRS46/8poGotbqkiQroloSG0pqtfbhma7Zm60rZZWuBqEiXDYvLmiha70joay/ij2rV3TOvtJZCreYMgq3ZGq1HXlXhtpaHPFuHTdSJtSOhobRm64q4Zmu2DrV1l61uHFy2loeitk6bKFrvSOhrLuBr1eruiRdaylWo15xJsDVbz/tsfV3jr6p0W8sDW5f+cO3EemhrX2PrxrZuiWu2Zutxn63jHzy2vuQhztZ5A0XrDQkNpTVbszVbs3WFv5GidaGrKt7W8hBn68CBOrE2JPR1/um3C9bd4y60lPsrZlfYmq3ZuvZFdfSqYmt52L2syHmi9f0JZWu2ftwOszVbB9q6x0Y3efZm21oe2Lr0kbck9IHtvf32QFyzdTiu2ZqtR322rnSesPX5ycnDnkVlztOJdX9CU2nN1mzN1mx99J5BqVpXVb6t5YGtS595S0If1+DbbN2e1n4UwtZsjdZszdaN6LJlSanjFNDbE/r//YvvVK2bJ11mIXsqZFfYmq3ZOuCiutiaXA7TZcuKYqcpoLcnNJXWbF3S1u/0eFTYepCt0bq3pSbaekIgJtv6Yuv6CWVrtu754Zqt2XqIrUueKGwtECfpsmU9ucNE68MBfYet2Zqt2bqxrRvscs0jha3lga1b4XpJ6KOafIet2Zqt2ZqtUYqtUyZ2zQhEgeUkD9OJdXdCU2nN1mzN1mjN1mUvqoutyeUQXfrb+sS5tySUrdkartmarSf8JKTwmcLW3rXO0IWtK9taQL9eu+4dcpV1bKuMbWFrtu5i6/6Uutjau1ZjW0cP04l1d0Jjac3WbH3fU8LWbI1SbO1dK5EubH3L6icE9NoR0K+zNVuzNVuzNVpHW2qWrecE4vhSwkfJ1mzN1km4Zmu2DrK1z9btLTXK1vIwxtZXpq3nJDSW1mztwzVbs/VsW19zbqrutl4CwdaVbT0koNfdAf3j+nXvgKusY19l7Atbs3ULWw+5qC62FoitdNm2kPRJsjVbH0EcW7M1W7M1SsVbapCt5WGSra9AW09KaC6t2Zqtb3tE2JqtUYqtvWul0YWtb1r/ktBH9PqNiLp1vEWWsbEy9oWt2brF3yfGXFQXW8sDWxecpJc/tmZrtp6DrqG2HrbNcy4qthaIfXSpKlO2npfQXFrfbLhxtr7Ymq3ZGqW6WWqMreVhmK13/ihkObEe0O032Jqt2Zqt2Rql2Nq7VtBnQbZm6zIJDbZ1kR+FsDVbszVbo1RRS02xtTywdW1bD0vob/5n342pW6dbZBkbK2Jb2Jqt2TrromJrgSj4EZSt2Xpvu++yNVuz9aUKH/RsnZVQtpaHZrYeduQuCWXr/dRk66LzgOug04itG+eTrdm6HNXYmq23PpHvsjVbszVbszVK9bDUDFvLw0BbX0m2HpfQZFsX+VEIW7O1OnZVzbT1rBcvthYItmbr6DP6m1F162xrrGJjRewKW7M1W+fFk60Fgq1jr7jlxHpqx99k6zeYBVuztWJrlGJreYhpma3Zmq3PKI6tJ9sarrceRaNsjVJsLRBszdatE/pr/7VvpdWts62xin0VsSlszdZsvcblg63lga2DbT0woWzN1l1t7UchbN3T1vPywdYCwdanepj42frpXUfTuoitm+Cardk68KZia7YOtzW5sHVzWw/8XBRuax+u2Zqt2ZqtWWqyreWBrdm6sK2/xdZszdZwfeAcYuv2yWRrti71FLA1W++61L4dWLeOtsgydlXEnrA1W6fb2kXF1gLB1oNsPfxS+zZbv7E22Zqt2Zqt3VQFLdXf1vLA1mxd+FL7TmTdOtsaq9hVEVvS3V1szdZNg8nWAlHkzGDr36mHoT8Jedh4v8PWT9AmW/ezNVxHXJNszdbZtiYXtmZrth5l64ut2VqxNVsHh4St5YGtj9p65okVTmu2Zmu2Zmu2FpKxth56argc2Jqt4ZqtJ34ZYWu2Rim2Fgi2ZutxCf2f/8afxNa9sy2yjC2VsSM+XFMTW0sJW7O1u4Gt2bq9rRvgmq3Zmq1RqtvTyNbywNYnbT30xEqntQ/XbM3WbM3WLDXU1vLA1rf2sJxYT2j7u8F173CrrGNDZWyIa6sdrdnaTcXWEw8ptmbr5gH9Lls/XZxszdZszdYyydbetdiaracn9L//A+9F173DrbKO+ytjPwYeoN1tHXw/szVbszVbs7WEsvV95GTrdraG6/o4YGuWYmt5YOuqtp56YuXTuoytw3H9HluzNVuLJFtH2Voe2Jqt2dqHa7YGGbZmazcVW8vDxdZs3Tmg77G1D9ddbQ3XzWkdZ2s3FVs7odiarQcE9Hvpdfd866ykRpdRQ2Brtu5k67lRYWuBYGu2jplwB1vfrTm2nmtruGZrlGJrgWBrtpbQ363v77E1XLM1Wx8aMFu7qNhaINiarbvZ+v38unu+hZZSosmoEbB175cXtmZrtmZrtmbrYrZ+/324fqA72bqZreGarVEq2VJsLQ9sfc7WY08stvbhmq3Z+th42dpNxdZszdZszdZw3RHX73e1tR+F9H51YWuWYmt5YGu2ZutAW/fHNVvDdeJna7ZmKbaWB7Zm62q2/tMWdfuISy3mdINZ7bM1W7M1W/e0tTywNVuz9RBcszX+sTVbu6nYmq3Zmq2H2vr6sxZ1/5BLLeZoe2nds3Xn9xa2Zim2lge2Zutqtobrx+OTrQGQrdnaTcXWbM3WbD3U1hdbw3VjWrN13cmytZuKreWBrdm6pa3hGq4729qPQjq/tbA1S7G1PLA1Wxe09cXWD/cnWyMgWrO1m4qtBYKt2XqoreH6BoCyNVuzNVu7qdhaINiarWfa+mLr2bhubWu47ktrtmYptpYHtmbroraG6xsEOpHW/m9GtmZrNxVbCwRbszVb/1d9EF8bJl1vRUf6Smt7wXXFobI1SrG1QLB1Z1uPTehtvupp6+uDnrr+AK7ZOvOFha3Zmq3Zmq3Zuqytrw/Ta8esK65pe1Nxbftw3fWzNVuzNVuzNVuzdWFbX2x9h0NH2vrDPmc4W7N13H3I1mzN1mzN1kVsDddDcf0hXMN1Jq2n2XqNDQ1bkwtbs3VqQD/Kri3jrrqurR2lNb3gmq3Zmq3Zmq3Zmq0PBBSuB+L6I7hm69R3FbZma7aWB7Zm6+Ivf3B9j0UH2vqjNsc4XLM1S7F1yUdJHtiarSP+sMLWN2H0Af9eFq3ZGq3Zmq0Pa6b8rAWCrTvbempCd1JrOq4/evo/lmVruGbr24fJ1mzN1mzN1mxd3tbXx8m1aebblrehvfzdYOuxn63Zmq3Zmq3Z+r4e2PpxbcP1jSB94r8SRetKuF5wXWmUbD0vhGzN1mzN1qMDyta3mvQp/0CYreGare+dJFuzNVvLA1uzdcTLH1zfjdI3/o+H2frjJic5W9f8bJ1n67GWWmyNLmw9z9ZDE3pKXHD9Wxa6vbuPP/bhGq5z58jWbM3WbM3WbB1i6+v7sbVv9B26a7QdbD3vs/U8W6+hwWFrcmFrtu4wXrguieu8FuAare+bIluzdbatL3lga7Ye9fIH1wV1nbh+LGRrtp5u68XWAsHWiV/+2frhXbN1PVyzNVvHz5CtUYqtBYKtZ9h6ZkKLfZWN1Fx0Y9+Ha7gOpvVAW6+Z0WFrcmFrtm4T0D/PrL17ENxYy/0IkiFbz7P15aZia3RZbM3Wo1/+4LqSrlMX7sM1Wt80QLYeEh22Fgi2zrT1yITW+ioL1z1p7cM1WrP1bEuxtZcttmZrAf1y/UVk7d6JyJba7gZcT5keW7M1W8sDW9/YgxPrrp7ZusKUMt8HiuF6wXWz4bH1kOywtUCwdaitJyb0Nf+ZHwTW/s2Ia6f3dvhwPeG9JHEfB+aPreWBrdlaQOG6GFbz3gVa23oirhdbsxRb9xrOwDywNVvXOqTZ+uCcEr+zwzVb7xgcWw8JT2NbCwRbN7f1wISWlViu5mLa+AFbw3X83Ebaeg1MD1uTC1sf6sGJdW/HcH1kUFmf2H24RuutY4vcxGnpW2yNLsU+hLJ11n41f/n7YVgd25iIFsbshg/XZYbG1iMtxdbywNZsLaBwXQaujWgN12i9ii2NrXPi09nWAsHWbD395Q+u940q5NP6VFsPwjVboxRbCwRbD7X1NFwfCihc75lVxod1uEbrowPL3EA3FVvPpctia7Zm63RcH9+losv+IVvDdYd5sfWQ/LC1QLB1sK2XgL5GfRJUFbaq4JrnboYP161eRabaetpN1dvWlzywdekenFi72oXruyZWU/tsPRbXi63ZukCA2Fog2DrZ1ktAm+G61K5VWesncA3XHWgdautBllpsjS6F3rXYmq2rv/zBdW59wtZwvXtSbM3WbC0QbD3V1ktAu+mapevsHFyjNVsP+gy02FogKr1rsfWb9cDWe5v9y4yC6TLbxoxozdaDriq2lge2Zut5J1Yy09g6cM+ocSit2XqkpRZbC0Spdy22PmjrSQkNlxpcx+0YXKM1W4/5DMTWbF0rD2z9hj04sQ60+lf1C6irbBc4jqQ1W4+01GJrdGFrto5JaLkbD67ZOm0j4LoDrWfbeg3KUHdbCwRbszVb/2b9dfVi6iI7xY5ozdYzriq2Zmu2bmJrJ9a5RuEarZP2Aa63DYetR1pqsTW6VHvXYuuztl4C2k7XWM3WcN2N1tNtvcaEqL2tBYKt2ZqtE3XN1TU2CCCn0ZqtR15VbM3Wdb9lsLUTq/TLXxSvyfqyDaGENJd2tu5+VS22lge2ZuuhJ9Y9a/ybosXWdgGue02FraWoia0Fgq1r99D7ngy59uAarQN2YcF1+lCSt6tz6BZbo0vlN3a2FtBIW1flNVrbBLjuNBK2Lhm6xdZetkofK2x9cBO9/D21/rZeTaa1PShMAANh60ahY2svW2zdzdZOrFItwjVbj8J1tK4XW8N1rxxNtPUacLCwdbKtl4A25DVa2wK4bjMMti4YucXWAlH8YGHrsxspoA19jdZ2AK6Li2iGrZtaarH18ck5Wdi6tK2XgDbkHVrbgE6PVUcRsXVu5BZbC0T5k4WtT+8lBDy8fnS8BtL6R6WKKdGarZtaarF1ieF512Lr0rZuntCh2GNrtobr+vcfW+clbrG1QBR+12Lrp/WwJLR6cz8+WtNo/eNaNcGVUbrOnUD6FnUL3GLrMvPzrsXWpW3dOqFjuYfWpg/XDQbA1m3bGWlrgWDrObbunNDB3kNrs2/8eE3pPn5/WuVtsXWpEXrXYutH99Driqwb0KfUTw7XGFr/pF7hpd7Zup2lFlsLRPF3LbYuZesloB3Jh9ZG3/rt9WjnCevvtwNtac3WAsHWJXpodEOupraG67G0rjf5objOP1rYukxPi63huvy7Fls/uQcnFlvDdVFaFxz8mqjrBk2PvyF7ipCt44+fonlg62q2bprQ6e5Da3Pv/ueh3h2zdY2uFlsLRMK7Fls/vYcloeUjQnkzaT3N1hV13aTdDrvSIGyLrQsP07sWW5e29RLQjvRDa0Ofh+s25wpbF2hsLbaG64x3LbZ+QA/59+Pqbmu4Rmve7PfOntJK3/1oR2u2Fgi27mvrfgk9HY6flqimtP5p1ao6sDVD161OFbbO/tMBW/fD9WLr5rZ2YgVEBPbG0brwyNYAXTc7VHr8KSF4G9Zia4HYHwi27mbrZgk9H4+flaiGtP5Z0ao8s/5PXLsOm/xMJ3YnFlvLQ9K7Fls/pIflxGLrobpGa38sOtJeUkvdg9dH1tNsLRBsXbuH0OsjJ6Bwjdathtz5sWvZWxNbR15Va7F12mzbBIKtW9q6T0IxsKWufbSu/vB17WtF9TUhdz1kPc7WAsHWtXsIvEKiAtoLgmhtvFfLZ6/vgdLF1lfYnqzdNc3WAsHWtXtIu0XCAvqQ+nmdakHrn9eslPG1e/xanydtbH0lbcvaX2wtEGw9w9Z3zDcuoHCN1u0G2+oJ7H6csPX+TteJGmdrgWDr2j0sCWXrQbr20dofjyb9FayPrVOuqnWm5tlaINh6sK0fN+TMgD6oflGpomn9i5KVNsUWz+GMw6SRrRPuqnWs2Fog2LpWDxFXSmpAe5IQrYePM/5ZnHOWsPXGjtfBGmjrq/xDG5gHts56sxob0EfVp8UqU9afVqzISSY/j7OOkk62vroila0Lz3xYHtg67rLJTCgWNhIhWefj+mkP5cCTpJWtr6qbtc4XWwsEW4+09ZssNj+gjWGI1nNlXeDZHPYVia23b2OQq8faumIeruw8sPVDe1hOLLZuLkPza4br13xCp58jbH3jBFahmmnrSx7YunQPTqz6lwsc9prelV5LBRwjzWxd4pf+rTKWHo8K4+545rC1E2uKrf1c2A9qMAeth9ta6thaHtiard2KvW0doUQzc62NPUTa2Vrq2Foe2DqnB1msf7l8StcNxnY1KgdE+TOErcWst60Fgq1r9yCM9S+XX1atwvwzJ9fa5COkn62Fjq0Fgq2DepDG+pfLL+k6d2BXx3JEFD9BGtpa6NhaINiard2Mj6vPClfFS9hs3GvDD5COtpY5thYIts7pQRzrXy6f0XXWsK7+5ZSofH60tLXMsbU8sHVOD/JY/3L57DO8rjypa2A5JgofHz1tLXNsLQ9sndODQNa/XD6j68pjmmhr50bh04OthW2ArQWCrWv3IJFs3cGXvtu72BwenW0tcmwtEGwd1INIlr9cPk+oqRMaamvnRtmjo6utRY6tBYKtg3qQyfKXy+d0XXU619hyVBQ9OdraWuTYWiDYOqgHoSx/uXz+OV6XHM01uRwWJQ+OvraWOLYWCLYO6kEqq18ur3Jq1lxG29rBUfLcaGxriWNrgWDroB7Esvrl8uoVXhecyTW8HBcFj43OtpY4thYItmZrl+RMXG9A57xv9Kjj0GBriWNrgWDrnB7ksvzl8iqu+s+CrZ0c9c6M3raWOLYWCLbO6UEwy18urxKr9RzI2tFR8MhobmuBY2uBYOugHkSz+uXyKrS6jgCrnRwVT4zutnZVsbVAsHVQD7LJ1pUhOvT/2GQd5wVbCxxbCwRbp/YgnMUvly/yq1HjTO3o6Pc/d8nbmRixtUCcygNb39+DgBa/XL5oU/kdAzVcN/z5qbydyRFbC8SpPLD1hh4EtPjl8kW3iu0Up+G6469PBe5MjthaHk7lga139CCgxS+Xv1MlCqbpuuWPT+XtTIzYWh6+PGS2bteDgBa/UbCWrV1uZM3WV6scsbU8nHrXYus9PQho7fp7VaBAeryum+6CuJ3JEVsLxKl3Lbbe1IMDC64VWsP1yO934nYmSGwtEKfywNbbehBQuFZoTdeZh8QcW+fH7TpxVTWOhzywdekeBBSuFVvD9byPd+J2JkhsLQ9fHi9bN+1BQOFaoTVdj/t2J21ngsTWAnHqXYutt/YgoGyt0Jqu886HWba+eiSJrccH4lge2HpvDwLK1gqt4XqWLaTtTJLYevrpcy4PbL25BwFFa4XWdD2KFsJ2JklsLRBsPcTWiQG9CgT0/voHdaygebCuJwxe2M5Eia3lga3H2FpA2VqxNVxnqXOira/0KLG1QLD1HFtfS0DRWqE1XU+ZurCdyRJbywNbD7K1gBasX6lTRctDdT1n5rJ2JktsLRBsPcrW1xJQtlZoPVnXgyYua2eyxNbywNazbC2gbK3QerCuR81b1M5kia0Fgq2n2VpA0Vqh9VBdD5u2qJ0JE1tPDESNPLD1wR4cWGyN1mqersfNWtTOhImt5YGtB9paQNkardU0XQ+ctKSdCRNbCwRbj7S1gLI1W6tBup45Z0k7kya2Fgi2HmprAS1R/6hOFBkP0/XUKUvamTSxtUCw9VhbCyhbo7UawOu5Ixa0M3Fi60GBKJYHtq7QgwOLrdFatdb16AEL2pk8sfWYQJTLA1vX6MGBxdZordryevh05exMnth6SCAK5oGty/QgoGiN1qqhrs1Wzs7kia0Fgq3H21pAz9U/qd0FwlN4bbDtbH00Z3evkq3Dzp2ieWDrUj0IKFujterDa1NtautTMbt/jWzdNxBsPbcHBxZbo7XqwWsj7WzrAynbskK27hsIth5sawE9Uf+sthb89ue1eba39eaUbVoeW/cNBFvPtrUDC63RWiXz2jCH2Hpbyvatja0jTp3yeWDrovEW0I31L2pnQW9rXhu6lFWJFFv3PHUS8qAEVEBxF60dJFytKoZs96rYum8gbI66/1YUULZGaycJV6vCGTuwJLbuGwibo+4N6CWgv1b/qraVB9qnJCVie0K189/1+NQPhN1R7QLK1gqtOwLbRNXjEzarbYFwzCgBbVj/pjaVrDUCtjGqGxI28JkSCOeMElC0Vmg9+zgxOXVHwKa+rwqEc0YJKFsrtJ54pJiSuidew797LYFw0igBZWuF1koppZRSiq3RWimllFJK3Vn/ru4vMVNKKaWUYmuF1koppZRSiq3RWimllFJKsTVaK6WUUkoptlZorZRSSik1uP5D3Vr/2X595UQQxAAU5LDknNPpESAQAg2wO+7krrrAjK3+ePbCAACkNcoaAABtLa0BAGhgj3I8LwAAbY2yBgBgY7sU4m0BAGhrlDUAANpaWwMAoK21NQAA2hptDQDAq32K8LIAALQ12hoAAG2trQEAaOmAIrwsAABtjbYGAEBba2sAALS1tgYAQFsjrQEAeHdICR4WAIC2RlsDAKCttTUAAE0dUYKHBQAgrtHWAABoa20NAIC21tYAAGhrpDUAAB+OiedZAQBoa7Q1AADaWlsDAKCttTUAANoabQ0AwKcTwnlVAADiGm0NAIC21tYAAGhrbQ0AgLZeW6DSGgCAVE7baPv1GqMBAKCtq/entgYAQFyH5ae2BgBAW4fFp7QGAEBbh8WntgYAYGxndfX1N/UHBABAW1csT2kNAMCYzivq868ajQgAgLiu153aGgAAbR1ZndIaAABtHRmd2hoAAG0d2pzaGgCAueN60INAWgMA0FmnJjgOtDUAAB2kae67QVsDAPDVRUGZZ+tvWgAA8sZ18sNBWwMAUKk/kx8O0hoAgDr5mf5y0NYAAFSpz+yXg7QGAGDBZazc040yNgAAw9dn/tNBWwMAsOwqTPb5hhsdAIAx43OG40FbAwBQvD1nOB6kNQAAf7peKf+ECVYAAED36TnJ+SCtAQD4n5stTTBiukUAANBfec5yP0hrAABKhucs94O2BgCgYHfOc0BIawAASnXnTBeEtAYAYGu3y+aYcgWvBwCApe6c84SQ1gAA0DiuLRUAAHUtrQEAoKO4tlAAAMS1tAYAgLXuwtglAADiWlsDAEBHdW2PAACwI60BAKCfurZDAAB4c7+SDQIAQEhdWx8AAMTUteUBAEBIXFsdAACE1LW9AQDATw+bszQAAIipaysDAIAFjxuxLwAACKlrywIAgJC8tigAAAipa1sCAICQvLYhAAD4r6df2Q8AAITktd0AAEBIX1sLAABs4/k7KwEAgJC+tg0AAAgJbHsAAGjqBTYbeSYgi83lAAAAAElFTkSuQmCC;" parent="1" vertex="1">
          <mxGeometry x="160.5" y="800" width="85" height="20.61" as="geometry" />
        </mxCell>
        <mxCell id="-IuH-Xse1U2JRsALx-bR-83" style="edgeStyle=orthogonalEdgeStyle;rounded=0;orthogonalLoop=1;jettySize=auto;html=1;entryX=0.992;entryY=0.479;entryDx=0;entryDy=0;entryPerimeter=0;shape=link;dashed=1;dashPattern=8 8;flowAnimation=1;" parent="1" source="-IuH-Xse1U2JRsALx-bR-69" target="-IuH-Xse1U2JRsALx-bR-28" edge="1">
          <mxGeometry relative="1" as="geometry">
            <Array as="points">
              <mxPoint x="587" y="830" />
              <mxPoint x="490" y="830" />
              <mxPoint x="490" y="667" />
            </Array>
          </mxGeometry>
        </mxCell>
        <mxCell id="-IuH-Xse1U2JRsALx-bR-84" value="" style="dashed=0;outlineConnect=0;html=1;align=center;labelPosition=center;verticalLabelPosition=bottom;verticalAlign=top;shape=mxgraph.weblogos.java" parent="1" vertex="1">
          <mxGeometry x="421" y="607.8299999999999" width="22.4" height="42.33" as="geometry" />
        </mxCell>
        <mxCell id="-IuH-Xse1U2JRsALx-bR-85" value="&lt;div&gt;Message Broker&lt;/div&gt;&lt;div&gt;&lt;br&gt;&lt;/div&gt;" style="text;strokeColor=none;align=center;fillColor=none;html=1;verticalAlign=middle;whiteSpace=wrap;rounded=0;fontFamily=Verdana;" parent="1" vertex="1">
          <mxGeometry x="480.5" y="770" width="150" height="30" as="geometry" />
        </mxCell>
      </root>
    </mxGraphModel>
  </diagram>
</mxfile>
